<ttFont>
<head>
    <!-- Most of this table will be recalculated by the compiler -->
    <tableVersion value="1.0"/>
    <fontRevision value="2.004"/>
    <checkSumAdjustment value="0x4e8296ae"/>
    <magicNumber value="0x5f0f3cf5"/>
    <flags value="00000000 00000011"/>
    <unitsPerEm value="1000"/>
    <created value="Thu Oct  8 09:57:55 2009"/>
    <modified value="Thu Oct  8 09:57:55 2009"/>
    <xMin value="-469"/>
    <yMin value="-292"/>
    <xMax value="1419"/>
    <yMax value="1127"/>
    <macStyle value="00000000 00000010"/>
    <lowestRecPPEM value="3"/>
    <fontDirectionHint value="2"/>
    <indexToLocFormat value="0"/>
    <glyphDataFormat value="0"/>
  </head>
          <CharString index="0">
            rmoveto
            1 4 0 5 5 vvcurveto
            15 -6 14 -12 9 vhcurveto
            13 -17 -23 4 -29 hhcurveto
            -44 -1 -44 -24 -10 -39 rrcurveto
            -7 vlineto
            -14 10 -8 13 12 13 9 15 4 vhcurveto
            1 2 0 2 3 vvcurveto
            9 -6 7 -7 3 vhcurveto
            14 13 21 7 25 1 rrcurveto
            16 12 -3 -7 5 hvcurveto
            2 -2 1 -4 -4 vvcurveto
            -6 -1 -7 -3 -9 vhcurveto
            -3 -11 -6 -11 -10 -6 -32 -22 -26 -29 -8 -33 -5 -21 rcurveline
            -5 4 -4 7 -2 vhcurveto
            5 4 4 4 2 hvcurveto
            4 19 7 28 29 22 42 20 rlinecurve
            18 9 15 15 5 18 rrcurveto
            endchar
          </CharString>
          <CharString index="1">
            rmoveto
            9 -7 4 -5 -4 -2 0 -14 -14 vhcurveto
            -4 -5 -51 -48 -29 hhcurveto
            -11 -9 7 22 -14 hvcurveto
            22 -13 -15 15 -24 hhcurveto
            -29 -34 -27 -9 -11 hvcurveto
            -14 -10 -42 -34 -11 vvcurveto
            -5 3 -8 9 6 4 5 5 6 vhcurveto
            21 21 41 35 26 hhcurveto
            15 7 -12 -11 7 hvcurveto
            -25 18 11 -18 28 hhcurveto
            28 31 23 16 20 hvcurveto
            7 6 45 36 10 vvcurveto
            endchar
          </CharString>
          <CharString index="2">
            541 143 rmoveto
            4 callgsubr
            -44 11 35 -25 41 hhcurveto
            46 21 40 17 8 hvcurveto
            18 37 13 57 3 vvcurveto
            -187 -18 rmoveto
            -34 -9 -63 -77 -54 hhcurveto
            -55 -3 74 15 51 30 110 15 38 hvcurveto
            63 26 48 52 44 hhcurveto
            61 9 -84 -7 -5 0 -1 -3 -10 hvcurveto
            return
          </CharString>
          <CharString index="3">
            866 670 rmoveto
            5 -3 8 -10 vhcurveto
            -30 -34 -3 -31 -32 -34 3 -31 hhcurveto
            -5 41 callgsubr
            9 hvcurveto
            47 -2 11 -18 -22 vvcurveto
            -6 -1 -5 -2 -7 vhcurveto
            -90 -363 rlineto
            -122 -30 -106 -98 -100 hhcurveto
            -53 -58 33 95 28 5 31 5 18 hvcurveto
            99 397 rlineto
            32 8 6 9 -83 callsubr
            -95 -381 rlineto
            -5 -21 -4 -25 -21 vvcurveto
            -115 81 -74 102 128 115 125 118 29 vhcurveto
            88 356 16 64 41 9 41 2 rlinecurve
            7 12 1 17 hvcurveto
            return
          </CharString>
          <CharString index="4">
            rmoveto
            9 -8 4 -4 -9 -2 -7 -6 -2 vhcurveto
            -89 -29 -77 -32 -46 hhcurveto
            -56 -34 39 50 hvcurveto
            13 4 14 4 vvcurveto
            12 -12 2 0 -18 0 -47 -5 -65 40 -56 73 112 68 126 34 vhcurveto
            return
          </CharString>
          <CharString index="5">
            rmoveto
            -106 98 -3 2 -5 0 -4 -2 rlinecurve
            -155 -98 -12 -7 5 -16 13 5 rlinecurve
            140 55 112 -55 10 -5 13 16 -8 7 rlinecurve
            return
          </CharString>
          <CharString index="6">
            341 123 callsubr
            -16 -62 0 7 11 51 callgsubr
            135 541 rlineto
            32 8 4 10 72 hhcurveto
            19 10 0 18 9 -7 4 -8 hvcurveto
            -39 -42 -3 -40 -41 -42 3 -40 hhcurveto
            -5 -14 -37 callsubr
            35 28 0 -17 0 0 -7 -4 -15 hvcurveto
            -135 -540 rlineto
            -33 -8 -7 -9 -66 hhcurveto
            -22 -10 0 -18 -3 1 -10 13 hvcurveto
            74 callsubr
            -13 callsubr
            hvcurveto
            return
          </CharString>
          <CharString index="7">
            rmoveto
            2 3 0 1 -1 11 -17 133 rcurveline
            11 -1 -2 16 -21 hhcurveto
            -16 -21 -11 -18 -9 hvcurveto
            -5 -11 1 -9 5 -11 47 -121 rcurveline
            -10 4 3 0 4 hhcurveto
            0 21 3 6 13 vhcurveto
            -157 hmoveto
            2 3 0 1 -1 11 -17 133 rcurveline
            11 -1 -2 16 -21 hhcurveto
            -16 -21 -11 -18 -9 hvcurveto
            -5 -11 1 -9 5 -11 47 -121 rcurveline
            -10 4 3 0 4 hhcurveto
            0 21 3 6 13 vhcurveto
            endchar
          </CharString>
          <CharString index="8">
            15 0 48 -34 41 vhcurveto
            -26 31 -18 5 -81 22 -55 16 -2 0 -7 2 rrcurveto
            -39 13 -22 36 43 vvcurveto
            84 81 87 88 99 26 -71 -72 -28 -1 -3 -3 -23 vhcurveto
            -2 -8 0 -3 0 vvcurveto
            -13 10 0 7 11 4 1 19 5 vhcurveto
            51 205 43 callgsubr
            0 0 11 -12 -7 -1 -1 -10 -8 vhcurveto
            -46 -57 rlineto
            55 -33 -54 13 -46 hhcurveto
            -124 -112 -119 -116 -105 85 -30 13 -4 hvcurveto
            121 -33 rlineto
            21 -6 44 -21 -72 vvcurveto
            -95 -85 -95 -89 -76 -78 34 106 23 5 22 3 16 vhcurveto
            1 5 rlineto
            12 -10 0 -7 -13 -3 -2 -18 -4 vhcurveto
            -51 -204 rlineto
            -1 -3 -2 -10 0 vvcurveto
            -7 5 -5 8 7 2 3 9 7 vhcurveto
            24 28 18 24 4 6 return
          </CharString>
          <CharString index="9">
            891 670 140 callsubr
            -8 vhcurveto
            -5 -23 -3 -51 hhcurveto
            -45 -47 3 0 hvcurveto
            84 callgsubr
            10 -1 7 hvcurveto
            16 -1 12 -6 -14 vvcurveto
            -18 -23 -28 -4 -4 vhcurveto
            -222 -264 -102 295 rlineto
            -5 13 0 4 0 vvcurveto
            22 40 1 13 31 callgsubr
            vhcurveto
            -37 -39 -3 -38 -34 -37 3 -33 hhcurveto
            -4 -14 51 callsubr
            49 7 -8 -21 7 hvcurveto
            115 -336 rlineto
            1 -2 4 -12 0 vvcurveto
            -5 -41 -159 -5 -19 vhcurveto
            -13 -55 -1 -3 -73 -1 rrcurveto
            -15 -42 callgsubr
            12 7 7 27 4 16 hvcurveto
            20 82 1 2 22 89 255 303 rcurveline
            60 71 49 4 19 2 rrcurveto
            68 callsubr
            return
          </CharString>
          <CharString index="10">
            792 473 rmoveto
            28 178 2 12 rlineto
            14 -10 0 -17 vhcurveto
            -524 hlineto
            -21 -3 0 -18 -6 hvcurveto
            -60 -180 -4 -14 rlineto
            -13 12 0 4 4 5 0 3 3 vhcurveto
            3 2 0 2 9 24 rrcurveto
            143 50 25 20 134 hhcurveto
            19 23 0 -3 16 hvcurveto
            -11 84 callsubr
            42 callsubr
            -7 -11 -90 hhcurveto
            -14 hlineto
            -16 -13 0 -18 -13 14 0 3 hvcurveto
            50 53 3 51 51 54 -3 50 hhcurveto
            8 38 callgsubr
            hvcurveto
            -15 hlineto
            -15 -20 1 1 -15 hvcurveto
            -23 3 -8 1 16 vvcurveto
            51 callgsubr
            134 538 7 29 7 3 9 1 rlinecurve
            2 7 29 0 18 hhcurveto
            96 35 -8 -68 -26 -7 -46 -1 -8 hvcurveto
            -1 -5 -3 -16 -4 vvcurveto
            -13 14 0 3 12 4 2 19 3 vhcurveto
            return
          </CharString>
          <CharString index="11">
            17 callsubr
            155 -96 109 -141 -207 -212 -232 -234 -159 101 -102 137 206 212 227 236 vhcurveto
            -82 callsubr
            return
          </CharString>
          <CharString index="12">
            575 141 rmoveto
            2 vlineto
            5 -3 5 -5 1 vhcurveto
            -3 hlineto
            -12 hlineto
            -5 -4 -3 -5 -1 hvcurveto
            -88 -22 -18 -44 -31 hhcurveto
            -18 -8 13 26 15 3 18 4 19 hvcurveto
            64 253 58 12 54 43 14 56 rlinecurve
            1 7 1 7 6 vvcurveto
            27 -15 22 -28 -38 -27 -33 -32 -24 16 -19 29 vhcurveto
            4 1 -16 -18 -21 -13 -24 -7 rlinecurve
            1 1 rlineto
            3 146 callgsubr
            17 -14 10 -15 -18 -17 -11 -20 -5 vhcurveto
            -72 -289 -3 -16 rlineto
            -51 -28 -34 -29 -45 hhcurveto
            -24 -17 14 23 -7 hvcurveto
            -4 12 -2 13 14 vvcurveto
            24 5 25 7 31 vhcurveto
            10 37 15 43 26 69 rrcurveto
            5 14 2 14 13 vvcurveto
            46 -31 35 -48 -64 -46 -69 -82 -21 vhcurveto
            -3 vlineto
            -5 3 -4 5 -2 vhcurveto
            3 hlineto
            12 hlineto
            5 4 4 4 2 hvcurveto
            78 19 32 55 45 hhcurveto
            14 6 -9 -19 -16 -5 -23 -9 -23 hvcurveto
            -25 -69 -16 -45 -10 -38 rrcurveto
            -6 -24 -3 -23 -21 vvcurveto
            -25 4 -23 11 -19 vhcurveto
            -34 20 38 -17 44 hhcurveto
            45 37 22 38 30 hvcurveto
            -36 11 31 -24 42 hhcurveto
            60 21 58 94 24 hvcurveto
            return
          </CharString>
          <CharString index="13">
            rmoveto
            -92 callgsubr
            return
          </CharString>
          <CharString index="14">
            -94 callsubr
            endchar
          </CharString>
          <CharString index="15">
            hstemhm
            hintmask 00100000
            887 722 rmoveto
            2 6 1 7 7 vvcurveto
            27 -16 22 90 callgsubr
            17 -19 28 vhcurveto
            7 hlineto
            -18 -20 -25 -16 -26 -5 7 26 rcurveline
            3 vlineto
            6 -4 4 -5 2 vhcurveto
            hintmask 01000000
            -1 -2 -3 -1 0 vvcurveto
            hintmask 10100000
            -32 -32 1 2 -32 hvcurveto
            -3 hlineto
            -6 -5 -4 -5 -1 hvcurveto
            -2 -6 rlineto
            -3 vlineto
            -6 4 -5 5 -1 vhcurveto
            3 -1 rlineto
            27 19 -4 -11 11 hvcurveto
            6 -6 3 -9 -11 vvcurveto
            -6 -1 -7 -2 -8 vhcurveto
            -90 -359 -15 -59 -32 -56 -46 -43 rlinecurve
            -40 -43 -53 -24 -49 hhcurveto
            -44 -36 23 37 -17 hvcurveto
            -10 19 -4 23 25 vvcurveto
            27 5 30 8 32 vhcurveto
            97 388 4 18 6 10 9 4 rlinecurve
            6 13 24 1 38 hhcurveto
            6 5 4 6 1 hvcurveto
            2 6 rlineto
            3 vlineto
            5 -4 5 -5 2 vhcurveto
            -2 hlineto
            hintmask 01000000
            -121 -3 rlineto
            hintmask 10100000
            -121 3 rlineto
            -3 hlineto
            -5 -5 -4 -5 -2 hvcurveto
            -1 -6 rlineto
            -3 vlineto
            -6 4 -5 5 -1 vhcurveto
            3 -1 rlineto
            38 23 -1 -5 9 hvcurveto
            0 2 -3 -6 vvcurveto
            -5 -1 -6 -2 -8 vhcurveto
            -97 -387 rlineto
            -5 -22 -3 -21 -21 vvcurveto
            -43 12 -39 22 -32 vhcurveto
            -47 33 54 -28 63 hhcurveto
            57 61 28 45 48 hvcurveto
            52 48 36 61 16 65 96 383 rcurveline
            60 6 56 48 15 60 rrcurveto
            return
          </CharString>
          <CharString index="16">
            426 -4 rmoveto
            96 386 rlineto
            4 15 0 2 4 vvcurveto
            18 -14 10 -15 -17 -17 -9 -28 -7 vhcurveto
            -73 -290 rlineto
            -41 -10 -45 -49 -51 hhcurveto
            -50 -5 50 27 53 23 69 34 93 hvcurveto
            9 23 4 11 20 vvcurveto
            49 -34 33 -45 -95 -37 -145 -9 -12 12 0 5 14 1 5 12 4 vhcurveto
            26 7 27 98 59 hhcurveto
            10 11 -2 -26 -25 -11 -30 -7 -19 hvcurveto
            -46 -123 -10 -41 -44 vvcurveto
            -106 83 -12 33 19 35 3 32 36 vhcurveto
            -149 -33 -73 -55 -56 hhcurveto
            -27 -27 14 29 -8 hvcurveto
            47 5 1 40 3 vvcurveto
            20 -16 12 -18 -17 -33 -11 -50 -53 42 -34 56 110 92 108 93 23 vhcurveto
            return
          </CharString>
          <CharString index="17">
            rmoveto
            14 -10 16 -21 -14 -8 -8 -9 -9 vhcurveto
            -143 -141 rlineto
            -10 -10 -1 -1 -5 vvcurveto
            -8 9 -10 8 5 9 6 0 vhcurveto
            162 121 rlineto
            11 8 12 11 16 vvcurveto
            endchar
          </CharString>
          <CharString index="18">
            rmoveto
            110 440 -64 callsubr
            -20 -16 -15 -19 -5 vhcurveto
            23 -12 -26 31 -48 hhcurveto
            -108 -122 -138 -149 -107 65 -48 60 40 37 22 28 30 hvcurveto
            -21 -84 -12 -49 -5 -20 -32 -34 rlinecurve
            -32 -28 -31 -11 -35 hhcurveto
            -31 -26 5 4 -13 hvcurveto
            3 1 25 14 29 vvcurveto
            21 -15 11 -19 -18 -30 -14 -38 -42 42 -16 81 114 74 71 68 17 vhcurveto
            -19 199 rmoveto
            -34 -9 -62 -74 -54 hhcurveto
            -55 -3 73 15 47 29 111 17 39 hvcurveto
            68 30 47 39 37 hhcurveto
            63 8 -85 -4 -3 -1 -3 -2 -8 hvcurveto
            return
          </CharString>
          <CharString index="19">
            791 338 rmoveto
            8 36 5 34 34 vvcurveto
            57 -13 53 -27 45 vhcurveto
            -6 9 -5 8 -7 8 45 12 38 43 13 48 rrcurveto
            1 6 1 6 6 vvcurveto
            27 -16 21 90 callgsubr
            16 -19 29 vhcurveto
            5 hlineto
            -17 -19 -24 -14 -23 -2 rrcurveto
            36 -39 -53 21 -61 hhcurveto
            -86 -90 -42 -66 -72 hvcurveto
            -80 -71 -53 -93 -24 -95 rrcurveto
            -8 -33 -5 -34 -33 vvcurveto
            -56 14 -53 27 -45 vhcurveto
            -65 41 69 -41 86 hhcurveto
            86 90 41 65 72 hvcurveto
            79 70 53 91 24 93 rrcurveto
            -89 17 rmoveto
            -21 -86 -35 -88 -65 -74 rrcurveto
            -57 -51 -68 -42 -68 hhcurveto
            -67 -48 42 57 -22 hvcurveto
            -12 33 -5 35 37 vvcurveto
            46 8 49 12 48 vhcurveto
            20 81 34 82 62 66 rrcurveto
            55 52 68 38 66 hhcurveto
            65 49 -38 -55 24 hvcurveto
            14 -32 6 -35 -37 vvcurveto
            -40 -7 -43 -11 -42 vhcurveto
            return
          </CharString>
          <CharString index="20">
            rmoveto
            25 -1 -19 15 -21 hhcurveto
            -28 -30 -26 -32 hvcurveto
            -25 -1 21 -15 20 hhcurveto
            28 31 26 32 hvcurveto
            213 hmoveto
            25 -1 -19 15 -21 hhcurveto
            -28 -30 -26 -32 hvcurveto
            -25 -1 21 -15 20 hhcurveto
            28 31 26 32 hvcurveto
            return
          </CharString>
          <CharString index="21">
            1148 78 callgsubr
            -7 vhcurveto
            -5 -19 -3 -52 -32 -34 3 -31 67 callgsubr
            10 -1 42 -2 -34 vvcurveto
            -12 -9 -16 -5 -9 vhcurveto
            -257 -467 -26 495 -1 17 -1 28 69 1 rlinecurve
            31 callgsubr
            hvcurveto
            -35 -39 122 callgsubr
            -30 hhcurveto
            -4 -15 0 -18 -13 12 0 10 40 3 -6 -11 3 hvcurveto
            1 -6 3 -49 -8 vvcurveto
            -6 0 -3 -6 -11 vhcurveto
            -243 -441 -26 493 -1 20 -1 27 67 1 rlinecurve
            14 11 0 18 9 -7 4 -8 hvcurveto
            -35 -38 -3 -36 -32 56 callgsubr
            -13 11 0 12 44 1 -7 -27 1 hvcurveto
            32 -615 rlineto
            -19 1 0 -6 18 hhcurveto
            17 5 8 11 6 hvcurveto
            280 508 26 -500 rlineto
            -20 1 0 -7 18 hhcurveto
            9 10 0 19 10 hvcurveto
            313 568 39 70 26 13 44 4 rlinecurve
            10 1 4 8 9 vvcurveto
            return
          </CharString>
          <CharString index="22">
            25 callsubr
            hintmask 11001100
            -104 callgsubr
            hintmask 00110000
            return
          </CharString>
          <CharString index="23">
            rlineto
            -35 -9 -6 -7 -67 hhcurveto
            -16 -11 0 -18 return
          </CharString>
          <CharString index="24">
            65 hhcurveto
            18 -89 callgsubr
            return
          </CharString>
          <CharString index="25">
            -85 38 rmoveto
            -194 -139 -277 -187 -76 -79 56 149 73 24 151 83 112 vhcurveto
            81 61 82 47 72 hhcurveto
            80 79 -59 -139 hvcurveto
            return
          </CharString>
          <CharString index="26">
            446 144 rmoveto
            12 -12 0 -5 -13 -1 -3 -17 -6 vhcurveto
            -44 -16 -48 -35 -45 hhcurveto
            -18 -16 5 8 -19 hvcurveto
            9 -22 -23 9 -25 hhcurveto
            -10 -2 0 -1 -4 hvcurveto
            22 27 25 25 25 24 97 90 rcurveline
            126 123 18 52 138 callgsubr
            -4 -11 -1 -1 -18 -12 vhcurveto
            -41 -24 -15 -14 -19 hhcurveto
            -20 -15 18 19 -15 hvcurveto
            18 -14 -17 19 -31 hhcurveto
            -78 -43 -96 -20 -12 12 0 4 14 1 4 9 3 hvcurveto
            36 14 41 11 22 hhcurveto
            21 20 -8 -7 16 hvcurveto
            31 -12 11 -2 21 -2 -25 -30 -17 -16 -65 -61 -90 -85 -1 -1 -33 -36 rrcurveto
            -34 -37 -47 -65 -12 vvcurveto
            -11 10 0 6 12 1 1 11 6 vhcurveto
            24 14 30 38 35 hhcurveto
            21 13 -16 -22 18 hvcurveto
            -22 17 16 -14 29 hhcurveto
            98 58 129 26 hvcurveto
            return
          </CharString>
          <CharString index="27">
            0 -18 -13 11 -27 callsubr
            -7 -10 -4 return
          </CharString>
          <CharString index="28">
            366 144 rmoveto
            11 -13 0 -3 -13 -1 -3 -14 -6 vhcurveto
            -70 -28 -42 -54 -48 hhcurveto
            -11 -17 2 39 9 3 22 5 20 hvcurveto
            73 294 rlineto
            86 hlineto
            17 11 34 callgsubr
            hvcurveto
            -80 hlineto
            37 147 -64 callsubr
            -27 -11 -22 -17 -4 vhcurveto
            -39 -156 rlineto
            -85 -4 callgsubr
            16 hvcurveto
            79 19 callgsubr
            return
          </CharString>
          <CharString index="29">
            -20 -85 callsubr
            return
          </CharString>
          <CharString index="30">
            rmoveto
            2 5 -1 1 -8 8 -108 114 rcurveline
            7 -6 -5 5 -11 hhcurveto
            -21 -20 -15 -20 -7 hvcurveto
            -5 -16 9 -9 9 -6 135 -91 rcurveline
            0 8 -4 5 1 vhcurveto
            9 1 13 12 2 7 rrcurveto
            endchar
          </CharString>
          <CharString index="31">
            914 245 rmoveto
            13 -13 0 -4 -5 -3 0 -3 -4 vhcurveto
            -2 -1 0 -2 -11 -23 rrcurveto
            -132 -56 -34 -66 -147 hhcurveto
            -99 hlineto
            -17 -2 0 3 -10 hvcurveto
            10 0 5 4 14 vhcurveto
            63 250 rlineto
            87 hlineto
            72 0 -20 -21 -17 -5 -20 -1 -5 hvcurveto
            -3 -11 -1 -7 10 callgsubr
            -74 -18 -23 -18 -74 hhcurveto
            -81 hlineto
            67 272 rlineto
            36 9 8 0 31 hhcurveto
            98 hlineto
            109 14 -35 -61 -20 -3 -29 -3 -20 hvcurveto
            -1 -10 0 -4 0 vvcurveto
            -14 9 -1 8 15 1 7 16 2 vhcurveto
            21 174 1 15 rlineto
            13 -11 0 -15 vhcurveto
            -474 137 callsubr
            -18 callsubr
            19 hlineto
            8 12 0 -1 8 hvcurveto
            -318 -536 -41 -68 -36 -13 -39 -3 rlinecurve
            -8 -1 -11 0 -17 vvcurveto
            -4 2 -9 11 vhcurveto
            25 29 3 27 30 33 -3 29 hhcurveto
            4 14 0 18 12 -11 1 -3 hvcurveto
            -10 1 -31 2 29 vvcurveto
            13 8 16 7 12 vhcurveto
            124 209 rlineto
            149 hlineto
            -61 -244 rlineto
            -30 -7 -5 -8 -45 hhcurveto
            -17 -10 0 -18 -18 callsubr
            410 -63 callsubr
            -408 99 rmoveto
            -138 hlineto
            180 305 8 -2 rlineto
            13 -2 6 -2 -14 vvcurveto
            -5 -1 -6 -1 -4 vhcurveto
            return
          </CharString>
          <CharString index="32">
            -102 callsubr
            4 140 rmoveto
            -2 -7 -13 -12 -9 -1 rrcurveto
            -5 -1 -8 4 0 vvcurveto
            -135 91 -9 6 -9 9 5 16 rlinecurve
            20 7 20 15 21 hhcurveto
            11 5 -5 -7 6 hvcurveto
            108 -114 8 -8 1 -1 -2 -5 rlinecurve
            endchar
          </CharString>
          <CharString index="33">
            rmoveto
            -94 144 -3 4 -7 0 -5 -4 rlinecurve
            -166 -144 -12 -10 11 -14 12 8 rlinecurve
            148 99 98 -99 8 -8 16 14 -6 10 rlinecurve
            return
          </CharString>
          <CharString index="34">
            41 -18 23 -32 -36 -29 -31 -34 -31 22 -12 23 22 16 12 3 3 vhcurveto
            -15 -79 -51 -62 -50 -40 rrcurveto
            -10 -9 -1 -1 -5 vvcurveto
            -4 4 -9 8 18 126 120 118 vhcurveto
            return
          </CharString>
          <CharString index="35">
            -70 callgsubr
            hintmask 00110000
            return
          </CharString>
          <CharString index="36">
            hstemhm
            hintmask 11110000
            -106 callgsubr
            hintmask 00001000
            return
          </CharString>
          <CharString index="37">
            rmoveto
            11 -12 0 -4 -12 0 -1 -11 -8 vhcurveto
            -43 -31 -45 -61 -50 hhcurveto
            -20 -4 10 40 -5 hvcurveto
            40 -4 -9 26 -39 hhcurveto
            -54 -48 -32 -28 -32 hvcurveto
            10 22 rlineto
            3 6 8 16 5 91 callsubr
            -4 -12 -2 -1 -15 -7 vhcurveto
            -97 -203 rlineto
            -6 -12 0 -4 0 vvcurveto
            -11 11 0 6 12 1 2 8 5 vhcurveto
            145 75 96 20 35 hhcurveto
            17 6 -6 -19 11 hvcurveto
            -26 17 11 -19 30 hhcurveto
            25 7 4 6 13 hvcurveto
            -90 -146 -12 -19 -38 -76 rrcurveto
            -79 -159 -26 -113 -10 vvcurveto
            -21 15 -13 21 40 8 33 32 8 vhcurveto
            61 234 83 188 115 169 rrcurveto
            12 17 0 4 0 vvcurveto
            endchar
          </CharString>
          <CharString index="38">
            25 -41 -90 callgsubr
            return
          </CharString>
          <CharString index="39">
            rmoveto
            12 10 -11 14 -12 -8 -148 -99 rcurveline
            -98 99 -8 8 -16 -14 6 -10 rlinecurve
            94 -144 3 -4 7 0 5 4 rlinecurve
            endchar
          </CharString>
          <CharString index="40">
            855 -25 callsubr
            134 536 rlineto
            36 9 6 8 66 hhcurveto
            17 11 34 callgsubr
            hvcurveto
            -124 hlineto
            -22 -4 0 -19 -12 hvcurveto
            -347 -569 -61 563 rlineto
            24 -3 -1 1 -26 hhcurveto
            -130 hlineto
            -17 -11 -78 callgsubr
            -128 -513 -16 -64 -47 -6 -37 -1 rlinecurve
            -4 -12 -1 -17 -8 5 -5 9 hvcurveto
            30 34 3 32 32 35 -3 31 hhcurveto
            4 14 0 18 12 -11 1 -7 hvcurveto
            -54 2 -5 22 18 vvcurveto
            4 0 6 4 16 vhcurveto
            132 528 rlineto
            1 hlineto
            66 -602 rlineto
            -18 2 1 -7 16 hhcurveto
            15 5 10 9 6 hvcurveto
            375 616 rlineto
            1 hlineto
            -140 -562 -33 callgsubr
            36 39 3 37 38 40 -3 36 3 callsubr
            hvcurveto
            return
          </CharString>
          <CharString index="41">
            -64 callgsubr
            hintmask 00110000
            return
          </CharString>
          <CharString index="42">
            3 13 1 2 -77 callgsubr
            return
          </CharString>
          <CharString index="43">
            rlineto
            4 14 0 2 4 vvcurveto
            17 -13 11 -16 return
          </CharString>
          <CharString index="44">
            hlineto
            22 2 0 18 7 hvcurveto
            87 211 rlineto
            6 13 44 callgsubr
            return
          </CharString>
          <CharString index="45">
            793 436 rmoveto
            132 -76 115 -142 33 callsubr
            310 hlineto
            195 193 213 223 hvcurveto
            -82 36 rmoveto
            -54 -27 -167 -70 -97 vhcurveto
            -73 -53 -81 -50 -92 5 callgsubr
            138 553 rlineto
            36 9 8 0 31 hhcurveto
            105 hlineto
            102 66 -66 -114 hvcurveto
            return
          </CharString>
          <CharString index="46">
            -68 callgsubr
            -50 -31 38 66 42 20 100 36 64 hvcurveto
            51 29 51 42 50 hhcurveto
            12 43 -2 -39 17 hvcurveto
            -44 -5 -2 -38 -4 vvcurveto
            -29 27 -4 7 19 31 15 45 47 -43 39 -68 -128 -130 -142 -145 return
          </CharString>
          <CharString index="47">
            17 callsubr
            50 -10 70 -48 61 vhcurveto
            24 30 18 19 5 5 rrcurveto
            31 34 13 15 6 vvcurveto
            7 -6 7 -8 -5 -3 -1 -10 -8 vhcurveto
            -80 -91 rlineto
            49 -51 -61 13 -48 hhcurveto
            -207 -212 -232 -234 -91 33 -57 25 -31 hvcurveto
            -17 -20 0 -2 -15 -15 rrcurveto
            -27 -30 -31 -34 -7 vvcurveto
            -7 6 -7 8 5 1 1 9 8 vhcurveto
            81 91 rlineto
            -23 26 50 -38 85 hhcurveto
            206 212 227 236 hvcurveto
            -107 170 rmoveto
            -457 -514 rlineto
            -19 45 -1 41 17 vvcurveto
            51 21 156 75 119 vhcurveto
            86 55 95 68 95 hhcurveto
            71 43 -38 -31 22 hvcurveto
            34 -131 rmoveto
            -76 -31 -169 -83 -107 vhcurveto
            -87 -68 -87 -38 -70 hhcurveto
            -71 -44 36 33 -22 hvcurveto
            456 513 rlineto
            20 -41 0 -44 -20 vvcurveto
            return
          </CharString>
          <CharString index="48">
            718 102 rmoveto
            7 -10 11 -8 -5 -2 -2 -8 -6 vhcurveto
            -81 -60 -70 -15 -30 hhcurveto
            -61 -24 60 63 24 4 32 9 36 hvcurveto
            37 hlineto
            63 59 6 15 40 hvcurveto
            80 30 3 65 11 vvcurveto
            45 -39 41 -67 -44 -47 -17 -33 -44 vhcurveto
            2 7 3 10 8 vvcurveto
            9 -6 16 -21 -9 -19 -6 -22 -6 vhcurveto
            -304 -103 -43 -165 -44 vvcurveto
            -69 65 -44 75 30 38 11 51 48 vhcurveto
            -2 -9 -6 -18 -10 vvcurveto
            -13 9 -12 17 26 4 13 54 16 vhcurveto
            -41 23 38 -26 52 hhcurveto
            114 78 100 13 hvcurveto
            -22 255 rmoveto
            -103 -158 0 -57 vhcurveto
            -20 hlineto
            125 36 86 38 48 hhcurveto
            40 25 -26 -34 hvcurveto
            -323 -211 rmoveto
            -31 -8 -62 -101 -68 hhcurveto
            -11 -55 3 59 107 107 139 156 62 hvcurveto
            return
          </CharString>
          <CharString index="49">
            683 0 42 599 42 hstem
            683 342 rmoveto
            188 -153 153 -188 -189 -153 -153 -188 -189 153 -153 189 188 153 153 189 vhcurveto
            -42 hmoveto
            -166 -134 -134 -165 -166 -134 134 166 165 134 134 166 165 134 -134 -165 vhcurveto
            return
          </CharString>
          <CharString index="50">
            26 -18 17 -27 -25 140 callgsubr
            vhcurveto
            16 76 45 60 59 48 5 5 1 1 1 2 2 5 rcurveline
            6 -2 -5 6 -6 hhcurveto
            -18 -126 -117 -121 -12 0 -52 49 41 25 37 28 hvcurveto
            return
          </CharString>
          <CharString index="51">
            hhcurveto
            -6 -13 -78 callgsubr
            return
          </CharString>
          <CharString index="52">
            551 -10 callsubr
            139 556 rlineto
            -65 callsubr
            -6 138 callsubr
            -57 -227 rlineto
            20 -10 -26 36 -50 hhcurveto
            -112 -121 -145 -151 -102 59 -55 66 60 44 48 21 19 hvcurveto
            -44 11 35 -25 41 hhcurveto
            46 21 40 17 8 hvcurveto
            18 37 13 57 3 vvcurveto
            -187 -18 rmoveto
            -34 -9 -63 -77 -54 hhcurveto
            -55 -3 74 15 51 30 110 15 38 hvcurveto
            63 26 48 52 44 hhcurveto
            61 9 -84 -7 -5 0 -1 -3 -10 hvcurveto
            return
          </CharString>
          <CharString index="53">
            rmoveto
            -47 callgsubr
            vhcurveto
            -36 -10 -28 -81 -54 hhcurveto
            -8 -13 1 27 return
          </CharString>
          <CharString index="54">
            -82 callgsubr
            endchar
          </CharString>
          <CharString index="55">
            515 278 rmoveto
            64 -24 38 -20 21 vhcurveto
            92 122 rlineto
            5 0 12 -12 -6 -4 -4 -8 -6 vhcurveto
            -82 -110 rlineto
            23 -35 -28 2 -20 hhcurveto
            -124 -129 -142 -148 -45 12 -44 31 -34 hvcurveto
            -70 -95 rlineto
            -8 -10 -13 -17 -5 vvcurveto
            -6 5 -6 7 5 1 1 23 18 vhcurveto
            74 98 rlineto
            -7 9 31 -18 43 hhcurveto
            126 127 144 146 hvcurveto
            -85 110 rmoveto
            -242 -321 rlineto
            -7 19 -2 24 13 vvcurveto
            101 68 194 122 21 23 -6 -24 17 vhcurveto
            23 -80 rmoveto
            -101 -68 -194 -122 -10 -28 0 29 -23 vhcurveto
            0 6 9 2 2 vhcurveto
            234 311 rlineto
            5 -15 4 -25 -16 vvcurveto
            return
          </CharString>
          <CharString index="56">
            551 -54 callgsubr
            -55 -44 -25 -37 -35 vhcurveto
            return
          </CharString>
          <CharString index="57">
            -34 callgsubr
            187 hmoveto
            -43 callsubr
          </CharString>
          <CharString index="58">
            -22 callsubr
            -58 -43 -118 -17 -45 hvcurveto
            -12 -33 -2 -6 -21 -26 callgsubr
            return
          </CharString>
          <CharString index="59">
            vvcurveto
            -12 11 -1 3 vhcurveto
            27 -2 23 -10 -24 vvcurveto
            -60 -103 0 -32 vhcurveto
            -12 hlineto
            -15 -11 0 -12 -4 2 -8 10 -1 hvcurveto
            27 hlineto
            75 127 4 81 return
          </CharString>
          <CharString index="60">
            rmoveto
            3 -5 7 -6 vhcurveto
            0 -3 0 -6 -2 vhcurveto
            -4 -15 -16 -3 -15 hhcurveto
            -10 -1 0 2 2 14 54 2 8 hvcurveto
            4 14 -1 1 3 10 3 9 4 16 -1 2 rrcurveto
            11 -11 6 -11 -23 -4 -17 -12 -3 vhcurveto
            -24 -96 -32 9 1 1 -15 3 rlinecurve
            7 -27 -12 0 -18 hhcurveto
            -20 hlineto
            38 31 37 30 44 59 82 108 23 109 1 6 rrcurveto
            10 -1 -10 7 -11 hhcurveto
            -13 -12 -8 -13 -4 hvcurveto
            -17 -60 -12 -42 -18 -39 -22 -39 rlinecurve
            -29 -53 -45 -54 -45 -37 -8 -7 -16 -12 -5 -2 -8 -4 -21 -10 1 -10 rrcurveto
            -2 -1 5 -8 7 hhcurveto
            3 12 8 5 8 hvcurveto
            5 8 9 4 40 hhcurveto
            15 14 0 -7 23 hvcurveto
            46 -14 -22 -89 rlineto
            -2 -8 0 -1 -3 vvcurveto
            -10 1 9 -6 12 hhcurveto
            23 3 13 27 7 hvcurveto
            17 68 rlineto
            -1 4 6 0 4 hhcurveto
            21 48 8 10 -1 hvcurveto
            103 654 rmoveto
            12 3 -7 9 -11 hhcurveto
            -8 -7 -3 -6 -5 hvcurveto
            -581 -644 -3 -3 -2 -4 -1 -4 rlinecurve
            -12 -3 10 callsubr
          </CharString>
          <CharString index="61">
            -42 callsubr
            -58 0 6 return
          </CharString>
          <CharString index="62">
            rmoveto
            -4 0 -74 -72 -25 -20 7 27 3 -2 75 72 30 17 -9 -25 vhcurveto
            40 -2 rmoveto
            37 -30 31 -47 -60 -60 -50 -58 -41 32 13 callsubr
            return
          </CharString>
          <CharString index="63">
            551 130 callgsubr
            386 31 249 25 hstemhm
            -20 83 191 64 83 51 3 67 0 67 hintmask 1011101010000000
            536 165 rmoveto
            36 -17 32 -25 29 vhcurveto
            -20 24 -22 25 24 vvcurveto
            22 21 24 23 28 vhcurveto
            26 30 67 81 70 vvcurveto
            65 -54 50 -89 -122 -62 -54 -124 -24 vhcurveto
            -18 -96 rlineto
            115 callgsubr
            -371 rlineto
            -101 -19 -21 -108 -54 hhcurveto
            -6 -14 2 13 -8 hvcurveto
            38 8 5 31 9 vvcurveto
            20 -16 12 -18 -17 -32 -11 -45 -40 31 -24 37 52 47 55 47 22 vhcurveto
            27 59 14 63 12 64 86 448 rcurveline
            17 88 16 19 3 4 rrcurveto
            30 27 47 8 28 hhcurveto
            63 13 -50 -32 -13 -18 -116 -42 -43 hvcurveto
            -48 -48 -13 -20 -52 vvcurveto
            -18 0 -30 29 -35 vhcurveto
            hintmask 0100010100000000
            14 -19 11 -17 -27 vvcurveto
            -20 -29 -126 -72 -4 -46 0 36 -14 vhcurveto
            24 7 4 19 9 vvcurveto
            13 -9 12 -18 -9 -28 -5 -41 -51 51 -24 50 100 81 100 76 vhcurveto
            endchar
          </CharString>
          <CharString index="64">
            -73 callsubr
            endchar
          </CharString>
          <CharString index="65">
            13 -10 0 -16 return
          </CharString>
          <CharString index="66">
            rmoveto
            2 7 6 23 5 vvcurveto
            13 -11 0 -16 vhcurveto
            -198 hlineto
            -20 -4 0 -14 -4 hvcurveto
            -2 -7 -5 -21 -5 vvcurveto
            -13 13 0 16 vhcurveto
            193 hlineto
            20 6 0 12 4 hvcurveto
            endchar
          </CharString>
          <CharString index="67">
            rmoveto
            15 -12 7 -9 -11 -5 -6 -10 -8 vhcurveto
            -64 -57 -81 -28 -62 hhcurveto
            -60 -58 26 47 -37 hvcurveto
            14 -10 -17 21 -37 hhcurveto
            -94 -100 -139 -129 -78 39 -57 61 89 93 146 129 8 0 14 -3 15 hvcurveto
            -32 45 47 -9 42 hhcurveto
            37 36 6 20 46 hvcurveto
            -1 vlineto
            -587 -666 rlineto
            -1 -3 -1 -8 0 vvcurveto
            -11 8 -11 13 8 7 5 7 6 vhcurveto
            661 750 rlineto
            12 13 0 5 4 vvcurveto
            return
          </CharString>
          <CharString index="68">
            735 -12 25 -24 -14 callgsubr
            -24 25 hstemhm
            110 70 224 41 251 41 hintmask 01110011
            718 102 rmoveto
            7 -10 11 -8 -5 -2 -2 -8 -6 vhcurveto
            -81 -60 -70 -15 -30 hhcurveto
            -58 -24 56 62 26 4 29 10 42 hvcurveto
            36 hlineto
            62 58 6 14 39 hvcurveto
            78 30 5 62 15 vvcurveto
            45 -39 41 -67 -89 -62 -61 -25 -26 vhcurveto
            hintmask 10001100
            43 -14 -36 44 -60 hhcurveto
            -113 -121 -147 -150 -106 60 -52 66 51 59 33 66 50 hvcurveto
            hintmask 01110001
            -54 19 43 -44 68 hhcurveto
            114 78 100 13 hvcurveto
            -22 255 rmoveto
            -103 -155 0 -76 vhcurveto
            139 40 92 24 34 hhcurveto
            40 25 -26 -34 hvcurveto
            -340 -234 rmoveto
            hintmask 10001110
            -59 -28 -45 -51 -46 hhcurveto
            -52 -5 66 24 49 30 116 19 43 hvcurveto
            61 27 45 46 42 hhcurveto
            58 3 -79 -17 -45 -25 -103 -23 -51 hvcurveto
            endchar
          </CharString>
          <CharString index="69">
            687 6 callgsubr
            47 34 40 24 rrcurveto
            -1 29 29 -2 27 hhcurveto
            4 14 0 18 13 -11 0 -12 -53 -2 7 27 -2 hvcurveto
            -49 628 rlineto
            18 -1 -3 5 -16 hhcurveto
            -9 -10 0 -20 -11 hvcurveto
            -334 -579 -45 -78 -42 -6 -27 -2 rlinecurve
            -11 -1 -10 -1 -16 vvcurveto
            -7 5 -6 7 vhcurveto
            4 28 3 49 31 33 -3 29 hhcurveto
            4 14 0 18 12 -11 1 -3 hvcurveto
            -27 2 -15 10 21 vvcurveto
            12 3 6 12 23 vhcurveto
            73 127 rlineto
            238 hlineto
            13 -170 rlineto
            -8 -7 -22 -56 -1 vhcurveto
            -13 -13 0 -18 -5 3 -8 12 30 32 2 1 31 hvcurveto
            -54 -33 -45 -39 37 callgsubr
            -154 378 rmoveto
            -217 hlineto
            191 330 rlineto
            return
          </CharString>
          <CharString index="70">
            -21 callgsubr
            16 return
          </CharString>
          <CharString index="71">
            775 0 31 296 30 295 36 callsubr
            -64 -258 rlineto
            -95 hlineto
            -9 -7 124 callgsubr
            -9 -3 5 -6 9 hhcurveto
            94 hlineto
            -63 -254 53 callgsubr
            310 hlineto
            195 193 213 223 hvcurveto
            -82 36 rmoveto
            -54 -27 -167 -70 -97 vhcurveto
            -73 -53 -81 -50 -92 5 callgsubr
            66 264 rlineto
            151 9 callgsubr
            -152 hlineto
            65 259 94 callgsubr
          </CharString>
          <CharString index="72">
            rmoveto
            -4 0 -74 -73 -24 -20 7 27 -1 vhcurveto
            3 -1 75 73 29 17 -9 -25 vhcurveto
            40 -2 rmoveto
            37 -30 31 -47 -60 -59 -50 -58 -2 vhcurveto
            -41 33 55 callgsubr
          </CharString>
          <CharString index="73">
            609 -82 callgsubr
            return
          </CharString>
          <CharString index="74">
            39 41 -3 38 hhcurveto
            5 14 0 18 return
          </CharString>
          <CharString index="75">
            9 rmoveto
            9 -8 8 -9 -7 -7 -3 -1 -6 vhcurveto
            -4 -23 -23 -1 -23 hhcurveto
            39 156 rlineto
            3 12 4 15 14 vvcurveto
            16 -10 13 -16 -36 -9 -48 -39 -10 vhcurveto
            -32 -128 rlineto
            12 -44 -45 11 -46 hhcurveto
            -29 hlineto
            33 26 33 23 32 28 76 70 61 88 33 99 4 11 4 12 2 11 rrcurveto
            23 -11 11 -18 vhcurveto
            -3 hlineto
            -35 -3 -6 -45 -9 -31 -48 -131 -85 -114 -120 -77 rrcurveto
            -17 -10 -31 -7 -17 vvcurveto
            -9 9 -7 8 10 9 10 2 10 vhcurveto
            6 23 28 0 24 hhcurveto
            22 22 -2 -3 22 hvcurveto
            25 -5 25 -9 25 -3 -36 -144 rcurveline
            -2 -6 -1 -7 -6 vvcurveto
            -11 6 -17 22 28 9 23 24 7 vhcurveto
            33 133 rlineto
            -1 8 8 0 8 hhcurveto
            33 57 5 18 hvcurveto
            endchar
          </CharString>
          <CharString index="76">
            696 0 31 -28 28 283 28 310 31 hstemhm
            658 88 hintmask 01010000
            746 534 rmoveto
            82 -68 67 -115 vhcurveto
            -304 -17 callgsubr
            hvcurveto
            hintmask 10000000
            16 callgsubr
            vhcurveto
            hintmask 01000000
            38 40 3 39 hhcurveto
            hintmask 10111000
            92 callgsubr
            4 24 callgsubr
            61 245 rlineto
            153 hlineto
            148 127 111 109 hvcurveto
            -88 25 rmoveto
            -8 -7 -98 -49 -55 vhcurveto
            -13 -11 -45 -43 -91 hhcurveto
            -133 hlineto
            68 274 rlineto
            36 9 8 0 31 hhcurveto
            94 hlineto
            67 59 -22 -71 hvcurveto
            endchar
          </CharString>
          <CharString index="77">
            315 -205 25 17 78 485 59 callsubr
            318 83 vstem
            459 639 rmoveto
            45 -46 21 -39 -51 -34 -42 -10 -7 vhcurveto
            -26 -35 -14 -72 0 vvcurveto
            -22 -115 rlineto
            -6 callgsubr
            -70 -364 -12 -64 0 -2 -18 -69 rlinecurve
            -27 -7 -14 -54 2 callgsubr
            44 150 128 25 vhcurveto
            63 327 rlineto
            84 hlineto
            17 11 83 callgsubr
            -79 hlineto
            30 158 rlineto
            45 10 10 46 35 hhcurveto
            0 25 0 16 -16 vhcurveto
            -36 -10 -3 -31 -6 vvcurveto
            -20 16 -12 18 22 27 17 37 vhcurveto
            endchar
          </CharString>
          <CharString index="78">
            33 callgsubr
            hintmask 11011000
            -94 callgsubr
            hintmask 00100000
            return
          </CharString>
          <CharString index="79">
            -322 -7 callsubr
            return
          </CharString>
          <CharString index="80">
            0 16 58 0 return
          </CharString>
          <CharString index="81">
            -46 callsubr
            11 return
          </CharString>
          <CharString index="82">
            18 rmoveto
            -12 callgsubr
            vhcurveto
            return
          </CharString>
          <CharString index="83">
            -68 callgsubr
            -68 -10 76 35 8 0 32 16 64 hvcurveto
            29 hlineto
            75 52 8 14 36 hvcurveto
            70 28 9 56 21 vvcurveto
            45 -38 41 -68 -102 -150 -94 -181 -112 63 -66 85 8 7 0 1 8 vhcurveto
            -46 -30 -34 -34 58 callsubr
            -55 callgsubr
            9 40 46 33 40 24 60 18 50 38 27 43 rrcurveto
            -49 256 rmoveto
            -103 -159 0 -65 vhcurveto
            160 46 99 3 14 hhcurveto
            44 21 -30 -30 hvcurveto
            return
          </CharString>
          <CharString index="84">
            2 -1 2 -1 2 vhcurveto
            -42 65 -25 77 -6 83 rrcurveto
            6 -1 -4 4 -6 hhcurveto
            -3 hlineto
            -6 -5 -4 -6 hvcurveto
            -3 -81 11 -77 23 -71 -59 -71 -49 -77 -38 -80 rrcurveto
            -2 -1 -1 -2 vvcurveto
            -6 5 -5 6 vhcurveto
            3 hlineto
            5 3 2 4 2 hvcurveto
            48 84 64 78 76 65 rrcurveto
            3 2 1 3 4 vvcurveto
            return
          </CharString>
          <CharString index="85">
            15 15 33 33 54 hhcurveto
            38 9 -33 -32 return
          </CharString>
          <CharString index="86">
            hhcurveto
            -3 -22 0 16 -14 hvcurveto
            36 10 3 31 6 vvcurveto
            20 -16 12 -18 -22 -27 -17 -37 return
          </CharString>
          <CharString index="87">
            25 403 return
          </CharString>
          <CharString index="88">
            696 0 -20 callgsubr
            return
          </CharString>
          <CharString index="89">
            45 callgsubr
            hvcurveto
            return
          </CharString>
          <CharString index="90">
            466 -82 callgsubr
            return
          </CharString>
          <CharString index="91">
            472 -4 callsubr
            return
          </CharString>
          <CharString index="92">
            rlineto
            -32 -8 -7 -4 -39 hhcurveto
            -9 -12 0 -18 -5 2 -8 11 hvcurveto
            26 31 3 28 33 34 -3 31 hhcurveto
            5 13 78 callsubr
            -47 0 7 9 11 42 160 5 20 hvcurveto
            -38 21 30 -17 35 hhcurveto
            114 119 149 146 hvcurveto
            -121 -168 rmoveto
            -54 -25 -45 -48 -42 hhcurveto
            -22 -17 11 21 -13 hvcurveto
            -15 24 -3 36 0 vvcurveto
            0 1 10 1 3 vhcurveto
            47 186 8 30 21 23 22 21 rlinecurve
            31 32 28 7 15 hhcurveto
            55 3 -76 -13 -52 -31 -116 -20 -44 hvcurveto
            endchar
          </CharString>
          <CharString index="93">
            787 -22 30 669 28 return
          </CharString>
          <CharString index="94">
            41 42 -3 40 3 callsubr
            return
          </CharString>
          <CharString index="95">
            828 385 317 rmoveto
            7 -1 -7 0 -11 hhcurveto
            -7 hlineto
            -52 0 5 8 -1 hvcurveto
            1 3 -1 1 3 9 84 336 rcurveline
            2 8 1 1 -1 2 rrcurveto
            7 -6 1 -4 -6 0 -1 -7 -6 vhcurveto
            -37 -44 -40 -21 -48 -4 rrcurveto
            -4 -1 -8 0 -10 vvcurveto
            -2 1 1 -6 10 hhcurveto
            17 32 6 18 31 hvcurveto
            -70 -281 rlineto
            -21 -5 -3 -7 -59 hhcurveto
            -7 hlineto
            -11 -10 0 -10 2 hvcurveto
            -4 2 -4 9 vhcurveto
            31 34 2 31 33 35 -2 31 hhcurveto
            6 9 0 11 -1 hvcurveto
            return
          </CharString>
          <CharString index="96">
            472 -11 25 163 61 callsubr
            hstem
            155 41 246 71 vstem
            513 264 rmoveto
            112 -63 66 -85 -92 -88 -50 -62 -38 vhcurveto
            -13 4 9 -6 6 hhcurveto
            5 2 2 9 7 hvcurveto
            73 57 81 22 46 hhcurveto
            68 10 -76 -35 -8 0 -32 -16 -64 hvcurveto
            -29 hlineto
            -75 -52 -8 -14 -36 hvcurveto
            -70 -28 -9 -56 -21 vvcurveto
            -45 38 -41 68 102 150 94 181 vhcurveto
            -93 -87 rmoveto
            -160 -46 -99 -3 -14 hhcurveto
            -44 -21 30 30 103 159 0 65 hvcurveto
            endchar
          </CharString>
          <CharString index="97">
            143 rmoveto
            -96 callgsubr
            return
          </CharString>
          <CharString index="98">
            339 541 -87 callsubr
            return
          </CharString>
          <CharString index="99">
            115 vstem
            377 29 callgsubr
            return
          </CharString>
          <CharString index="100">
            124 -87 callsubr
            return
          </CharString>
          <CharString index="101">
            0 18 -46 callsubr
            return
          </CharString>
          <CharString index="102">
            -77 callgsubr
            0 0 -7 -4 -15 vhcurveto
            -144 -576 rlineto
            -4 -14 0 -2 -4 vvcurveto
            -15 11 -13 19 return
          </CharString>
          <CharString index="103">
            -11 -14 callgsubr
            return
          </CharString>
          <CharString index="104">
            23 -17 21 -28 -36 -30 -34 -30 -23 17 -21 28 36 30 34 30 vhcurveto
            return
          </CharString>
          <CharString index="105">
            472 278 68 vstem
            346 -107 rmoveto
            34 -28 16 -35 6 vhcurveto
            4 14 6 24 4 17 rrcurveto
            9 -1 -11 0 -16 hhcurveto
            -14 hlineto
            -23 -1 0 -9 -3 hvcurveto
            -3 -11 -11 -47 40 callgsubr
            hvcurveto
            endchar
          </CharString>
          <CharString index="106">
            rmoveto
            -13 callgsubr
            return
          </CharString>
          <CharString index="107">
            rmoveto
            22 -15 22 -31 -33 -32 -32 -32 -22 15 -22 31 33 32 32 32 vhcurveto
            return
          </CharString>
          <CharString index="108">
            -1 callgsubr
            36 17 38 50 37 hhcurveto
            53 2 -84 -15 hvcurveto
            return
          </CharString>
          <CharString index="109">
            rmoveto
            -9 17 rlineto
            -41 -60 -60 -30 -51 hhcurveto
            -40 -25 17 20 -30 hvcurveto
            17 -25 -26 17 -40 hhcurveto
            -25 -28 -8 -10 -25 hvcurveto
            -22 -10 -23 -11 -21 -14 -65 -44 rcurveline
            10 -17 rlineto
            41 59 61 30 51 hhcurveto
            40 25 -17 -20 30 hvcurveto
            -17 24 27 -17 40 hhcurveto
            25 28 8 10 25 hvcurveto
            22 10 23 11 20 14 rrcurveto
            endchar
          </CharString>
          <CharString index="110">
            hhcurveto
            57 callgsubr
            return
          </CharString>
          <CharString index="111">
            rlineto
            3 14 1 1 -77 callgsubr
            -7 -2 -8 -2 -7 vhcurveto
            return
          </CharString>
          <CharString index="112">
            rlineto
            -6 -24 -3 -30 -16 vvcurveto
            -84 44 -71 77 114 119 149 147 vhcurveto
            -115 -155 rmoveto
            -83 -35 -49 -33 -34 hhcurveto
            -47 -13 57 38 38 10 37 19 80 hvcurveto
            5 20 10 36 2 3 rrcurveto
            71 45 44 23 31 hhcurveto
            57 0 -83 -6 -51 -32 -116 -13 -31 hvcurveto
            endchar
          </CharString>
          <CharString index="113">
            749 0 31 298 25 298 31 return
          </CharString>
          <CharString index="114">
            62 callsubr
            453 return
          </CharString>
          <CharString index="115">
            -35 -21 callsubr
            -44 return
          </CharString>
          <CharString index="116">
            73 callsubr
            4 13 28 52 24 24 rlinecurve
            -49 callsubr
            return
          </CharString>
          <CharString index="117">
            7 -9 11 hhcurveto
            8 7 4 6 5 hvcurveto
            581 643 3 3 2 4 1 4 rlinecurve
            endchar
          </CharString>
          <CharString index="118">
            116 71 246 41 return
          </CharString>
          <CharString index="119">
            hstemhm
            11 callsubr
            return
          </CharString>
          <CharString index="120">
            -27 44 61 59 53 55 1 vhcurveto
            return
          </CharString>
          <CharString index="121">
            hhcurveto
            7 13 83 callgsubr
            -8 hlineto
            -72 0 8 13 return
          </CharString>
          <CharString index="122">
            82 217 25 81 108 hstem
            87 38 235 38 vstem
            429 456 0 callsubr
            25 -419 rmoveto
            21 -15 11 -19 -26 -22 -23 -25 -6 1 -23 33 -3 vhcurveto
            return
          </CharString>
          <CharString index="123">
            4 0 2 4 return
          </CharString>
          <CharString index="124">
            806 441 rmoveto
            return
          </CharString>
          <CharString index="125">
            -7 callsubr
            endchar
          </CharString>
          <CharString index="126">
            hstem
            574 674 -103 callsubr
            return
          </CharString>
          <CharString index="127">
            498 130 callgsubr
            403 25 return
          </CharString>
          <CharString index="128">
            hvcurveto
            36 39 3 37 return
          </CharString>
          <CharString index="129">
            174 364 -103 callsubr
            return
          </CharString>
          <CharString index="130">
            19 callgsubr
            -48 34 -43 55 46 21 40 17 8 vhcurveto
            18 37 13 57 3 vvcurveto
            return
          </CharString>
          <CharString index="131">
            rmoveto
            -3 callsubr
            return
          </CharString>
          <CharString index="132">
            hstemhm
            15 callgsubr
            return
          </CharString>
          <CharString index="133">
            15 -11 14 -20 -3 -2 0 -1 -3 vhcurveto
            -20 -4 -10 -21 -10 -16 -51 -83 rcurveline
            -9 -13 -19 -23 -14 vvcurveto
            -9 9 -8 9 vhcurveto
            1 hlineto
            13 2 13 22 11 11 66 74 rcurveline
            13 15 23 18 21 vvcurveto
            return
          </CharString>
          <CharString index="134">
            763 21 callgsubr
            return
          </CharString>
          <CharString index="135" raw="1">
            969b0a0b   
          </CharString>
          <CharString index="136">
            -200 108 return
          </CharString>
          <CharString index="137">
            hlineto
            -8 -9 124 callgsubr
            -9 -2 5 -6 8 hhcurveto
            return
          </CharString>
          <CharString index="138">
            2 hvcurveto
            8 2 -5 7 -8 hhcurveto
            return
          </CharString>
          <CharString index="139">
            11 callgsubr
            31 return
          </CharString>
          <CharString index="140">
            vhcurveto
            -316 1 callgsubr
            return
          </CharString>
          <CharString index="141">
            hstemhm
            130 60 41 61 return
          </CharString>
          <CharString index="142">
            -5 -13 0 -18 return
          </CharString>
          <CharString index="143">
            31 hstem
            711 82 vstem
            44 callsubr
            return
          </CharString>
          <CharString index="144">
            50 callgsubr
            hintmask 01100000
            return
          </CharString>
          <CharString index="145">
            111 73 264 73 return
          </CharString>
          <CharString index="146">
            794 -22 43 callsubr
            return
          </CharString>
          <CharString index="147">
            -252 hlineto
            131 callsubr
            11 -9 11 -13 -17 -4 -17 -8 -2 vhcurveto
            -67 -268 rlineto
            -263 hlineto
            -15 -20 0 -21 -22 19 0 16 hvcurveto
            252 hlineto
            return
          </CharString>
          <CharString index="148">
            vvcurveto
            -27 13 -44 50 71 44 72 23 12 -10 0 -7 -14 -1 -3 -11 -3 vhcurveto
            -44 -15 -37 -24 -27 hhcurveto
            -20 -6 15 17 22 11 23 16 14 hvcurveto
            return
          </CharString>
          <CharString index="149">
            -134 -538 rlineto
            -35 -9 return
          </CharString>
          <CharString index="150">
            31 234 31 400 31 return
          </CharString>
          <CharString index="151">
            793 436 rmoveto
            132 -76 115 -142 73 callgsubr
            return
          </CharString>
          <CharString index="152">
            6 3 -15 hvcurveto
            9 -45 -21 0 -5 hhcurveto
            -8 -2 0 -1 -4 hvcurveto
            34 50 50 23 20 10 109 51 70 38 -4 79 rrcurveto
            63 -3 -54 return
          </CharString>
          <CharString index="153">
            25 288 66 49 25 hstemhm
            108 callsubr
            return
          </CharString>
          <CharString index="154">
            -49 callgsubr
            hstem
            111 73 return
          </CharString>
          <CharString index="155">
            hlineto
            -5 -7 0 -2 -4 hvcurveto
            -3 -2 -2 -2 -2 -2 -4 -4 -1 -6 1 -5 1 -2 2 -2 1 -1 rrcurveto
            -2 3 7 0 5 hhcurveto
            return
          </CharString>
          <CharString index="156">
            158 66 7 61 89 65 216 51 return
          </CharString>
          <CharString index="157">
            hlineto
            96 callgsubr
            return
          </CharString>
          <CharString index="158">
            0 -18 -13 11 0 12 return
          </CharString>
          <CharString index="159">
            4 53 callsubr
            return
          </CharString>
          <CharString index="160">
            rmoveto
            1 callsubr
            return
          </CharString>
          <CharString index="161">
            3 callgsubr
            vhcurveto
            -154 hlineto
            -17 -12 0 -21 -13 11 0 15 hvcurveto
            154 hlineto
            17 12 0 21 hvcurveto
            endchar
          </CharString>
          <CharString index="162">
            hhcurveto
            -6 41 callgsubr
            return
          </CharString>
          <CharString index="163">
            315 -205 25 597 25 return
          </CharString>
          <CharString index="164">
            hlineto
            -141 -280 rlineto
            -5 -10 -2 -3 -7 vvcurveto
            -12 10 -9 11 14 4 9 10 5 vhcurveto
            152 302 rlineto
            return
          </CharString>
          <CharString index="165">
            -10 -47 rrcurveto
            -37 callgsubr
            return
          </CharString>
          <CharString index="166">
            31 154 78 17 25 hstem
            -25 83 return
          </CharString>
          <CharString index="167">
            145 callsubr
            195 -20 return
          </CharString>
          <CharString index="168">
            25 215 25 return
          </CharString>
          <CharString index="169">
            31 201 31 return
          </CharString>
          <CharString index="170">
            80 callsubr
            hstemhm
            hintmask 00110000
            return
          </CharString>
          <CharString index="171">
            1 10 1 16 vvcurveto
            return
          </CharString>
          <CharString index="172">
            0 -18 -12 11 -1 return
          </CharString>
          <CharString index="173">
            219 -1 callsubr
            return
          </CharString>
          <CharString index="174">
            28 389 25 138 76 32 -20 hstem
            return
          </CharString>
          <CharString index="175">
            10 64 callsubr
            return
          </CharString>
          <CharString index="176">
            392 108 194 -20 hstem
            return
          </CharString>
          <CharString index="177">
            472 -49 callgsubr
            return
          </CharString>
          <CharString index="178">
            735 -22 31 665 31 return
          </CharString>
          <CharString index="179">
            607 254 rmoveto
            65 -48 59 -79 -101 -85 -96 -84 -65 48 -59 79 101 85 96 84 vhcurveto
            return
          </CharString>
          <CharString index="180">
            rlineto
            -4 -14 0 -2 -5 vvcurveto
            -18 14 -10 15 32 5 20 55 13 vhcurveto
            22 86 32 130 return
          </CharString>
          <CharString index="181">
            39 43 3 40 return
          </CharString>
          <CharString index="182">
            -22 -22 -18 -22 -6 hvcurveto
            -22 -5 13 -18 22 hhcurveto
            return
          </CharString>
          <CharString index="183">
            hhcurveto
            -9 137 callsubr
            -10 8 -3 7 hvcurveto
            return
          </CharString>
          <CharString index="184">
            115 72 115 vstem
            return
          </CharString>
          <CharString index="185">
            0 18 13 -11 0 -16 return
          </CharString>
          <CharString index="186">
            111 callgsubr
            -3 hvcurveto
            -15 -3 -4 -35 -5 vvcurveto
            -3 vlineto
            -10 6 -3 11 vhcurveto
            return
          </CharString>
          <CharString index="187">
            7 callgsubr
            66 35 callgsubr
            return
          </CharString>
          <CharString index="188">
            787 -41 -21 40 25 677 25 40 -20 return
          </CharString>
          <CharString index="189">
            630 0 34 618 31 return
          </CharString>
          <CharString index="190">
            107 callsubr
            24 return
          </CharString>
          <CharString index="191">
            0 -2 -4 -15 vhcurveto
            return
          </CharString>
          <CharString index="192">
            84 vstem
            482 101 rmoveto
            13 -4 -9 6 -6 hhcurveto
            -5 -2 -2 -9 -7 hvcurveto
            return
          </CharString>
          <CharString index="193">
            -29 -6 -1 hvcurveto
            -11 -3 0 -25 33 hhcurveto
            17 26 6 6 23 hvcurveto
            32 8 return
          </CharString>
          <CharString index="194">
            107 callgsubr
            403 return
          </CharString>
          <CharString index="195">
            413 -21 194 108 hstem
            return
          </CharString>
          <CharString index="196">
            -45 callgsubr
            210 43 hstemhm
            return
          </CharString>
          <CharString index="197">
            29 callsubr
            92 31 return
          </CharString>
          <CharString index="198">
            vvcurveto
            11 -12 0 return
          </CharString>
          <CharString index="199">
            3 3 3 3 1 4 rlinecurve
            9 2 -5 6 -9 hhcurveto
            -4 -4 -1 -3 return
          </CharString>
          <CharString index="200">
            -3 -4 -1 -4 rlinecurve
            -8 -2 5 -7 9 hhcurveto
            4 4 2 3 3 hvcurveto
            return
          </CharString>
          <CharString index="201">
            763 0 104 callgsubr
            return
          </CharString>
          <CharString index="202">
            392 60 14 65 return
          </CharString>
          <CharString index="203">
            74 127 callgsubr
            158 83 return
          </CharString>
          <CharString index="204">
            hlineto
            5 5 3 5 3 hvcurveto
            5 11 rlineto
            6 3 -5 5 -6 hhcurveto
            return
          </CharString>
          <CharString index="205">
            hlineto
            -5 -5 -4 -4 -2 hvcurveto
            -5 -8 rlineto
            -7 -3 3 -7 8 hhcurveto
            return
          </CharString>
          <CharString index="206">
            hlineto
            20 6 26 18 hvcurveto
            -51 -202 rmoveto
            11 -6 4 -17 vhcurveto
            return
          </CharString>
          <CharString index="207">
            539 -22 25 65 92 492 31 return
          </CharString>
          <CharString index="208">
            vvcurveto
            -20 16 -12 18 24 25 20 33 return
          </CharString>
          <CharString index="209">
            87 callsubr
            25 return
          </CharString>
          <CharString index="210">
            1025 137 callgsubr
            return
          </CharString>
          <CharString index="211">
            hstemhm
            111 73 212 84 return
          </CharString>
          <CharString index="212">
            31 62 25 204 25 hstemhm
            return
          </CharString>
          <CharString index="213">
            84 139 callgsubr
            return
          </CharString>
          <CharString index="214">
            551 -11 -20 callsubr
            return
          </CharString>
          <CharString index="215">
            155 58 131 59 return
          </CharString>
          <CharString index="216">
            vvcurveto
            12 -10 0 -7 return
          </CharString>
          <CharString index="217">
            115 callsubr
            hstemhm
            return
          </CharString>
          <CharString index="218">
            340 60 14 65 return
          </CharString>
          <CharString index="219">
            -21 192 -20 return
          </CharString>
          <CharString index="220">
            -3 28 -8 rrcurveto
            -6 19 24 -6 17 hhcurveto
            36 10 29 6 return
          </CharString>
          <CharString index="221">
            55 194 33 20 56 193 33 33 56 193 33 return
          </CharString>
          <CharString index="222">
            -21 160 -20 return
          </CharString>
          <CharString index="223">
            -21 71 -51 -21 60 27 184 25 173 25 hstemhm
            return
          </CharString>
          <CharString index="224">
            hlineto
            10 9 8 9 2 hvcurveto
            9 2 -5 8 -10 hhcurveto
            return
          </CharString>
          <CharString index="225">
            -52 3 hvcurveto
            4 -97 -76 -45 -68 -33 rrcurveto
            -121 -59 return
          </CharString>
          <CharString index="226">
            -56 25 353 25 0 25 246 24 83 25 hstemhm
            return
          </CharString>
          <CharString index="227">
            -35 callgsubr
            hstemhm
            return
          </CharString>
          <CharString index="228">
            113 callgsubr
            hstemhm
            return
          </CharString>
          <CharString index="229" raw="1">
            6b698e6c 1b0b  
          </CharString>
          <CharString index="230">
            18 rmoveto
            13 -11 0 return
          </CharString>
          <CharString index="231">
            hstemhm
            206 75 return
          </CharString>
          <CharString index="232">
            32 112 32 return
          </CharString>
          <CharString index="233">
            -173 -21 179 31 20 31 599 -20 hstem
            return
          </CharString>
          <CharString index="234">
            82 callgsubr
            hstemhm
            return
          </CharString>
          <CharString index="235">
            -172 -21 179 31 3 31 402 -20 hstem
            return
          </CharString>
          <CharString index="236">
            21 -21 483 -20 hstem
            return
          </CharString>
          <CharString index="237">
            -19 vvcurveto
            -20 15 -12 19 return
          </CharString>
          <CharString index="238">
            67 271 rlineto
            return
          </CharString>
          <CharString index="239">
            144 callgsubr
            52 return
          </CharString>
          <CharString index="240">
            -22 71 5 25 257 25 280 25 hstemhm
            return
          </CharString>
          <CharString index="241">
            11 -8 11 -12 vhcurveto
            0 -4 0 -2 -1 vhcurveto
            return
          </CharString>
          <CharString index="242">
            8 0 11 8 -6 0 -10 return
          </CharString>
          <CharString index="243">
            577 -49 callgsubr
            return
          </CharString>
          <CharString index="244">
            hlineto
            -17 -11 0 -18 return
          </CharString>
          <CharString index="245">
            0 -2 -4 -14 vhcurveto
            return
          </CharString>
          <CharString index="246">
            13 -12 0 -4 return
          </CharString>
          <CharString index="247">
            rmoveto
            6 -4 7 return
          </CharString>
          <CharString index="248">
            -11 -69 rlineto
            -3 vlineto
            -7 3 -8 9 vhcurveto
            return
          </CharString>
          <CharString index="249">
            763 29 callsubr
            70 31 643 return
          </CharString>
          <CharString index="250">
            -194 31 152 -45 callgsubr
            hstem
            return
          </CharString>
          <CharString index="251">
            hlineto
            -16 -11 0 -13 -12 12 0 15 hvcurveto
            return
          </CharString>
          <CharString index="252">
            25 386 31 return
          </CharString>
          <CharString index="253">
            hstemhm
            151 87 return
          </CharString>
        <CharString name=".notdef">
          280 endchar
        </CharString>
        <CharString name="A">
          -28 callgsubr
          hstem
          -105 callgsubr
          endchar
        </CharString>
        <CharString name="AE">
          95 callgsubr
          hstem
          -76 callsubr
          endchar
        </CharString>
        <CharString name="AE.dup">
          95 callgsubr
          hstem
          -76 callsubr
          endchar
        </CharString>
        <CharString name="AEacute">
          95 callgsubr
          84 110 callsubr
          hintmask 11100000
          -76 callsubr
          hintmask 00011000
          239 257 -103 callgsubr
        </CharString>
        <CharString name="Aacute">
          128 callgsubr
          160 -23 callgsubr
          hintmask 00011000
          233 278 -103 callgsubr
        </CharString>
        <CharString name="Abreve">
          -28 callgsubr
          50 39 134 -23 callgsubr
          hintmask 00011000
          22 callgsubr
          endchar
        </CharString>
        <CharString name="Abreveacute">
          -28 callgsubr
          50 39 314 -23 callgsubr
          hintmask 00011000
          22 callgsubr
          2 158 -103 callgsubr
        </CharString>
        <CharString name="Abrevedotbelow">
          64 callgsubr
          50 121 callsubr
          hintmask 01111100
          -105 callgsubr
          22 callgsubr
          hintmask 10000000
          -351 -1042 -93 callsubr
        </CharString>
        <CharString name="Abrevegrave">
          -28 callgsubr
          50 39 134 -23 callgsubr
          hintmask 00011000
          22 callgsubr
          -25 53 rmoveto
          -2 -7 -13 -12 -9 -1 rrcurveto
          -5 -1 -8 4 0 vvcurveto
          -135 91 -9 6 -9 9 5 16 rlinecurve
          20 7 20 15 21 hhcurveto
          11 5 -5 -7 6 hvcurveto
          108 -114 8 -8 1 -1 -2 -5 rlinecurve
          endchar
        </CharString>
        <CharString name="Abrevehookabove">
          -28 callgsubr
          50 39 342 -23 callgsubr
          hintmask 00011000
          22 callgsubr
          -13 152 -107 callsubr
        </CharString>
        <CharString name="Abrevetilde">
          -28 callgsubr
          50 39 174 38 28 38 hstemhm
          hintmask 11100000
          -105 callgsubr
          hintmask 00011100
          22 callgsubr
          49 144 -106 callsubr
        </CharString>
        <CharString name="Acaron">
          -28 callgsubr
          hstemhm
          -105 callgsubr
          219 243 -73 callgsubr
        </CharString>
        <CharString name="Acircumflex">
          -28 callgsubr
          hstemhm
          -105 callgsubr
          199 162 -102 callsubr
          endchar
        </CharString>
        <CharString name="Acircumflexacute">
          -28 callgsubr
          339 -20 -24 callgsubr
          199 162 -102 callsubr
          30 245 -103 callgsubr
        </CharString>
        <CharString name="Acircumflexdotbelow">
          64 callgsubr
          hstemhm
          hintmask 01110000
          -105 callgsubr
          199 162 -102 callsubr
          hintmask 10000000
          -306 -891 -93 callsubr
        </CharString>
        <CharString name="Acircumflexgrave">
          -28 callgsubr
          hstemhm
          -105 callgsubr
          199 162 -75 callsubr
        </CharString>
        <CharString name="Acircumflexhookabove">
          -28 callgsubr
          367 -20 -24 callgsubr
          199 162 -102 callsubr
          108 239 -107 callsubr
        </CharString>
        <CharString name="Acircumflextilde">
          -28 callgsubr
          199 38 28 38 hstemhm
          hintmask 11100000
          -105 callgsubr
          hintmask 00011000
          199 162 -102 callsubr
          78 231 -106 callsubr
        </CharString>
        <CharString name="Adblgrave">
          128 callgsubr
          191 -23 callgsubr
          hintmask 00011000
          160 169 -100 callsubr
        </CharString>
        <CharString name="Adieresis">
          -28 callgsubr
          40 98 -24 callgsubr
          14 201 -72 callgsubr
        </CharString>
        <CharString name="Adotbelow">
          64 callgsubr
          hstemhm
          hintmask 01110000
          -105 callgsubr
          hintmask 10000000
          -107 -729 -93 callsubr
        </CharString>
        <CharString name="Agrave">
          128 callgsubr
          160 -23 callgsubr
          hintmask 00011000
          136 173 -77 callsubr
        </CharString>
        <CharString name="Ahookabove">
          -28 callgsubr
          83 -21 208 -23 callgsubr
          hintmask 00011000
          192 304 -107 callsubr
        </CharString>
        <CharString name="Alpha">
          -28 callgsubr
          hstem
          -105 callgsubr
          endchar
        </CharString>
        <CharString name="Amacron">
          -28 callgsubr
          60 34 -24 callgsubr
          238 184 -79 callgsubr
        </CharString>
        <CharString name="Aogonek">
          763 -211 47 164 62 callsubr
          hstem
          61 204 vstem
          -38 callsubr
          endchar
        </CharString>
        <CharString name="Aogonekacute">
          763 -211 47 164 62 callsubr
          504 110 callsubr
          61 204 hintmask 11100100
          -38 callsubr
          hintmask 00011000
          233 278 -103 callgsubr
        </CharString>
        <CharString name="Aring">
          763 0 7 callsubr
          125 callsubr
          hstemhm
          485 40 117 40 hintmask 11101000
          -105 callgsubr
          hintmask 00111100
          135 233 -45 callsubr
          endchar
        </CharString>
        <CharString name="Aringacute">
          763 0 7 callsubr
          125 callsubr
          180 -20 hstemhm
          485 40 117 40 hintmask 11100100
          -105 callgsubr
          hintmask 00111110
          135 233 -45 callsubr
          65 213 -103 callgsubr
        </CharString>
        <CharString name="Atilde">
          -28 callgsubr
          40 38 28 38 hstemhm
          hintmask 11100000
          -105 callgsubr
          hintmask 00011000
          238 234 -106 callsubr
        </CharString>
        <CharString name="B">
          -31 callgsubr
        </CharString>
        <CharString name="Beta">
          -31 callgsubr
        </CharString>
        <CharString name="C">
          71 callsubr
          hstem
          151 87 vstem
          -69 callgsubr
          endchar
        </CharString>
        <CharString name="Cacute">
          71 callsubr
          62 110 callsubr
          151 87 hintmask 11001000
          -69 callgsubr
          hintmask 00110000
          -3 433 -103 callgsubr
        </CharString>
        <CharString name="Ccaron">
          71 callsubr
          146 callsubr
          vstemhm
          -69 callgsubr
          -17 398 -73 callgsubr
        </CharString>
        <CharString name="Ccedilla">
          71 callsubr
          hstem
          151 87 146 68 vstem
          827 680 rmoveto
          1 4 1 5 5 91 callsubr
          -6 vhcurveto
          -75 -87 rlineto
          71 -43 -63 16 -51 hhcurveto
          -211 -217 -225 -233 -130 71 -98 108 -31 hvcurveto
          -4 -18 -6 -27 -3 -48 callsubr
          34 -28 16 -35 6 hvcurveto
          8 31 rlineto
          7 hlineto
          94 100 53 100 69 hvcurveto
          33 47 16 54 7 109 callsubr
          -7 -7 0 -8 -3 vhcurveto
          -188 -58 -140 -46 -69 hhcurveto
          -85 -92 56 146 66 27 160 85 107 hvcurveto
          89 71 91 41 74 hhcurveto
          100 48 -82 -105 hvcurveto
          -34 -4 -16 -6 vvcurveto
          -12 11 0 6 14 1 4 15 4 vhcurveto
          endchar
        </CharString>
        <CharString name="Ccircumflex">
          71 callsubr
          146 callsubr
          vstemhm
          -69 callgsubr
          -37 317 -102 callsubr
          endchar
        </CharString>
        <CharString name="Cdotaccent">
          71 callsubr
          53 108 146 callsubr
          hintmask 11010000
          -69 callgsubr
          hintmask 00100000
          -105 384 -93 callsubr
        </CharString>
        <CharString name="Chi">
          -46 callgsubr
        </CharString>
        <CharString name="D">
          775 0 31 621 31 hstem
          711 82 vstem
          -62 callsubr
          endchar
        </CharString>
        <CharString name="Dcaron">
          775 21 callgsubr
          hstemhm
          711 82 vstemhm
          -62 callsubr
          -38 364 -73 callgsubr
        </CharString>
        <CharString name="Dcroat">
          -36 callsubr
        </CharString>
        <CharString name="Ddotbelow">
          775 50 callgsubr
          711 82 hintmask 01110000
          -62 callsubr
          hintmask 10000000
          -364 -608 -93 callsubr
        </CharString>
        <CharString name="Delta">
          840 0 69 647 -20 hstem
          771 12 rmoveto
          -4 16 -145 665 rlineto
          18 -4 -1 5 -19 hhcurveto
          -18 -5 -7 -11 -8 hvcurveto
          -486 -677 rlineto
          -8 -10 0 -4 0 vvcurveto
          -7 6 0 15 vhcurveto
          651 hlineto
          16 10 0 12 hvcurveto
          -101 57 rmoveto
          -518 hlineto
          398 553 rlineto
          endchar
        </CharString>
        <CharString name="Dlinebelow">
          775 -163 34 129 35 callgsubr
          hstemhm
          711 82 hintmask 01110000
          -62 callsubr
          hintmask 10000000
          -248 -614 -79 callgsubr
        </CharString>
        <CharString name="E">
          -19 callsubr
          hstem
          -106 callgsubr
          endchar
        </CharString>
        <CharString name="Eacute">
          -19 callsubr
          87 -21 160 -44 callgsubr
          hintmask 00001100
          3 626 -103 callgsubr
        </CharString>
        <CharString name="Ebreve">
          -19 callsubr
          66 39 134 -44 callgsubr
          hintmask 00001100
          14 661 -86 callgsubr
        </CharString>
        <CharString name="Ecaron">
          -19 callsubr
          hstemhm
          -106 callgsubr
          -11 591 -73 callgsubr
        </CharString>
        <CharString name="Ecircumflex">
          -19 callsubr
          hstemhm
          -106 callgsubr
          -31 510 -102 callsubr
          endchar
        </CharString>
        <CharString name="Ecircumflexacute">
          -19 callsubr
          355 -20 -71 callsubr
          -31 510 -102 callsubr
          30 245 -103 callgsubr
        </CharString>
        <CharString name="Ecircumflexdotbelow">
          696 -200 108 92 -20 callgsubr
          hstemhm
          hintmask 01111000
          -106 callgsubr
          -31 510 -102 callsubr
          hintmask 10000000
          -306 -891 -93 callsubr
        </CharString>
        <CharString name="Ecircumflexgrave">
          -19 callsubr
          hstemhm
          -106 callgsubr
          -31 510 -75 callsubr
        </CharString>
        <CharString name="Ecircumflexhookabove">
          -19 callsubr
          383 -20 -71 callsubr
          -31 510 -102 callsubr
          108 239 -107 callsubr
        </CharString>
        <CharString name="Ecircumflextilde">
          -19 callsubr
          215 38 28 38 hstemhm
          hintmask 11110000
          -106 callgsubr
          hintmask 00001100
          -31 510 -102 callsubr
          78 231 -106 callsubr
        </CharString>
        <CharString name="Edblgrave">
          -19 callsubr
          87 -21 191 -44 callgsubr
          hintmask 00001100
          -44 517 -100 callsubr
        </CharString>
        <CharString name="Edieresis">
          -19 callsubr
          56 98 -71 callsubr
          -216 549 -72 callgsubr
        </CharString>
        <CharString name="Edotaccent">
          -19 callsubr
          78 108 -71 callsubr
          -99 577 -93 callsubr
        </CharString>
        <CharString name="Edotbelow">
          696 -200 108 92 -20 callgsubr
          hstemhm
          hintmask 01111000
          -106 callgsubr
          hintmask 10000000
          -337 -381 -93 callsubr
        </CharString>
        <CharString name="Egrave">
          -19 callsubr
          87 -21 160 -44 callgsubr
          hintmask 00001100
          -94 521 -77 callsubr
        </CharString>
        <CharString name="Ehookabove">
          -19 callsubr
          99 -21 208 -44 callgsubr
          hintmask 00001100
          -39 652 -107 callsubr
        </CharString>
        <CharString name="Emacron">
          -19 callsubr
          76 34 -71 callsubr
          8 532 -79 callgsubr
        </CharString>
        <CharString name="Eng">
          763 814 342 rmoveto
          191 48 -84 172 -182 hhcurveto
          -73 -73 -34 -54 -57 hvcurveto
          16 66 rlineto
          -2 -14 -13 -1 -14 -41 -42 3 -40 hhcurveto
          -5 -14 -37 callsubr
          35 28 0 -17 0 0 -7 -4 -15 hvcurveto
          -135 -540 rlineto
          -33 -8 -7 -9 -66 hhcurveto
          -22 -10 0 -18 -3 1 -10 13 hvcurveto
          74 callsubr
          -13 callsubr
          13 -11 0 -16 -62 0 7 11 79 callgsubr
          hvcurveto
          122 489 rlineto
          67 51 79 46 79 hhcurveto
          146 31 -165 -164 -42 hvcurveto
          -33 -135 -39 -154 -97 -34 rrcurveto
          22 5 -13 17 -22 hhcurveto
          75 callsubr
          157 110 185 179 44 hvcurveto
          endchar
        </CharString>
        <CharString name="Eogonek">
          696 -211 47 164 -20 callgsubr
          hstem
          -107 callgsubr
          363 hlineto
          -58 -33 -40 -36 37 callgsubr
          -55 callgsubr
          9 40 46 31 40 24 rrcurveto
          85 -63 callsubr
          endchar
        </CharString>
        <CharString name="Eogonekacute">
          696 -211 47 164 -20 callgsubr
          87 110 callsubr
          hintmask 11111000
          -107 callgsubr
          363 hlineto
          -58 -33 -40 -36 37 callgsubr
          -55 callgsubr
          9 40 46 31 40 24 rrcurveto
          85 -63 callsubr
          hintmask 00000110
          3 626 -103 callgsubr
        </CharString>
        <CharString name="Epsilon">
          -19 callsubr
          hstem
          -106 callgsubr
          endchar
        </CharString>
        <CharString name="Ereversed">
          -19 callsubr
          hstem
          645 13 rmoveto
          18 9 -11 0 -16 hhcurveto
          -67 -2 7 35 8 hvcurveto
          135 538 4 15 1 2 2 4 rlinecurve
          11 5 3 6 58 hhcurveto
          16 10 0 13 7 hvcurveto
          18 9 -12 0 -16 hhcurveto
          -474 hlineto
          -16 -11 0 -14 -7 hvcurveto
          -71 -188 rlineto
          -17 -7 -2 -6 15 hhcurveto
          6 11 0 15 8 hvcurveto
          2 4 4 13 1 4 rrcurveto
          10 26 14 28 0 vvcurveto
          67 34 33 37 120 hhcurveto
          132 hlineto
          32 8 0 -34 -9 hvcurveto
          -62 -246 rlineto
          -86 hlineto
          -80 -11 20 75 19 hvcurveto
          18 4 1 4 -14 hhcurveto
          -4 -13 0 -13 -7 hvcurveto
          -1 -3 -1 -1 -3 -14 -54 -214 rcurveline
          -19 -4 4 -1 10 hhcurveto
          4 12 0 13 7 hvcurveto
          1 3 2 8 2 7 6 24 6 13 4 7 rrcurveto
          26 13 15 16 69 hhcurveto
          92 hlineto
          -69 -275 -3 -14 -2 -5 -5 -10 rlinecurve
          -3 -12 -2 0 -17 hhcurveto
          -131 hlineto
          -156 -9 60 137 11 hvcurveto
          1 24 1 2 -2 1 rrcurveto
          3 -2 -3 0 -5 hhcurveto
          -4 -13 0 -13 -7 hvcurveto
          0 -1 -3 -1 -13 vhcurveto
          -18 -211 rlineto
          -18 -2 2 0 22 hhcurveto
          487 hlineto
          16 11 0 13 6 hvcurveto
          endchar
        </CharString>
        <CharString name="Eta">
          94 callsubr
          hstem
          -98 callgsubr
          endchar
        </CharString>
        <CharString name="Eth">
          -36 callsubr
        </CharString>
        <CharString name="Etilde">
          -19 callsubr
          56 38 28 38 hstemhm
          hintmask 11110000
          -106 callgsubr
          hintmask 00001100
          8 582 -106 callsubr
        </CharString>
        <CharString name="Euro">
          591 -22 30 263 30 82 30 262 30 hstem
          535 -11 rmoveto
          142 callgsubr
          -12 hlineto
          -5 -6 -4 -6 -2 hvcurveto
          -71 -25 -64 -64 -68 hhcurveto
          -59 -38 42 52 -17 hvcurveto
          -16 52 2 58 11 59 rrcurveto
          242 97 callsubr
          -246 hlineto
          9 41 11 41 rlineto
          274 97 callsubr
          -275 hlineto
          19 59 26 57 43 52 rrcurveto
          52 42 59 42 60 hhcurveto
          68 32 -63 -72 -11 hvcurveto
          -6 -1 4 -4 6 hhcurveto
          12 hlineto
          6 6 5 6 1 hvcurveto
          142 callgsubr
          -3 hlineto
          -4 -3 -1 -3 -3 hvcurveto
          -43 -40 rlineto
          27 -22 -33 17 -42 hhcurveto
          -77 -80 -45 -62 -62 hvcurveto
          -53 -55 -40 -64 -26 -66 rrcurveto
          -45 98 callsubr
          43 hlineto
          -4 -14 -4 -14 -4 -13 -3 -14 -3 -14 -2 -13 rrcurveto
          -42 98 callsubr
          47 hlineto
          -8 -67 8 -64 26 -54 rrcurveto
          -63 31 57 -45 77 hhcurveto
          42 42 17 28 36 hvcurveto
          22 -41 rlineto
          -2 2 2 -2 4 hhcurveto
          4 hlineto
          6 6 5 6 1 hvcurveto
          endchar
        </CharString>
        <CharString name="F">
          670 0 31 294 31 293 31 hstem
          722 478 rmoveto
          23 188 rlineto
          14 -11 0 -16 vhcurveto
          -461 hlineto
          -16 -12 -37 callsubr
          58 0 -6 -11 -4 0 -2 -4 -15 hvcurveto
          -134 -538 -33 callgsubr
          74 callsubr
          45 47 -3 44 14 callsubr
          5 0 2 4 15 hvcurveto
          63 251 rlineto
          89 hlineto
          69 5 -16 -26 -14 -4 -19 -3 -14 72 callgsubr
          -8 10 callgsubr
          -73 -18 -24 -19 -75 hhcurveto
          -83 hlineto
          64 259 rlineto
          34 8 8 0 32 hhcurveto
          124 hlineto
          120 10 -41 -62 -6 0 -25 -5 -33 hvcurveto
          -1 -12 rlineto
          -15 66 callgsubr
          1 6 17 2 vhcurveto
          endchar
        </CharString>
        <CharString name="G">
          39 callsubr
          hstem
          151 87 vstem
          -97 callgsubr
          endchar
        </CharString>
        <CharString name="Gacute">
          39 callsubr
          62 110 callsubr
          151 87 hintmask 11100100
          -97 callgsubr
          hintmask 00011000
          -30 610 -103 callgsubr
        </CharString>
        <CharString name="Gamma">
          644 0 31 618 31 hstem
          696 478 rmoveto
          23 188 rlineto
          14 -11 0 -16 vhcurveto
          -435 hlineto
          -16 -12 -37 callsubr
          58 0 -6 -11 -4 0 -2 -4 -15 hvcurveto
          -134 -538 -33 callgsubr
          74 callsubr
          45 47 -3 44 14 callsubr
          5 0 2 4 15 hvcurveto
          135 541 rlineto
          34 8 8 0 32 hhcurveto
          104 hlineto
          108 17 -34 -64 -23 -2 -23 -4 -23 hvcurveto
          -1 -12 rlineto
          -15 66 callgsubr
          1 6 17 2 vhcurveto
          endchar
        </CharString>
        <CharString name="Gbreve">
          39 callsubr
          41 121 callsubr
          151 87 hintmask 11100100
          -97 callgsubr
          hintmask 00011000
          -19 645 -86 callgsubr
        </CharString>
        <CharString name="Gcaron">
          39 callsubr
          146 callsubr
          vstemhm
          -97 callgsubr
          -44 575 -73 callgsubr
        </CharString>
        <CharString name="Gcedilla">
          794 7 callgsubr
          44 43 callsubr
          hstem
          151 87 vstem
          -97 callgsubr
          -376 -373 rmoveto
          -95 callgsubr
        </CharString>
        <CharString name="Gcircumflex">
          39 callsubr
          146 callsubr
          vstemhm
          -97 callgsubr
          -64 494 -102 callsubr
          endchar
        </CharString>
        <CharString name="Gcommaaccent">
          794 7 callgsubr
          44 43 callsubr
          146 callsubr
          hintmask 00111100
          -97 callgsubr
          hintmask 11000000
          -376 -373 rmoveto
          -95 callgsubr
        </CharString>
        <CharString name="Gdotaccent">
          39 callsubr
          53 108 146 callsubr
          hintmask 11101000
          -97 callgsubr
          hintmask 00010000
          -132 561 -93 callsubr
        </CharString>
        <CharString name="H">
          94 callsubr
          hstem
          -98 callgsubr
          endchar
        </CharString>
        <CharString name="H_uni0303">
          94 callsubr
          53 38 28 38 hstemhm
          hintmask 11100000
          -98 callgsubr
          hintmask 00011000
          42 809 -106 callsubr
        </CharString>
        <CharString name="Hbar">
          763 0 31 309 31 127 30 124 31 hstem
          703 -25 callsubr
          107 426 rlineto
          78 hlineto
          8 8 6 9 31 callsubr
          -78 hlineto
          20 80 -52 callgsubr
          -22 -87 rlineto
          -287 hlineto
          21 83 85 callgsubr
          8 -83 callsubr
          -22 -87 rlineto
          -77 hlineto
          -9 -8 124 callgsubr
          -9 -2 5 -6 9 hhcurveto
          77 hlineto
          -106 -425 -48 callgsubr
          13 -10 0 -16 -58 0 6 11 4 24 callgsubr
          131 callsubr
          287 hlineto
          -66 -267 -48 callgsubr
          hvcurveto
          -54 480 rmoveto
          -32 -127 rlineto
          -287 hlineto
          32 127 rlineto
          endchar
        </CharString>
        <CharString name="Hbrevebelow">
          763 -232 113 callgsubr
          79 104 callgsubr
          hstemhm
          hintmask 00111000
          -98 callgsubr
          hintmask 11000000
          -196 -90 -86 callgsubr
        </CharString>
        <CharString name="Hcircumflex">
          94 callsubr
          hstemhm
          -98 callgsubr
          3 737 -102 callsubr
          endchar
        </CharString>
        <CharString name="Hdieresis">
          94 callsubr
          53 98 hstemhm
          hintmask 11100000
          -98 callgsubr
          hintmask 00010000
          -182 776 -72 callgsubr
        </CharString>
        <CharString name="Hdotbelow">
          88 callgsubr
          309 31 281 31 hstemhm
          hintmask 01110000
          -98 callgsubr
          hintmask 10000000
          -303 -154 -93 callsubr
        </CharString>
        <CharString name="I">
          32 callgsubr
          hstem
          -101 callsubr
          endchar
        </CharString>
        <CharString name="I_J">
          895 -22 25 -3 31 37 92 492 31 hstemhm
          459 97 hintmask 01010000
          341 123 callsubr
          -16 -62 0 7 11 51 callgsubr
          135 541 rlineto
          32 8 4 10 72 hhcurveto
          19 10 0 18 9 -7 4 -8 hvcurveto
          -39 -42 -3 -40 -41 -42 3 -40 hhcurveto
          -5 -14 -37 callsubr
          35 28 0 -17 0 0 -7 -4 -15 hvcurveto
          -135 -540 rlineto
          -33 -8 -7 -9 -66 hhcurveto
          -22 -10 0 -18 -3 1 -10 13 hvcurveto
          hintmask 10000000
          74 callsubr
          hhcurveto
          hintmask 01010000
          -13 callsubr
          hvcurveto
          646 652 rmoveto
          8 -6 5 -8 vhcurveto
          -33 -37 -3 -34 -44 -46 3 -43 hhcurveto
          -7 -13 0 -18 -18 callsubr
          10 hlineto
          18 8 0 -2 20 hvcurveto
          26 -3 3 -3 -13 vvcurveto
          -4 138 callsubr
          -116 -466 rlineto
          hintmask 10111000
          -72 -18 -57 -70 -56 hhcurveto
          -31 -42 15 50 -10 hvcurveto
          59 3 52 3 25 -20 12 -19 -8 -50 -3 -71 -64 51 -44 69 92 91 74 87 22 hvcurveto
          118 473 85 callgsubr
          7 46 hhcurveto
          14 11 0 18 hvcurveto
          endchar
        </CharString>
        <CharString name="Iacute">
          32 callgsubr
          84 110 callsubr
          hintmask 11000000
          -101 callsubr
          hintmask 00110000
          216 853 -103 callgsubr
        </CharString>
        <CharString name="Ibreve">
          32 callgsubr
          63 121 callsubr
          hintmask 11000000
          -101 callsubr
          hintmask 00110000
          227 888 -86 callgsubr
        </CharString>
        <CharString name="Icaron">
          32 callgsubr
          hstemhm
          -101 callsubr
          202 818 -73 callgsubr
        </CharString>
        <CharString name="Icircumflex">
          32 callgsubr
          hstemhm
          -101 callsubr
          182 737 -102 callsubr
          endchar
        </CharString>
        <CharString name="Idblgrave">
          32 callgsubr
          106 callsubr
          hintmask 11000000
          -101 callsubr
          hintmask 00110000
          169 744 -100 callsubr
        </CharString>
        <CharString name="Idieresis">
          32 callgsubr
          53 98 hstemhm
          hintmask 11000000
          -101 callsubr
          hintmask 00100000
          -3 776 -72 callgsubr
        </CharString>
        <CharString name="Idieresisacute">
          32 callgsubr
          53 98 108 callgsubr
          hintmask 11000000
          -101 callsubr
          hintmask 00111000
          -3 776 -87 callsubr
          44 227 -103 callgsubr
        </CharString>
        <CharString name="Idotaccent">
          32 callgsubr
          75 108 hstemhm
          hintmask 11000000
          -101 callsubr
          hintmask 00100000
          114 804 -93 callsubr
        </CharString>
        <CharString name="Idotbelow">
          396 37 callsubr
          -101 callsubr
          hintmask 10000000
          -125 -154 -93 callsubr
        </CharString>
        <CharString name="Igrave">
          32 callgsubr
          84 110 callsubr
          hintmask 11000000
          -101 callsubr
          hintmask 00110000
          119 748 -77 callsubr
        </CharString>
        <CharString name="Ihookabove">
          32 callgsubr
          96 110 callgsubr
          hintmask 11000000
          -101 callsubr
          hintmask 00110000
          174 879 -107 callsubr
        </CharString>
        <CharString name="Imacron">
          32 callgsubr
          73 34 hstemhm
          hintmask 11000000
          -101 callsubr
          hintmask 00100000
          221 759 -79 callgsubr
        </CharString>
        <CharString name="Imacron.alt">
          32 callgsubr
          73 34 hstemhm
          hintmask 11000000
          -101 callsubr
          hintmask 00100000
          146 759 54 callgsubr
        </CharString>
        <CharString name="Iogonek">
          396 -211 47 164 35 callgsubr
          hstem
          -27 callgsubr
          endchar
        </CharString>
        <CharString name="Iogonekacute">
          396 -211 47 164 35 callgsubr
          84 110 callsubr
          hintmask 11100000
          -27 callgsubr
          hintmask 00011000
          248 986 -103 callgsubr
        </CharString>
        <CharString name="Iota">
          32 callgsubr
          hstem
          -101 callsubr
          endchar
        </CharString>
        <CharString name="Itilde">
          32 callgsubr
          53 38 28 38 hstemhm
          hintmask 11000000
          -101 callsubr
          hintmask 00110000
          221 809 -106 callsubr
        </CharString>
        <CharString name="J">
          100 callsubr
          hstem
          103 97 vstem
          -53 callgsubr
          endchar
        </CharString>
        <CharString name="J_uni030C.cap">
          538.89655 -22 25 65 92 318 -21 145 81 -31 31 hstemhm
          103 97 hintmask 11001100
          -53 callgsubr
          112 -33 145 callgsubr
          hintmask 00110000
          -19 14 -13 20 16 6 5 4 6 vhcurveto
          -14 -63 -37 -43 -35 -29 -4 -4 -1 -1 -1 -2 -1 -3 rcurveline
          -5 1 4 -4 4 hhcurveto
          14 93 91 89 hvcurveto
          endchar
        </CharString>
        <CharString name="Jacute">
          100 callsubr
          84 110 callsubr
          103 97 hintmask 11100100
          -53 callgsubr
          hintmask 00011000
          57 201 -103 callgsubr
        </CharString>
        <CharString name="Jcircumflex">
          100 callsubr
          hstemhm
          103 97 vstemhm
          -53 callgsubr
          23 85 -102 callsubr
          endchar
        </CharString>
        <CharString name="K">
          789 21 callgsubr
          hstem
          -81 callgsubr
          endchar
        </CharString>
        <CharString name="Kappa">
          789 21 callgsubr
          hstem
          -81 callgsubr
          endchar
        </CharString>
        <CharString name="Kcedilla">
          789 80 callsubr
          hstem
          -81 callgsubr
          -320 -130 rmoveto
          -95 callgsubr
        </CharString>
        <CharString name="Kcommaaccent">
          789 63 callsubr
          -81 callgsubr
          hintmask 11000000
          -320 -130 rmoveto
          -95 callgsubr
        </CharString>
        <CharString name="L">
          644 21 callgsubr
          hstem
          -91 callgsubr
          endchar
        </CharString>
        <CharString name="L_uni0303">
          644 21 callgsubr
          53 38 28 38 hstemhm
          hintmask 11000000
          -91 callgsubr
          hintmask 00110000
          -73 582 -106 callsubr
        </CharString>
        <CharString name="Lacute">
          644 21 callgsubr
          84 110 callsubr
          hintmask 11000000
          -91 callgsubr
          hintmask 00110000
          -78 626 -103 callgsubr
        </CharString>
        <CharString name="Lambda">
          711 0 31 685 -20 hstem
          658 18 rmoveto
          13 -12 0 -11 -40 -6 6 24 -1 vhcurveto
          -35 629 rlineto
          20 -1 0 6 -18 hhcurveto
          -8 -11 0 -19 -10 hvcurveto
          -323 -583 -43 -77 -38 -4 -28 -2 rlinecurve
          -12 -1 -1 -14 -3 vvcurveto
          -8 6 -5 7 vhcurveto
          23 27 3 24 30 32 -3 28 hhcurveto
          4 14 0 18 12 -11 1 -3 hvcurveto
          -25 2 -18 9 23 vvcurveto
          4 0 11 14 25 vhcurveto
          264 474 28 -500 1 -21 2 -26 -70 -1 rlinecurve
          -11 -12 0 -18 16 callgsubr
          hvcurveto
          36 38 3 37 33 35 -3 31 hhcurveto
          4 15 0 18 hvcurveto
          endchar
        </CharString>
        <CharString name="Lcaron">
          644 0 31 447 -21 145 81 -31 31 hstemhm
          hintmask 10010000
          -91 callgsubr
          12 392 145 callgsubr
          hintmask 01100000
          -19 14 -13 20 16 6 5 4 6 vhcurveto
          -14 -63 -37 -43 -35 -29 -4 -4 -1 -1 -1 -2 -1 -3 rcurveline
          -5 1 4 -4 4 hhcurveto
          14 93 91 89 hvcurveto
          endchar
        </CharString>
        <CharString name="Lcedilla">
          644 80 callsubr
          hstem
          -91 callgsubr
          -304 -357 rmoveto
          -95 callgsubr
        </CharString>
        <CharString name="Lcommaaccent">
          644 63 callsubr
          -91 callgsubr
          hintmask 11000000
          -304 -357 rmoveto
          -95 callgsubr
        </CharString>
        <CharString name="Ldot">
          644 0 31 323 108 190 31 hstem
          -91 callgsubr
          36 173 -93 callsubr
        </CharString>
        <CharString name="Ldotbelow">
          644 37 callsubr
          -91 callgsubr
          hintmask 10000000
          -298 -381 -93 callsubr
        </CharString>
        <CharString name="Ldotbelowmacron">
          644 47 callgsubr
          73 34 hstemhm
          hintmask 11100000
          -91 callgsubr
          -298 -381 -94 callsubr
          hintmask 00010000
          231 913 -79 callgsubr
        </CharString>
        <CharString name="Lslash">
          644 21 callgsubr
          hstem
          229 293 vstem
          639 245 rmoveto
          13 -13 0 -4 -13 -1 -4 -16 -6 vhcurveto
          -91 -34 -42 -116 -160 hhcurveto
          -88 hlineto
          -17 -2 0 3 -10 hvcurveto
          10 0 5 4 14 vhcurveto
          80 317 166 131 -20 26 -134 -105 44 175 rlineto
          35 9 7 10 80 hhcurveto
          9 50 callsubr
          11 -10 2 -6 hvcurveto
          -44 -45 -3 -45 -41 -43 3 -40 hhcurveto
          -6 -13 -80 callsubr
          -1 -2 -3 -14 hvcurveto
          -66 -265 -102 -80 22 -25 67 54 -56 -226 53 callgsubr
          435 hlineto
          22 1 1 18 7 hvcurveto
          76 209 rlineto
          5 13 0 4 0 vvcurveto
          endchar
        </CharString>
        <CharString name="M">
          920 21 callgsubr
          hstem
          -67 callsubr
          endchar
        </CharString>
        <CharString name="Mdotbelow">
          920 37 callsubr
          -67 callsubr
          hintmask 10000000
          -376 -154 -93 callsubr
        </CharString>
        <CharString name="Mu">
          920 21 callgsubr
          hstem
          -67 callsubr
          endchar
        </CharString>
        <CharString name="N">
          89 callgsubr
          -99 callgsubr
          endchar
        </CharString>
        <CharString name="Nacute">
          27 callsubr
          84 110 callsubr
          hintmask 11000000
          -99 callgsubr
          hintmask 00110000
          -126 201 -103 callgsubr
        </CharString>
        <CharString name="Ncaron">
          27 callsubr
          hstemhm
          -99 callgsubr
          -140 166 -73 callgsubr
        </CharString>
        <CharString name="Ncedilla">
          763 80 callsubr
          hstem
          -99 callgsubr
          -472 -782 rmoveto
          -95 callgsubr
        </CharString>
        <CharString name="Ncommaaccent">
          763 63 callsubr
          -99 callgsubr
          hintmask 11000000
          -472 -782 rmoveto
          -95 callgsubr
        </CharString>
        <CharString name="Ndotaccent">
          27 callsubr
          53 108 hstemhm
          hintmask 11000000
          -99 callgsubr
          hintmask 00100000
          -233 130 -93 callsubr
        </CharString>
        <CharString name="Ndotbelow">
          763 37 callsubr
          -99 callgsubr
          hintmask 10000000
          -466 -806 -93 callsubr
        </CharString>
        <CharString name="Ntilde">
          27 callsubr
          53 38 28 38 hstemhm
          hintmask 11000000
          -99 callgsubr
          hintmask 00110000
          -121 157 -106 callsubr
        </CharString>
        <CharString name="Nu">
          89 callgsubr
          -99 callgsubr
          endchar
        </CharString>
        <CharString name="O">
          -14 callsubr
          hstem
          8 callgsubr
          vstem
          -96 callsubr
          endchar
        </CharString>
        <CharString name="OE">
          -51 callgsubr
        </CharString>
        <CharString name="OE.dup">
          -51 callgsubr
        </CharString>
        <CharString name="Oacute">
          -14 callsubr
          62 -21 160 -20 27 callgsubr
          hintmask 11001100
          -96 callsubr
          hintmask 00110000
          31 392 -103 callgsubr
        </CharString>
        <CharString name="Obreve">
          -14 callsubr
          41 39 134 -20 27 callgsubr
          hintmask 11001100
          -96 callsubr
          hintmask 00110000
          42 427 -86 callgsubr
        </CharString>
        <CharString name="Ocaron">
          -14 callsubr
          27 callgsubr
          vstemhm
          -96 callsubr
          17 357 -73 callgsubr
        </CharString>
        <CharString name="Ocircumflex">
          -14 callsubr
          27 callgsubr
          vstemhm
          -96 callsubr
          -3 276 -102 callsubr
          endchar
        </CharString>
        <CharString name="Ocircumflexacute">
          -14 callsubr
          330 -20 27 callgsubr
          hintmask 11011000
          -96 callsubr
          hintmask 00100000
          -3 276 -102 callsubr
          30 245 -103 callgsubr
        </CharString>
        <CharString name="Ocircumflexdotbelow">
          81 callgsubr
          27 callgsubr
          hintmask 01111000
          -96 callsubr
          -3 276 -102 callsubr
          hintmask 10000000
          -306 -891 -93 callsubr
        </CharString>
        <CharString name="Ocircumflexgrave">
          -14 callsubr
          27 callgsubr
          vstemhm
          -96 callsubr
          -3 276 -75 callsubr
        </CharString>
        <CharString name="Ocircumflexhookabove">
          -14 callsubr
          358 -20 27 callgsubr
          hintmask 11011000
          -96 callsubr
          hintmask 00100000
          -3 276 -102 callsubr
          108 239 -107 callsubr
        </CharString>
        <CharString name="Ocircumflextilde">
          -14 callsubr
          190 38 28 38 27 callgsubr
          hintmask 11001100
          -96 callsubr
          hintmask 00110000
          -3 276 -102 callsubr
          78 231 -106 callsubr
        </CharString>
        <CharString name="Odblgrave">
          -14 callsubr
          62 -21 191 -20 27 callgsubr
          hintmask 11001100
          -96 callsubr
          hintmask 00110000
          -16 283 -100 callsubr
        </CharString>
        <CharString name="Odieresis">
          -14 callsubr
          31 98 27 callgsubr
          hintmask 11011000
          -96 callsubr
          hintmask 00100000
          -188 315 -72 callgsubr
        </CharString>
        <CharString name="Odotbelow">
          81 callgsubr
          27 callgsubr
          hintmask 01111000
          -96 callsubr
          hintmask 10000000
          -309 -615 -93 callsubr
        </CharString>
        <CharString name="Ograve">
          -14 callsubr
          62 -21 160 -20 27 callgsubr
          hintmask 11001100
          -96 callsubr
          hintmask 00110000
          -66 287 -77 callsubr
        </CharString>
        <CharString name="Ohookabove">
          -14 callsubr
          74 -21 208 -20 27 callgsubr
          hintmask 11001100
          -96 callsubr
          hintmask 00110000
          -10 418 -107 callsubr
        </CharString>
        <CharString name="Ohorn">
          -14 callsubr
          86 -20 hstem
          150 90 480 84 vstem
          -88 callsubr
          endchar
        </CharString>
        <CharString name="Ohornacute">
          -14 callsubr
          62 -21 45 -20 135 -20 hstemhm
          150 90 480 84 hintmask 11010110
          -88 callsubr
          hintmask 00101000
          24 516 -103 callgsubr
        </CharString>
        <CharString name="Ohorndotbelow">
          81 callgsubr
          86 -20 hstemhm
          150 90 480 84 hintmask 01111100
          -88 callsubr
          hintmask 10000000
          -290 -491 -93 callsubr
        </CharString>
        <CharString name="Ohorngrave">
          -14 callsubr
          62 -21 45 -20 135 -20 hstemhm
          150 90 480 84 hintmask 11010110
          -88 callsubr
          hintmask 00101000
          -47 411 -77 callsubr
        </CharString>
        <CharString name="Ohornhookabove">
          -14 callsubr
          74 -21 33 -20 195 -20 hstemhm
          150 90 480 84 hintmask 11010110
          -88 callsubr
          hintmask 00101000
          9 542 -107 callsubr
        </CharString>
        <CharString name="Ohorntilde">
          -14 callsubr
          31 38 17 -20 31 38 hstemhm
          150 90 480 84 hintmask 11010110
          -88 callsubr
          hintmask 00101000
          55 472 -106 callsubr
        </CharString>
        <CharString name="Ohungarumlaut">
          -14 callsubr
          62 -21 191 -20 27 callgsubr
          hintmask 11001100
          -96 callsubr
          hintmask 00110000
          -100 429 -76 callgsubr
        </CharString>
        <CharString name="Omacron">
          -14 callsubr
          51 34 27 callgsubr
          hintmask 11011000
          -96 callsubr
          hintmask 00100000
          36 298 -79 callgsubr
        </CharString>
        <CharString name="Omega">
          -43 callgsubr
        </CharString>
        <CharString name="Omicron">
          -14 callsubr
          hstem
          8 callgsubr
          vstem
          -96 callsubr
          endchar
        </CharString>
        <CharString name="Oogonek">
          -14 callsubr
          hstem
          8 callgsubr
          vstem
          17 callsubr
          155 -96 109 -141 -207 -212 -232 -234 -144 83 -97 117 -17 vhcurveto
          -38 -29 -31 -35 -8 -38 rrcurveto
          -37 callgsubr
          -55 callgsubr
          4 20 12 17 15 15 8 8 9 7 8 6 rrcurveto
          6 hlineto
          206 212 227 236 hvcurveto
          -82 callsubr
          endchar
        </CharString>
        <CharString name="Oogonekacute">
          -14 callsubr
          62 -21 160 -20 27 callgsubr
          hintmask 11001100
          17 callsubr
          155 -96 109 -141 -207 -212 -232 -234 -144 83 -97 117 -17 vhcurveto
          -38 -29 -31 -35 -8 -38 rrcurveto
          -37 callgsubr
          -55 callgsubr
          4 20 12 17 15 15 8 8 9 7 8 6 rrcurveto
          6 hlineto
          206 212 227 236 hvcurveto
          -82 callsubr
          hintmask 00110000
          31 392 -103 callgsubr
        </CharString>
        <CharString name="Orogate">
          787 8 callgsubr
          vstem
          17 callsubr
          150 -90 107 -134 7 vhcurveto
          39 161 rlineto
          6 -5 6 -18 -9 vhcurveto
          -41 -164 rlineto
          -203 -9 -204 -228 -229 vvcurveto
          -154 95 -101 130 -6 vhcurveto
          -40 -160 rlineto
          -7 6 -5 18 9 vhcurveto
          41 163 rlineto
          202 9 204 223 231 vvcurveto
          -82 callsubr
          endchar
        </CharString>
        <CharString name="Oslash">
          81 callsubr
          hstem
          150 72 511 73 vstem
          -60 callsubr
          endchar
        </CharString>
        <CharString name="Oslash.dup">
          81 callsubr
          hstem
          150 72 511 73 vstem
          -60 callsubr
          endchar
        </CharString>
        <CharString name="Oslashacute">
          81 callsubr
          42 110 callsubr
          150 72 511 73 hintmask 11110011
          -60 callsubr
          hintmask 00001100
          19 391 -103 callgsubr
        </CharString>
        <CharString name="Otilde">
          -14 callsubr
          31 38 28 38 27 callgsubr
          hintmask 11001100
          -96 callsubr
          hintmask 00110000
          36 348 -106 callsubr
        </CharString>
        <CharString name="P">
          -31 callsubr
        </CharString>
        <CharString name="Phi">
          735 21 callgsubr
          hstem
          159 86 415 86 vstem
          746 378 rmoveto
          83 -72 75 -135 13 vhcurveto
          8 31 -5 -17 8 31 rrcurveto
          50 13 2 8 84 hhcurveto
          9 50 callsubr
          11 -10 2 -6 hvcurveto
          -44 -47 -3 -45 -46 -47 3 -45 hhcurveto
          -7 -13 -37 callsubr
          hvcurveto
          9 hlineto
          13 17 -1 -1 13 hvcurveto
          23 -3 6 -1 -14 vvcurveto
          -5 -6 -24 -3 -14 vhcurveto
          -4 -13 0 -2 -6 -26 rrcurveto
          -173 -17 -132 -114 -112 vvcurveto
          -93 86 -66 115 -11 vhcurveto
          -8 -31 5 17 -8 -31 rrcurveto
          -51 -13 -2 -8 -84 76 callsubr
          44 48 3 45 46 47 -3 45 14 callsubr
          7 12 48 7 27 hvcurveto
          173 16 138 114 114 vvcurveto
          -289 144 rmoveto
          -91 -361 rlineto
          -61 8 -60 32 81 vvcurveto
          5 0 209 212 26 vhcurveto
          203 -121 rmoveto
          -8 0 -207 -218 -26 vhcurveto
          90 363 rlineto
          64 -7 64 -31 -84 vvcurveto
          endchar
        </CharString>
        <CharString name="Pi">
          763 0 31 618 31 hstem
          866 667 rmoveto
          13 -11 0 -16 vhcurveto
          -582 hlineto
          -16 -12 -37 callsubr
          58 0 -6 -11 -4 0 -2 -4 -15 hvcurveto
          -134 -538 -48 callgsubr
          13 -10 0 -16 -58 0 6 11 4 24 callgsubr
          145 580 rlineto
          287 hlineto
          -144 -576 -48 callgsubr
          -12 callgsubr
          hvcurveto
          133 532 rlineto
          37 9 6 8 66 65 callgsubr
          hvcurveto
          endchar
        </CharString>
        <CharString name="Psi">
          787 0 31 496 28 97 31 hstem
          235 71 vstem
          843 542 3 callgsubr
          vhcurveto
          -26 hlineto
          -62 -33 -42 -102 -28 hvcurveto
          -15 -59 -42 -154 -143 -35 111 444 rcurveline
          35 9 7 10 80 hhcurveto
          9 50 callsubr
          11 -10 2 -6 hvcurveto
          -44 -47 -3 -45 -46 -47 3 -45 hhcurveto
          -7 -13 -37 callsubr
          hvcurveto
          9 hlineto
          13 17 -1 -1 13 hvcurveto
          23 -3 6 -1 -14 vvcurveto
          -4 84 callsubr
          -112 -449 rlineto
          -48 12 -39 34 89 vvcurveto
          25 4 36 9 35 vhcurveto
          6 25 8 33 29 vvcurveto
          75 -46 0 -21 vhcurveto
          -25 hlineto
          -16 -11 0 -13 -10 10 -1 6 -1 hvcurveto
          10 -1 19 -4 -45 vvcurveto
          -21 -6 -28 -5 -24 vhcurveto
          -11 -44 -2 -35 -13 vvcurveto
          -93 45 -71 106 -15 vhcurveto
          -7 -29 -11 -47 -6 -10 rrcurveto
          -8 -6 -7 -11 -73 76 callsubr
          44 48 3 45 46 47 -3 45 14 callsubr
          6 12 49 7 28 hvcurveto
          214 24 51 189 19 72 28 101 38 6 22 4 rrcurveto
          7 1 3 7 3 vvcurveto
          endchar
        </CharString>
        <CharString name="Q">
          787 -194 93 79 28 118 25 528 28 hstem
          150 84 95 25 367 85 vstem
          713 hmoveto
          8 -7 4 -6 -8 -3 -7 -9 -2 vhcurveto
          -51 -17 -44 -46 -51 hhcurveto
          -35 -22 17 89 -4 hvcurveto
          194 86 98 197 153 vvcurveto
          155 -96 109 -141 -207 -212 -232 -234 -159 101 -102 137 30 33 6 8 28 vhcurveto
          -3 -24 -5 -42 -22 vvcurveto
          -42 10 -56 71 118 43 188 6 vhcurveto
          8 472 rmoveto
          -88 -40 -235 -169 -106 vhcurveto
          75 -6 -29 31 -49 hhcurveto
          -51 -48 -50 -54 -9 1 -11 3 -6 hvcurveto
          -84 37 -15 98 54 vvcurveto
          62 24 147 76 112 vhcurveto
          96 65 87 52 76 hhcurveto
          74 85 -53 -152 hvcurveto
          -238 -445 rmoveto
          -7 -14 -36 -14 -38 hhcurveto
          -13 -28 0 39 39 35 40 40 54 0 -40 -57 hvcurveto
          endchar
        </CharString>
        <CharString name="R">
          6 callsubr
          hstem
          -102 callgsubr
          endchar
        </CharString>
        <CharString name="Racute">
          6 callsubr
          hstemhm
          -102 callgsubr
          hintmask 11100000
          89 316 -103 callgsubr
        </CharString>
        <CharString name="Rcaron">
          6 callsubr
          hstemhm
          -102 callgsubr
          hintmask 11100000
          75 281 -73 callgsubr
        </CharString>
        <CharString name="Rcedilla">
          6 callsubr
          hstem
          -102 callgsubr
          -257 -667 rmoveto
          -95 callgsubr
        </CharString>
        <CharString name="Rcommaaccent">
          6 callsubr
          hstemhm
          -102 callgsubr
          hintmask 11100000
          -257 -667 rmoveto
          -95 callgsubr
        </CharString>
        <CharString name="Rdblgrave">
          6 callsubr
          hstemhm
          -102 callgsubr
          hintmask 11101000
          16 207 -100 callsubr
        </CharString>
        <CharString name="Rdotaccent">
          6 callsubr
          hstemhm
          -102 callgsubr
          hintmask 11100000
          -12 267 -93 callsubr
        </CharString>
        <CharString name="Rdotbelow">
          6 callsubr
          hstemhm
          -102 callgsubr
          hintmask 11100000
          -251 -691 -93 callsubr
        </CharString>
        <CharString name="Rdotbelowmacron">
          6 callsubr
          hstemhm
          -102 callgsubr
          -251 -691 -94 callsubr
          hintmask 11100000
          345 913 -79 callgsubr
        </CharString>
        <CharString name="Rho">
          -31 callsubr
        </CharString>
        <CharString name="S">
          577 -22 31 668 28 hstem
          91 callgsubr
          vstem
          550 234 rmoveto
          -99 callsubr
          rrcurveto
          -65 46 82 -5 31 hhcurveto
          125 116 128 128 hvcurveto
          endchar
        </CharString>
        <CharString name="S_S">
          1154 -22 31 668 28 hstem
          91 callgsubr
          228 65 219 65 vstem
          550 234 rmoveto
          -99 callsubr
          rrcurveto
          -65 46 82 -5 31 hhcurveto
          125 116 128 128 hvcurveto
          577 hmoveto
          -99 callsubr
          rrcurveto
          -65 46 82 -5 31 hhcurveto
          125 116 128 128 hvcurveto
          endchar
        </CharString>
        <CharString name="Sacute">
          577 -22 31 668 28 62 110 callsubr
          91 callgsubr
          hintmask 11001100
          550 234 rmoveto
          -99 callsubr
          rrcurveto
          -65 46 82 -5 31 hhcurveto
          125 116 128 128 hvcurveto
          hintmask 00110000
          97 637 -103 callgsubr
        </CharString>
        <CharString name="Scaron">
          577 -22 59 callgsubr
          vstemhm
          550 234 rmoveto
          -99 callsubr
          rrcurveto
          -65 46 82 -5 31 hhcurveto
          125 116 128 128 hvcurveto
          83 602 -73 callgsubr
        </CharString>
        <CharString name="Scedilla">
          577 -22 31 668 28 hstem
          201 65 38 68 113 65 vstem
          550 234 rmoveto
          -99 callsubr
          27 -38 39 -18 34 -8 rrcurveto
          -4 -18 -6 -25 -3 -48 callsubr
          34 -28 16 -35 6 hvcurveto
          9 33 rlineto
          121 6 111 125 125 vvcurveto
          endchar
        </CharString>
        <CharString name="Scircumflex">
          577 -22 59 callgsubr
          vstemhm
          550 234 rmoveto
          -99 callsubr
          rrcurveto
          -65 46 82 -5 31 hhcurveto
          125 116 128 128 hvcurveto
          63 521 -102 callsubr
          endchar
        </CharString>
        <CharString name="Sdotbelow">
          577 29 callsubr
          70 59 callgsubr
          hintmask 01111000
          550 234 rmoveto
          -99 callsubr
          rrcurveto
          -65 46 82 -5 31 hhcurveto
          125 116 128 128 hvcurveto
          hintmask 10000000
          -243 -370 -93 callsubr
        </CharString>
        <CharString name="Sigma">
          735 0 41 611 31 hstem
          711 222 rmoveto
          139 callsubr
          -5 -8 0 -10 -4 vhcurveto
          -142 -57 -42 -42 -176 hhcurveto
          -250 hlineto
          299 284 rlineto
          9 9 2 2 6 vvcurveto
          0 0 3 -4 10 vhcurveto
          -118 297 rlineto
          226 hlineto
          144 33 -29 -91 hvcurveto
          -31 -4 -20 -8 vvcurveto
          -14 9 -1 8 15 1 7 16 2 vhcurveto
          21 174 1 15 rlineto
          13 -11 0 -15 vhcurveto
          -498 hlineto
          -17 -12 0 -20 hvcurveto
          142 -356 -293 -278 rlineto
          -9 -8 -2 -3 -5 vvcurveto
          -13 10 0 16 vhcurveto
          498 hlineto
          22 1 1 18 7 hvcurveto
          71 190 rlineto
          3 8 1 5 0 vvcurveto
          endchar
        </CharString>
        <CharString name="T">
          71 callgsubr
          hstem
          -97 callsubr
          endchar
        </CharString>
        <CharString name="T_uni0303">
          71 callgsubr
          59 38 28 38 hstemhm
          hintmask 11000000
          -97 callsubr
          hintmask 00110000
          -61 354 -106 callsubr
        </CharString>
        <CharString name="T_uni0308">
          71 callgsubr
          59 98 hstemhm
          hintmask 11000000
          -97 callsubr
          hintmask 00100000
          -285 321 -72 callgsubr
        </CharString>
        <CharString name="Tau">
          71 callgsubr
          hstem
          -97 callsubr
          endchar
        </CharString>
        <CharString name="Tcaron">
          71 callgsubr
          hstemhm
          -97 callsubr
          -80 363 -73 callgsubr
        </CharString>
        <CharString name="Tcedilla">
          71 callgsubr
          hstem
          383 68 vstem
          792 473 rmoveto
          28 178 2 12 rlineto
          14 -10 0 -17 vhcurveto
          -524 hlineto
          -21 -3 0 -18 -6 hvcurveto
          -60 -180 -4 -14 rlineto
          -13 12 0 4 4 5 0 3 3 vhcurveto
          3 2 0 2 9 24 rrcurveto
          143 50 25 20 134 hhcurveto
          19 23 0 -3 16 hvcurveto
          -11 84 callsubr
          42 callsubr
          -7 -11 -90 hhcurveto
          -14 hlineto
          -16 -13 0 -18 -13 14 0 3 hvcurveto
          119 3 rlineto
          -3 -13 -11 -44 40 callgsubr
          34 -28 16 -35 6 hvcurveto
          4 14 6 23 4 17 121 -3 rcurveline
          8 38 callgsubr
          hvcurveto
          -15 hlineto
          -15 -20 1 1 -15 hvcurveto
          -23 3 -8 1 16 vvcurveto
          51 callgsubr
          134 538 7 29 7 3 9 1 rlinecurve
          2 7 29 0 18 hhcurveto
          96 35 -8 -68 -26 -7 -46 -1 -8 hvcurveto
          -1 -5 -3 -16 -4 vvcurveto
          -13 14 0 3 12 4 2 19 3 vhcurveto
          endchar
        </CharString>
        <CharString name="Tdotbelow">
          735 90 callsubr
          615 31 hstemhm
          hintmask 01100000
          -97 callsubr
          hintmask 10000000
          -406 -609 -93 callsubr
        </CharString>
        <CharString name="Theta">
          787 -22 27 303 69 303 25 hstem
          150 82 492 82 vstem
          17 callsubr
          155 -96 109 -141 -207 -212 -232 -234 -159 101 -102 137 206 212 227 236 vhcurveto
          -82 31 rmoveto
          -62 -18 -142 -85 -122 vhcurveto
          -76 -53 -88 -65 -85 hhcurveto
          -82 -81 59 146 211 147 259 184 76 85 -56 -152 hvcurveto
          -59 -88 rmoveto
          2 14 rlineto
          13 -13 0 -3 -17 -5 -19 -15 -1 vhcurveto
          -281 hlineto
          2 5 2 10 6 vvcurveto
          139 callsubr
          -10 -5 -1 -19 -5 vhcurveto
          -21 -86 rlineto
          -4 -14 0 -4 0 vvcurveto
          -13 13 0 4 17 4 19 15 1 vhcurveto
          281 hlineto
          -1 -5 -3 -9 -6 vvcurveto
          -14 12 0 5 14 1 5 15 4 vhcurveto
          endchar
        </CharString>
        <CharString name="Thorn">
          644 0 31 147 31 311 31 101 31 hstem
          569 90 vstem
          659 407 rmoveto
          72 -50 72 -109 vhcurveto
          -131 hlineto
          7 26 11 46 3 6 rrcurveto
          14 6 5 9 64 hhcurveto
          16 11 0 18 0 -1 13 -13 hvcurveto
          -114 -3 -115 3 rlineto
          -5 -15 0 -18 -18 callsubr
          0 20 0 14 -2 vhcurveto
          21 -2 3 -2 -4 -32 -135 -540 rcurveline
          -34 -9 -2 -9 -71 hhcurveto
          -14 -13 0 -18 -5 3 -8 12 hvcurveto
          113 3 116 -3 rlineto
          57 callgsubr
          13 -11 0 -15 -58 0 6 11 6 9 36 5 22 hvcurveto
          17 66 rlineto
          133 hlineto
          134 116 118 111 hvcurveto
          -90 5 rmoveto
          -97 -79 -106 -105 vhcurveto
          -101 hlineto
          77 311 rlineto
          112 hlineto
          20 27 0 -30 25 hvcurveto
          18 -22 6 -29 -27 vvcurveto
          endchar
        </CharString>
        <CharString name="Tlinebelow">
          735 -163 34 129 31 615 31 hstemhm
          hintmask 01100000
          -97 callsubr
          hintmask 10000000
          -290 -615 -79 callgsubr
        </CharString>
        <CharString name="U">
          32 callsubr
          hstem
          206 75 vstem
          -104 callsubr
          endchar
        </CharString>
        <CharString name="U_uni032F">
          763 -211 -21 134 39 37 31 643 31 124 callsubr
          hintmask 00111000
          -104 callsubr
          hintmask 11001000
          -367 -850 -57 callgsubr
        </CharString>
        <CharString name="Uacute">
          32 callsubr
          84 110 callsubr
          206 75 hintmask 11001000
          -104 callsubr
          hintmask 00110000
          -103 201 -103 callgsubr
        </CharString>
        <CharString name="Ubreve">
          32 callsubr
          63 121 callsubr
          206 75 hintmask 11001000
          -104 callsubr
          hintmask 00110000
          -92 236 -86 callgsubr
        </CharString>
        <CharString name="Ucaron">
          32 callsubr
          124 callsubr
          vstemhm
          -104 callsubr
          -117 166 -73 callgsubr
        </CharString>
        <CharString name="Ucircumflex">
          32 callsubr
          124 callsubr
          vstemhm
          -104 callsubr
          -137 85 -102 callsubr
          endchar
        </CharString>
        <CharString name="Udblgrave">
          32 callsubr
          106 callsubr
          206 75 hintmask 11001000
          -104 callsubr
          hintmask 00110000
          -150 92 -100 callsubr
        </CharString>
        <CharString name="Udieresis">
          32 callsubr
          53 98 124 callsubr
          hintmask 11010000
          -104 callsubr
          hintmask 00100000
          -28 callsubr
          endchar
        </CharString>
        <CharString name="Udieresisacute">
          32 callsubr
          53 98 108 callgsubr
          206 75 hintmask 11000100
          -104 callsubr
          hintmask 00111000
          -28 callsubr
          44 227 -103 callgsubr
        </CharString>
        <CharString name="Udieresiscaron">
          32 callsubr
          53 98 124 callsubr
          hintmask 11010000
          -104 callsubr
          hintmask 00100000
          -28 callsubr
          30 192 -73 callgsubr
        </CharString>
        <CharString name="Udieresisgrave">
          32 callsubr
          53 98 108 callgsubr
          206 75 hintmask 11000100
          -104 callsubr
          hintmask 00111000
          -28 callsubr
          -53 122 -77 callsubr
        </CharString>
        <CharString name="Udotbelow">
          142 callsubr
          31 124 callsubr
          hintmask 01110000
          -104 callsubr
          hintmask 10000000
          -443 -806 -93 callsubr
        </CharString>
        <CharString name="Ugrave">
          32 callsubr
          84 110 callsubr
          206 75 hintmask 11001000
          -104 callsubr
          hintmask 00110000
          -200 96 -77 callsubr
        </CharString>
        <CharString name="Uhookabove">
          32 callsubr
          96 110 callgsubr
          206 75 hintmask 11001000
          -104 callsubr
          hintmask 00110000
          -145 227 -107 callsubr
        </CharString>
        <CharString name="Uhorn">
          101 callgsubr
          -92 callsubr
          endchar
        </CharString>
        <CharString name="Uhornacute">
          101 callgsubr
          84 -21 160 -20 -92 callsubr
          hintmask 00011000
          -150 149 -103 callgsubr
        </CharString>
        <CharString name="Uhorndotbelow">
          142 callsubr
          28 -28 31 hstemhm
          hintmask 00010000
          887 722 rmoveto
          2 6 1 7 7 vvcurveto
          27 -16 22 90 callgsubr
          17 -19 28 vhcurveto
          7 hlineto
          -18 -20 -25 -16 -26 -5 7 26 rcurveline
          3 vlineto
          6 -4 4 -5 2 vhcurveto
          hintmask 00100000
          -1 -2 -3 -1 0 vvcurveto
          hintmask 01010000
          -32 -32 1 2 -32 hvcurveto
          -3 hlineto
          -6 -5 -4 -5 -1 hvcurveto
          -2 -6 rlineto
          -3 vlineto
          -6 4 -5 5 -1 vhcurveto
          3 -1 rlineto
          27 19 -4 -11 11 hvcurveto
          6 -6 3 -9 -11 vvcurveto
          -6 -1 -7 -2 -8 vhcurveto
          -90 -359 -15 -59 -32 -56 -46 -43 rlinecurve
          -40 -43 -53 -24 -49 hhcurveto
          -44 -36 23 37 -17 hvcurveto
          -10 19 -4 23 25 vvcurveto
          27 5 30 8 32 vhcurveto
          97 388 4 18 6 10 9 4 rlinecurve
          6 13 24 1 38 hhcurveto
          6 5 4 6 1 hvcurveto
          2 6 rlineto
          3 vlineto
          5 -4 5 -5 2 vhcurveto
          -2 hlineto
          hintmask 00100000
          -121 -3 rlineto
          hintmask 01010000
          -121 3 rlineto
          -3 hlineto
          -5 -5 -4 -5 -2 hvcurveto
          -1 -6 rlineto
          -3 vlineto
          -6 4 -5 5 -1 vhcurveto
          3 -1 rlineto
          38 23 -1 -5 9 hvcurveto
          0 2 -3 -6 vvcurveto
          -5 -1 -6 -2 -8 vhcurveto
          -97 -387 rlineto
          -5 -22 -3 -21 -21 vvcurveto
          -43 12 -39 22 -32 vhcurveto
          -47 33 54 -28 63 hhcurveto
          57 61 28 45 48 hvcurveto
          52 48 36 61 16 65 96 383 rcurveline
          60 6 56 48 15 60 rrcurveto
          hintmask 10000000
          -487 -858 -93 callsubr
        </CharString>
        <CharString name="Uhorngrave">
          101 callgsubr
          84 -21 160 -20 -92 callsubr
          hintmask 00011000
          -221 44 -77 callsubr
        </CharString>
        <CharString name="Uhornhookabove">
          101 callgsubr
          96 -21 208 -20 -92 callsubr
          hintmask 00011000
          -166 175 -107 callsubr
        </CharString>
        <CharString name="Uhorntilde">
          101 callgsubr
          53 38 28 38 -92 callsubr
          hintmask 00011000
          -119 105 -106 callsubr
        </CharString>
        <CharString name="Uhungarumlaut">
          32 callsubr
          106 callsubr
          206 75 hintmask 11001000
          -104 callsubr
          hintmask 00110000
          -234 238 -76 callgsubr
        </CharString>
        <CharString name="Umacron">
          32 callsubr
          73 34 124 callsubr
          hintmask 11010000
          -104 callsubr
          hintmask 00100000
          -98 107 -79 callgsubr
        </CharString>
        <CharString name="Uogonek">
          763 -211 47 142 31 643 31 hstem
          206 75 vstem
          866 670 rmoveto
          5 -3 8 -10 vhcurveto
          -30 -34 -3 -31 -32 -34 3 -31 hhcurveto
          -5 41 callgsubr
          9 hvcurveto
          47 -2 11 -18 -22 vvcurveto
          -6 -1 -5 -2 -7 vhcurveto
          -90 -363 rlineto
          -122 -30 -106 -98 -100 hhcurveto
          -53 -58 33 95 28 5 31 5 18 hvcurveto
          99 397 rlineto
          32 8 6 9 -83 callsubr
          -95 -381 rlineto
          -5 -21 -4 -25 -21 vvcurveto
          -100 61 -69 83 -16 vhcurveto
          -39 -29 -32 -35 -8 -39 rrcurveto
          -37 callgsubr
          -55 callgsubr
          4 20 12 17 16 15 8 8 8 7 9 6 rrcurveto
          8 hlineto
          128 115 125 118 29 hvcurveto
          88 356 16 64 41 9 41 2 rlinecurve
          7 12 1 17 hvcurveto
          endchar
        </CharString>
        <CharString name="Upsilon">
          787 0 31 604 70 hstem
          462 50 301 38 vstem
          851 595 rmoveto
          49 -23 61 -71 -145 -76 -175 -62 -26 vhcurveto
          -1 hlineto
          3 27 0 10 18 vvcurveto
          37 0 145 -130 -111 -56 -137 -24 -10 8 0 6 15 3 7 8 2 vhcurveto
          60 20 52 26 43 hhcurveto
          82 16 -72 -63 -49 -12 -62 -5 -19 hvcurveto
          -73 -293 rlineto
          -36 -9 -6 -10 -81 76 callsubr
          45 48 3 46 47 49 -3 46 14 callsubr
          5 0 2 4 15 hvcurveto
          63 251 rlineto
          84 21 57 226 146 hhcurveto
          48 26 -30 -38 hvcurveto
          -15 -2 -3 -5 vvcurveto
          -10 9 0 5 20 6 22 39 vhcurveto
          endchar
        </CharString>
        <CharString name="Uring">
          32 callsubr
          33 125 callsubr
          124 callsubr
          227 40 117 40 hintmask 11001000
          -104 callsubr
          hintmask 00110110
          -201 156 -45 callsubr
          endchar
        </CharString>
        <CharString name="Utilde">
          32 callsubr
          53 38 28 38 124 callsubr
          hintmask 11001000
          -104 callsubr
          hintmask 00110000
          -98 157 -106 callsubr
        </CharString>
        <CharString name="V">
          763 137 callgsubr
          hstem
          885 78 callgsubr
          -7 vhcurveto
          -4 -23 -3 -50 -30 -33 3 -29 hhcurveto
          -4 -14 65 callsubr
          3 hvcurveto
          9 -1 32 -2 -28 vvcurveto
          -16 -9 -15 -7 -11 vhcurveto
          -297 -487 -57 516 -2 22 2 21 61 1 rlinecurve
          13 13 0 18 5 -3 8 -12 hvcurveto
          -36 -39 -3 -37 -33 -36 3 -32 hhcurveto
          -5 -13 51 callsubr
          50 1 -8 -23 2 hvcurveto
          68 -618 rlineto
          -19 2 1 -6 18 hhcurveto
          17 5 8 11 7 hvcurveto
          348 571 40 65 33 15 39 4 rlinecurve
          11 1 9 1 16 vvcurveto
          endchar
        </CharString>
        <CharString name="W">
          103 callsubr
          hstem
          -86 callsubr
          endchar
        </CharString>
        <CharString name="Wacute">
          103 callsubr
          84 110 callsubr
          hintmask 11000000
          -86 callsubr
          hintmask 00110000
          -276 201 -103 callgsubr
        </CharString>
        <CharString name="Wcircumflex">
          103 callsubr
          hstemhm
          -86 callsubr
          -310 85 -102 callsubr
          endchar
        </CharString>
        <CharString name="Wdieresis">
          103 callsubr
          53 98 hstemhm
          hintmask 11000000
          -86 callsubr
          hintmask 00100000
          -495 18 callsubr
        </CharString>
        <CharString name="Wgrave">
          103 callsubr
          84 110 callsubr
          hintmask 11000000
          -86 callsubr
          hintmask 00110000
          -373 96 -77 callsubr
        </CharString>
        <CharString name="X">
          -46 callgsubr
        </CharString>
        <CharString name="Xi">
          682 0 64 256 64 229 64 hstem
          746 547 rmoveto
          20 104 rlineto
          3 2 9 0 vhcurveto
          14 -10 0 -17 vhcurveto
          -469 hlineto
          -22 -1 -1 -18 -6 hvcurveto
          -33 -105 rlineto
          -2 -5 -2 -8 0 vvcurveto
          -13 13 0 4 13 2 5 10 3 vhcurveto
          12 37 10 29 9 2 rrcurveto
          2 12 38 1 13 hhcurveto
          323 hlineto
          27 34 -3 0 -16 0 -9 -4 -23 hvcurveto
          -4 -21 rlineto
          -14 12 0 5 14 1 4 16 3 vhcurveto
          -93 -399 rmoveto
          13 -13 0 -4 -13 -1 -1 -27 -8 vhcurveto
          -2 -5 -13 -43 -10 -14 rrcurveto
          -7 -6 -55 0 -11 hhcurveto
          -327 hlineto
          -38 -26 0 10 13 4 28 4 22 hvcurveto
          1 7 1 3 0 vvcurveto
          14 -12 0 -5 -14 -1 -4 -16 -3 vhcurveto
          -24 -128 rlineto
          -13 10 0 16 vhcurveto
          481 hlineto
          21 2 0 14 5 hvcurveto
          5 14 36 114 6 vvcurveto
          -55 145 rmoveto
          28 112 2 13 rlineto
          139 callsubr
          -12 -3 -3 -14 -4 vhcurveto
          -1 -3 -1 -4 -5 -23 rrcurveto
          -298 hlineto
          7 34 rlineto
          139 callsubr
          -11 -4 -2 -18 -5 vhcurveto
          -28 -112 103 callgsubr
          -13 12 0 4 12 3 3 14 4 vhcurveto
          1 3 1 4 5 23 rrcurveto
          298 hlineto
          -7 -34 rlineto
          -13 12 0 4 10 5 0 20 5 vhcurveto
          endchar
        </CharString>
        <CharString name="Y">
          89 callgsubr
          -98 callsubr
          endchar
        </CharString>
        <CharString name="Yacute">
          27 callsubr
          84 110 callsubr
          hintmask 11000000
          -98 callsubr
          hintmask 00110000
          -151 201 -103 callgsubr
        </CharString>
        <CharString name="Ycircumflex">
          27 callsubr
          hstemhm
          -98 callsubr
          -185 85 -102 callsubr
          endchar
        </CharString>
        <CharString name="Ydieresis">
          27 callsubr
          53 98 hstemhm
          hintmask 11000000
          -98 callsubr
          hintmask 00100000
          -370 18 callsubr
        </CharString>
        <CharString name="Ydotbelow">
          763 37 callsubr
          -98 callsubr
          hintmask 10000000
          -491 -806 -93 callsubr
        </CharString>
        <CharString name="Ygrave">
          27 callsubr
          84 110 callsubr
          hintmask 11000000
          -98 callsubr
          hintmask 00110000
          -248 96 -77 callsubr
        </CharString>
        <CharString name="Yhookabove">
          27 callsubr
          96 110 callgsubr
          hintmask 11000000
          -98 callsubr
          hintmask 00110000
          -192 227 -107 callsubr
        </CharString>
        <CharString name="Ytilde">
          27 callsubr
          53 38 28 38 hstemhm
          hintmask 11000000
          -98 callsubr
          hintmask 00110000
          -146 157 -106 callsubr
        </CharString>
        <CharString name="Z">
          82 callsubr
          hstem
          -75 callgsubr
          endchar
        </CharString>
        <CharString name="Zacute">
          82 callsubr
          84 110 callsubr
          hintmask 11000000
          -75 callgsubr
          hintmask 00110000
          128 852 -103 callgsubr
        </CharString>
        <CharString name="Zcaron">
          82 callsubr
          hstemhm
          -75 callgsubr
          114 817 -73 callgsubr
        </CharString>
        <CharString name="Zdotaccent">
          82 callsubr
          75 108 hstemhm
          hintmask 11000000
          -75 callgsubr
          hintmask 00100000
          26 803 -93 callsubr
        </CharString>
        <CharString name="Zdotbelow">
          630 29 callsubr
          92 34 618 31 hstemhm
          hintmask 01100000
          -75 callgsubr
          hintmask 10000000
          -213 -155 -93 callsubr
        </CharString>
        <CharString name="Zeta">
          82 callsubr
          hstem
          -75 callgsubr
          endchar
        </CharString>
        <CharString name="a">
          -35 callgsubr
          hstem
          100 70 vstem
          -105 callsubr
          endchar
        </CharString>
        <CharString name="aacute">
          -35 callgsubr
          26 callgsubr
          100 70 hintmask 11001000
          -105 callsubr
          hintmask 00110000
          149 356 -90 callsubr
        </CharString>
        <CharString name="abreve">
          102 callgsubr
          134 -20 hstemhm
          100 70 hintmask 11001000
          -105 callsubr
          hintmask 00110000
          22 callsubr
          endchar
        </CharString>
        <CharString name="abreveacute">
          102 callgsubr
          314 -20 hstemhm
          100 70 hintmask 11001000
          -105 callsubr
          hintmask 00110000
          22 callsubr
          2 158 -103 callgsubr
        </CharString>
        <CharString name="abrevedotbelow">
          82 callgsubr
          72 121 callsubr
          100 70 hintmask 01111100
          -105 callsubr
          22 callsubr
          hintmask 10000000
          -293 -810 -93 callsubr
        </CharString>
        <CharString name="abrevegrave">
          102 callgsubr
          134 -20 hstemhm
          100 70 hintmask 11001000
          -105 callsubr
          hintmask 00110000
          22 callsubr
          -25 53 rmoveto
          -2 -7 -13 -12 -9 -1 rrcurveto
          -5 -1 -8 4 0 vvcurveto
          -135 91 -9 6 -9 9 5 16 rlinecurve
          20 7 20 15 21 hhcurveto
          11 5 -5 -7 6 hvcurveto
          108 -114 8 -8 1 -1 -2 -5 rlinecurve
          endchar
        </CharString>
        <CharString name="abrevehookabove">
          102 callgsubr
          342 -20 hstemhm
          100 70 hintmask 11001000
          -105 callsubr
          hintmask 00110000
          22 callsubr
          -13 152 -107 callsubr
        </CharString>
        <CharString name="abrevetilde">
          102 callgsubr
          174 38 28 38 hstemhm
          100 70 hintmask 11000100
          -105 callsubr
          hintmask 00111000
          22 callsubr
          49 144 -106 callsubr
        </CharString>
        <CharString name="acaron">
          120 callsubr
          100 70 vstemhm
          -105 callsubr
          166 354 -68 callsubr
        </CharString>
        <CharString name="acircumflex">
          120 callsubr
          100 70 vstemhm
          -105 callsubr
          134 226 -74 callsubr
          endchar
        </CharString>
        <CharString name="acircumflexacute">
          -35 callgsubr
          374 -20 -50 callgsubr
          132 226 -102 callsubr
          30 245 -103 callgsubr
        </CharString>
        <CharString name="acircumflexdotbelow">
          127 callsubr
          100 70 hintmask 01110000
          -105 callsubr
          134 226 -74 callsubr
          hintmask 10000000
          -253 -672 -93 callsubr
        </CharString>
        <CharString name="acircumflexgrave">
          120 callsubr
          100 70 vstemhm
          -105 callsubr
          132 226 -75 callsubr
        </CharString>
        <CharString name="acircumflexhookabove">
          -35 callgsubr
          402 -20 -50 callgsubr
          132 226 -102 callsubr
          108 239 -107 callsubr
        </CharString>
        <CharString name="acircumflextilde">
          -35 callgsubr
          234 38 28 38 hstemhm
          100 70 hintmask 11001000
          -105 callsubr
          hintmask 00110000
          132 226 -102 callsubr
          78 231 -106 callsubr
        </CharString>
        <CharString name="acute">
          70 callgsubr
          hstem
          549 666 -90 callsubr
        </CharString>
        <CharString name="acute.cap">
          131 callgsubr
          115 callsubr
          hstem
          558 618 -103 callgsubr
        </CharString>
        <CharString name="acute.dup">
          70 callgsubr
          hstem
          549 666 -90 callsubr
        </CharString>
        <CharString name="acute.ts1">
          70 callgsubr
          21 -20 hstemhm
          hintmask 00100000
          560 667 rmoveto
          14 -11 16 -18 vhcurveto
          hintmask 11000000
          -6 -1 -12 -2 -9 -8 -9 -9 rlinecurve
          -25 -25 -84 -83 rlineto
          -12 -12 -29 -21 -14 vvcurveto
          -9 7 -9 10 7 5 5 4 5 vhcurveto
          33 25 94 70 27 20 rlineto
          13 11 14 9 19 vvcurveto
          endchar
        </CharString>
        <CharString name="adblgrave">
          -35 callgsubr
          106 callsubr
          100 70 hintmask 11001000
          -105 callsubr
          hintmask 00110000
          114 211 -100 callsubr
        </CharString>
        <CharString name="adieresis">
          -35 callgsubr
          109 98 -50 callgsubr
          -28 299 -53 callsubr
        </CharString>
        <CharString name="adotbelow">
          127 callsubr
          100 70 hintmask 01110000
          -105 callsubr
          hintmask 10000000
          -119 -446 -93 callsubr
        </CharString>
        <CharString name="ae">
          735 -4 callsubr
          hstem
          93 76 527 41 vstem
          -59 callsubr
          endchar
        </CharString>
        <CharString name="ae.dup">
          735 -4 callsubr
          hstem
          93 76 527 41 vstem
          -59 callsubr
          endchar
        </CharString>
        <CharString name="aeacute">
          735 -4 callsubr
          26 callgsubr
          93 76 527 41 hintmask 11100110
          -59 callsubr
          hintmask 00011000
          222 282 -90 callsubr
        </CharString>
        <CharString name="agrave">
          -35 callgsubr
          26 callgsubr
          100 70 hintmask 11001000
          -105 callsubr
          hintmask 00110000
          53 212 -65 callgsubr
        </CharString>
        <CharString name="ahookabove">
          -35 callgsubr
          75 110 callgsubr
          100 70 hintmask 11001000
          -105 callsubr
          hintmask 00110000
          114 325 -107 callsubr
        </CharString>
        <CharString name="amacron">
          -35 callgsubr
          141 34 -50 callgsubr
          183 294 -79 callgsubr
        </CharString>
        <CharString name="ampersand">
          787 -22 25 304 25 104 25 62 79 89 25 hstem
          128 77 201 33 61 34 182 34 vstem
          750 309 rmoveto
          59 -18 45 -40 53 vhcurveto
          94 67 34 109 20 vvcurveto
          9 -6 23 -29 -27 -21 -25 -23 -18 15 -13 18 -2 vhcurveto
          -42 -90 -53 -32 -56 -33 rrcurveto
          -46 -29 -73 -44 -70 vvcurveto
          -45 31 -28 36 35 15 29 19 16 -11 16 -23 -20 -18 -13 -19 -8 vhcurveto
          -2 5 -1 4 13 vvcurveto
          56 43 26 86 52 vhcurveto
          32 -40 21 -47 -53 vvcurveto
          -68 -50 -235 -273 -96 -92 45 111 44 24 87 27 50 vhcurveto
          -24 26 30 -9 28 hhcurveto
          55 44 49 43 34 -24 28 -42 -32 -34 -12 -20 -32 hvcurveto
          95 4 55 167 96 hhcurveto
          28 45 -15 -74 2 hvcurveto
          -43 -9 -33 -14 -30 26 -2 8 51 0 63 14 77 -52 39 -57 -104 -112 -128 -133 -17 0 -22 12 -29 hvcurveto
          -48 -46 -49 -90 -74 vvcurveto
          -110 101 -89 163 275 83 218 113 vhcurveto
          -344 95 rmoveto
          -30 -23 -42 -42 -40 -18 40 6 6 44 52 46 22 11 -14 -18 vhcurveto
          endchar
        </CharString>
        <CharString name="anglearc">
          787 -43 -21 630 -20 hstem
          713 21 rmoveto
          3 9 -4 8 -7 3 -118 50 rcurveline
          31 51 22 54 14 55 13 55 5 54 -5 51 143 50 rcurveline
          9 3 7 8 2 9 4 15 -12 10 -15 -5 -143 -51 rcurveline
          -8 38 -13 37 -18 33 rrcurveto
          5 -2 -6 3 -6 hhcurveto
          -12 -12 -9 -12 -3 hvcurveto
          -1 -5 1 -4 2 -4 16 -30 12 -33 7 -35 -461 -163 rcurveline
          -9 -3 -7 -8 -2 -9 -2 -9 3 -8 7 -3 379 -163 rcurveline
          -24 -35 -28 -33 -32 -30 -3 -4 -3 -4 -2 -5 rrcurveto
          -12 -2 7 -9 11 hhcurveto
          7 7 3 5 5 hvcurveto
          35 33 31 37 26 38 118 -51 rcurveline
          12 -5 18 10 3 15 rrcurveto
          -101 230 rmoveto
          -13 -49 -20 -49 -27 -46 -333 144 rcurveline
          405 144 4 -46 -4 -49 -12 -49 rlinecurve
          endchar
        </CharString>
        <CharString name="angleleft">
          420 -229 -21 1001 -20 hstem
          283 -231 rmoveto
          5 vlineto
          15 -3 15 -1 15 vhcurveto
          -36 361 rlineto
          -3 20 -3 21 20 vvcurveto
          4 vlineto
          1 5 3 4 3 4 56 94 rcurveline
          195 324 rlineto
          9 15 19 22 16 vvcurveto
          134 callsubr
          -16 -4 -10 -25 -8 -14 -77 -128 rcurveline
          -175 -291 rlineto
          -7 -12 -12 -14 -15 vvcurveto
          -19 4 -23 3 -20 vhcurveto
          15 -154 25 -250 rlineto
          -13 2 3 -18 18 hhcurveto
          11 9 9 10 1 hvcurveto
          endchar
        </CharString>
        <CharString name="angleright">
          420 -229 -21 1000 -20 hstem
          351 254 rmoveto
          7 -1 7 -1 6 vhcurveto
          -5 50 -37 370 -3 27 rlineto
          17 -7 12 -16 vhcurveto
          -4 hlineto
          -13 -3 -4 -10 -12 vvcurveto
          -9 2 -9 1 -7 vhcurveto
          1 -13 14 -135 19 -137 8 -135 rlinecurve
          1 -6 1 -7 -6 vvcurveto
          -5 vlineto
          -2 -5 -3 -4 -2 -4 -13 -21 rcurveline
          -262 -436 rlineto
          -2 -5 -2 -4 -5 vvcurveto
          -4 vlineto
          -11 2 10 -7 10 hhcurveto
          12 1 6 9 5 9 13 22 rcurveline
          79 131 174 289 rlineto
          8 13 11 14 16 vvcurveto
          endchar
        </CharString>
        <CharString name="aogonek">
          525 60 callgsubr
          hstem
          100 70 233 86 vstem
          -38 callgsubr
          endchar
        </CharString>
        <CharString name="aogonekacute">
          525 60 callgsubr
          26 callgsubr
          100 70 233 86 hintmask 11100110
          -38 callgsubr
          hintmask 00011000
          149 356 -90 callsubr
        </CharString>
        <CharString name="aring">
          -35 callgsubr
          87 125 callsubr
          hstemhm
          100 70 148 40 118 40 hintmask 11001000
          -105 callsubr
          hintmask 00110110
          76 329 -35 callsubr
        </CharString>
        <CharString name="aringacute">
          -35 callgsubr
          87 125 callsubr
          180 -20 hstemhm
          100 70 150 40 117 40 hintmask 11000100
          -105 callsubr
          hintmask 00111011
          77 329 -45 callsubr
          65 213 -103 callgsubr
        </CharString>
        <CharString name="asciicircum">
          556 583 -21 hstem
          707 584 rmoveto
          -243 160 -323 -160 6 -22 301 123 242 -123 rlineto
          endchar
        </CharString>
        <CharString name="asciitilde">
          556 193 43 28 43 hstem
          627 290 2 callsubr
        </CharString>
        <CharString name="asciitilde.low">
          556 0 43 28 43 hstem
          579 97 2 callsubr
        </CharString>
        <CharString name="asterisk">
          525 340 -21 431 -20 hstem
          548 448 rmoveto
          9 -2 4 -14 8 vhcurveto
          -112 65 149 68 rlineto
          10 5 15 7 19 vvcurveto
          22 -17 0 -11 vhcurveto
          -152 -97 52 155 rlineto
          5 13 0 4 0 vvcurveto
          12 -9 8 -13 -21 -11 -17 -19 -3 vhcurveto
          -25 -156 -91 86 rlineto
          10 -11 -1 1 -8 hhcurveto
          -20 -15 -20 -14 -9 4 -5 12 -7 hvcurveto
          113 -65 -148 -68 rlineto
          -12 -6 -15 -6 -19 vvcurveto
          -22 17 0 11 vhcurveto
          152 97 -53 -156 rlineto
          -1 -4 -3 -7 -5 vvcurveto
          -12 10 -8 12 10 20 4 31 5 vhcurveto
          26 157 90 -86 rlineto
          -10 10 1 -1 9 hhcurveto
          19 16 19 15 hvcurveto
          endchar
        </CharString>
        <CharString name="asterisk.math">
          525 57 -21 430 -20 hstem
          477 165 rmoveto
          17 -22 6 -12 8 vhcurveto
          -94 55 rlineto
          57 26 117 39 34 vvcurveto
          13 -10 8 -10 -22 -55 -42 -23 -34 vhcurveto
          -16 -10 -17 -10 -15 -11 14 53 20 53 19 52 rrcurveto
          1 4 2 5 5 vvcurveto
          11 -11 8 -10 -28 -7 -26 -21 -3 vhcurveto
          -2 -15 -3 -16 -2 -15 -11 -61 rcurveline
          -2 -12 -2 -13 -1 -12 -68 64 rcurveline
          -20 19 rlineto
          6 -6 -7 8 -10 hhcurveto
          -17 -18 -18 -17 -17 22 -6 12 -8 hvcurveto
          94 -55 rlineto
          -57 -26 -117 -39 -34 vvcurveto
          -13 10 -8 10 22 55 42 23 34 vhcurveto
          16 10 17 10 15 11 -14 -53 -20 -53 -19 -52 rrcurveto
          -1 -4 -2 -5 -5 vvcurveto
          -11 11 -8 10 28 7 26 21 3 vhcurveto
          2 15 3 16 2 15 11 61 rcurveline
          2 12 2 13 1 12 68 -64 rcurveline
          20 -19 rlineto
          -6 6 7 -8 10 hhcurveto
          17 18 18 17 hvcurveto
          endchar
        </CharString>
        <CharString name="at">
          787 -11 25 113 25 390 25 113 25 hstem
          152 34 97 66 424 34 vstem
          725 70 rmoveto
          11 -10 0 -16 -16 -2 0 -7 -16 vhcurveto
          -44 -99 -97 -16 -71 hhcurveto
          -144 -68 114 122 215 193 215 186 118 90 -89 -147 -51 -38 -241 -88 -10 -7 2 23 10 1 7 3 11 hvcurveto
          63 253 rlineto
          2 7 146 callgsubr
          12 -12 0 -16 vhcurveto
          -24 hlineto
          48 -19 -40 36 -58 hhcurveto
          -122 -126 -138 -141 -96 62 -65 82 66 53 46 18 18 hvcurveto
          -56 6 52 -8 20 hhcurveto
          65 33 57 46 19 hvcurveto
          5 11 43 109 92 vvcurveto
          159 -102 104 -139 -206 -208 -226 -228 -131 78 -131 168 92 115 21 48 110 vhcurveto
          4 2 6 3 7 vvcurveto
          -144 199 rmoveto
          -39 -10 -73 -78 -69 hhcurveto
          -54 -26 56 64 131 97 139 86 73 19 -81 -16 -4 -1 -2 -2 -9 hvcurveto
          endchar
        </CharString>
        <CharString name="atilde">
          -35 callgsubr
          106 38 28 38 hstemhm
          100 70 hintmask 11001000
          -105 callsubr
          hintmask 00110000
          179 329 -106 callsubr
        </CharString>
        <CharString name="b">
          134 callgsubr
          115 61 223 70 vstem
          469 285 rmoveto
          97 -55 60 -70 -53 -45 -43 -7 -8 vhcurveto
          67 270 4 callsubr
          -100 -399 5 callsubr
        </CharString>
        <CharString name="backslash">
          514 750 -20 hstem
          399 -228 rmoveto
          1 4 -1 4 -1 9 -114 938 rcurveline
          12 -1 -1 11 -16 hhcurveto
          -9 -14 -7 -15 -4 hvcurveto
          -1 -4 1 -4 1 -9 114 -938 rcurveline
          -12 1 2 -11 16 hhcurveto
          9 13 7 15 4 hvcurveto
          endchar
        </CharString>
        <CharString name="baht">
          723 0 31 312 25 284 31 hstem
          694 218 rmoveto
          75 -58 53 -85 11 vhcurveto
          116 25 83 82 83 vvcurveto
          68 -58 68 -116 vhcurveto
          -37 hlineto
          8 30 rlineto
          9 2 -5 6 -9 hhcurveto
          -8 -8 -6 -9 -2 hvcurveto
          -8 -30 rlineto
          -249 1 callgsubr
          242 hlineto
          -7 -30 117 callgsubr
          7 30 rlineto
          63 hlineto
          145 118 115 103 hvcurveto
          -31 333 rmoveto
          -94 -90 -89 -102 vhcurveto
          -11 hlineto
          71 284 rlineto
          31 hlineto
          81 20 -57 -44 hvcurveto
          -233 -183 rmoveto
          -103 hlineto
          61 248 rlineto
          36 9 8 0 31 hhcurveto
          65 hlineto
          105 -423 rmoveto
          -98 -86 -100 -111 vhcurveto
          -33 hlineto
          78 312 rlineto
          40 hlineto
          59 53 -30 -84 hvcurveto
          -260 -198 rmoveto
          -71 hlineto
          -17 -2 0 3 -10 hvcurveto
          10 0 5 4 14 vhcurveto
          70 280 rlineto
          104 hlineto
          endchar
        </CharString>
        <CharString name="bar">
          286 750 -20 hstem
          343 715 14 callgsubr
          endchar
        </CharString>
        <CharString name="bigcircle">
          -58 callsubr
          endchar
        </CharString>
        <CharString name="blanksymbol">
          134 callgsubr
          115 61 223 70 vstem
          469 285 rmoveto
          97 -55 60 -70 -53 -45 -43 -7 -8 vhcurveto
          43 174 86 70 92 callsubr
          -3 hvcurveto
          -59 -48 13 53 4 callsubr
          -19 -75 -100 -81 -3 -3 93 callsubr
          73 59 -70 -281 5 callsubr
        </CharString>
        <CharString name="braceleft">
          514 -250 25 462 26 487 -20 hstem
          381 -237 rmoveto
          11 3 -8 1 -9 hhcurveto
          -63 4 -43 30 -1 50 rrcurveto
          12 2 8 7 30 vhcurveto
          38 150 21 87 4 56 -43 32 -50 16 rlinecurve
          124 35 17 65 11 45 37 150 rcurveline
          25 98 4 16 40 29 45 33 42 2 27 2 6 1 6 4 1 7 rrcurveto
          13 4 -9 0 -12 hhcurveto
          -109 -102 -53 -72 -19 hvcurveto
          -49 -196 -19 -79 -5 -20 -43 -32 rlinecurve
          -45 -32 -46 -2 -18 -1 rrcurveto
          -5 -9 -3 -10 -2 hvcurveto
          -10 -3 7 -3 5 hhcurveto
          73 -3 38 -35 -52 vvcurveto
          -8 -1 -2 -9 -37 vhcurveto
          -49 -198 -10 -39 -11 -42 52 -37 rlinecurve
          -30 42 64 -4 23 hhcurveto
          12 9 0 13 3 hvcurveto
          endchar
        </CharString>
        <CharString name="braceright">
          514 237 26 hstem
          503 250 rmoveto
          10 2 -7 3 -5 hhcurveto
          -72 3 -39 35 52 vvcurveto
          8 1 2 9 37 vhcurveto
          50 198 9 39 11 42 -52 37 rlinecurve
          31 -43 -66 3 -18 hhcurveto
          -12 -10 0 -13 -4 hvcurveto
          -2 -11 8 0 8 -1 63 -4 43 -30 1 -50 rrcurveto
          -12 -2 -8 -7 -30 vhcurveto
          -38 -150 -7 -29 -12 -49 -1 -9 rlinecurve
          -4 -56 43 -32 50 -16 -125 -35 -16 -65 -12 -45 -37 -150 rcurveline
          -25 -98 -4 -16 -40 -29 -45 -33 -42 -2 -27 -2 -5 -1 -6 -4 -2 -7 rrcurveto
          -13 -3 10 0 12 hhcurveto
          105 104 52 73 19 hvcurveto
          49 196 20 79 5 20 43 32 rlinecurve
          45 32 45 2 18 1 rrcurveto
          5 9 3 10 3 hvcurveto
          endchar
        </CharString>
        <CharString name="bracketleft">
          315 -250 43 914 43 hstem
          213 -220 rmoveto
          13 -11 0 -16 vhcurveto
          -59 hlineto
          228 914 rlineto
          66 hlineto
          17 14 0 29 14 -10 0 -17 hvcurveto
          -79 hlineto
          -23 -1 0 -20 -5 hvcurveto
          -237 -948 rlineto
          -3 -13 -1 -2 -3 vvcurveto
          -14 10 0 17 vhcurveto
          79 hlineto
          17 14 0 30 hvcurveto
          endchar
        </CharString>
        <CharString name="bracketright">
          315 -250 43 914 43 hstem
          122 -230 rmoveto
          237 948 135 callgsubr
          14 -10 0 -17 vhcurveto
          -79 hlineto
          -17 -14 0 -30 -18 callsubr
          59 hlineto
          -228 -914 rlineto
          -66 hlineto
          -17 -14 0 -29 -14 10 0 17 hvcurveto
          79 hlineto
          23 1 0 20 5 hvcurveto
          endchar
        </CharString>
        <CharString name="breve">
          131 callgsubr
          39 134 18 callgsubr
          endchar
        </CharString>
        <CharString name="breve.cap">
          525 493 113 callgsubr
          hstem
          569 653 -86 callgsubr
        </CharString>
        <CharString name="breve.ts1">
          629 521 113 callgsubr
          21 -20 hstemhm
          285 25 hintmask 10110000
          679 675 rmoveto
          1 5 rlineto
          8 -4 7 -9 vhcurveto
          -11 -1 -2 -14 -3 -8 rrcurveto
          -76 -29 -96 -36 -75 hhcurveto
          -12 hlineto
          -53 5 -76 21 70 vvcurveto
          5 vlineto
          1 6 2 8 6 vvcurveto
          3 vlineto
          hintmask 11010000
          6 -2 -5 4 -6 hhcurveto
          -3 hlineto
          -11 -4 0 -19 -1 -10 rrcurveto
          -10 vlineto
          -88 84 -42 78 94 112 56 98 26 vhcurveto
          endchar
        </CharString>
        <CharString name="brokenbar">
          286 750 -20 hstem
          250 343 rmoveto
          93 372 rlineto
          14 3 6 21 -21 hhcurveto
          -22 -5 -19 -16 -4 hvcurveto
          -93 -372 rlineto
          -10 -3 10 -5 11 hhcurveto
          10 12 5 10 3 hvcurveto
          -140 -558 rmoveto
          93 372 rlineto
          10 3 -10 5 -11 hhcurveto
          -10 -12 -5 -10 -3 hvcurveto
          -93 -372 rlineto
          25 callgsubr
          endchar
        </CharString>
        <CharString name="bullet">
          787 74 304 hstem
          72 callsubr
          endchar
        </CharString>
        <CharString name="c">
          472 -11 25 403 25 hstem
          111 73 212 84 vstem
          -61 callsubr
          -88 53 -78 100 92 88 50 62 38 vhcurveto
          endchar
        </CharString>
        <CharString name="cacute">
          70 callsubr
          83 -21 192 -20 104 callsubr
          hintmask 11001100
          -61 callsubr
          -88 53 -78 100 92 88 50 62 38 vhcurveto
          hintmask 00110000
          65 565 -90 callsubr
        </CharString>
        <CharString name="caron">
          525 566 664 -68 callsubr
        </CharString>
        <CharString name="caron.cap">
          525 544 583 -73 callgsubr
        </CharString>
        <CharString name="caron.ts1">
          629 559 115 callsubr
          hstem
          669 679 rmoveto
          8 -6 9 -7 2 vhcurveto
          -2 hlineto
          -4 -5 -2 -2 -4 hvcurveto
          -27 -15 -47 -27 -49 -24 -46 -28 rlinecurve
          -2 -4 -4 -3 -4 hhcurveto
          -2 hlineto
          -10 3 -11 13 -10 7 -97 75 rcurveline
          3 -3 -5 2 -5 hhcurveto
          -2 hlineto
          -9 -1 -7 -9 -9 vvcurveto
          -14 31 -22 12 -10 vhcurveto
          -27 29 61 -68 20 hhcurveto
          7 6 6 3 6 hvcurveto
          36 23 134 84 rlineto
          10 6 18 6 13 vvcurveto
          endchar
        </CharString>
        <CharString name="ccaron">
          70 callsubr
          104 callsubr
          vstemhm
          -61 callsubr
          -88 53 -78 100 92 88 50 62 38 vhcurveto
          82 563 -68 callsubr
        </CharString>
        <CharString name="ccedilla">
          472 47 callsubr
          69 68 75 84 vstem
          -61 callsubr
          -68 31 -61 60 -25 vhcurveto
          -4 -15 -9 -40 40 callgsubr
          34 -28 16 -35 6 hvcurveto
          10 40 91 1 86 50 37 61 rlinecurve
          endchar
        </CharString>
        <CharString name="ccircumflex">
          70 callsubr
          104 callsubr
          vstemhm
          -61 callsubr
          -88 53 -78 100 92 88 50 62 38 vhcurveto
          50 435 -74 callsubr
          endchar
        </CharString>
        <CharString name="cdotaccent">
          70 callsubr
          104 108 104 callsubr
          hintmask 11011000
          -61 callsubr
          -88 53 -78 100 92 88 50 62 38 vhcurveto
          hintmask 00100000
          -17 509 -93 callsubr
        </CharString>
        <CharString name="cedilla">
          -2 callsubr
        </CharString>
        <CharString name="cedilla.dup">
          -2 callsubr
        </CharString>
        <CharString name="cent">
          49 callgsubr
          -52 -66 -71 -25 -48 -3 101 402 rcurveline
          17 -2 32 -7 14 -32 rrcurveto
          -44 -5 -2 -38 -4 vvcurveto
          -29 27 -4 7 19 31 15 45 43 -36 37 -59 5 vhcurveto
          5 20 rlineto
          8 2 -5 7 -8 hhcurveto
          -9 -8 124 callgsubr
          -5 -20 rlineto
          -123 -9 -121 -137 -140 vvcurveto
          -81 45 -73 86 -11 vhcurveto
          -5 -20 rlineto
          -8 -2 5 -7 8 hhcurveto
          9 8 7 8 2 hvcurveto
          5 19 89 3 84 49 37 60 rlinecurve
          -233 -86 rmoveto
          -41 8 -24 37 58 vvcurveto
          42 20 100 36 64 vhcurveto
          25 44 41 37 42 9 rrcurveto
          endchar
        </CharString>
        <CharString name="cent.oldstyle">
          49 callgsubr
          -73 -57 -81 -22 -46 hhcurveto
          -16 -14 4 7 -12 hvcurveto
          185 385 13 -6 13 -10 8 -18 rlinecurve
          -44 -5 -2 -38 -4 vvcurveto
          -29 27 -4 7 19 31 15 45 34 -23 30 -38 14 vhcurveto
          11 23 rlineto
          10 5 -5 9 -10 hhcurveto
          -7 -7 -5 -7 -3 hvcurveto
          -12 -24 rlineto
          1 -7 -7 1 -8 hhcurveto
          -128 -130 -142 -145 -61 25 -56 49 -29 hvcurveto
          -17 -36 rlineto
          -9 -5 5 -9 10 hhcurveto
          7 7 5 7 3 hvcurveto
          15 31 rlineto
          -6 16 18 -3 20 hhcurveto
          92 88 50 62 38 hvcurveto
          -102 316 rmoveto
          -178 -371 rlineto
          -11 17 -7 25 30 vvcurveto
          42 20 100 36 64 vhcurveto
          51 29 51 42 50 hhcurveto
          endchar
        </CharString>
        <CharString name="centigrade">
          944 -21 31 464 43 124 43 -9 31 hstemhm
          361 87 hintmask 10011000
          975 439 rmoveto
          54 217 3 12 5 13 1 12 rlinecurve
          2 vlineto
          6 -6 5 -6 -15 -40 -59 -28 -27 vhcurveto
          60 -24 -74 27 -59 hhcurveto
          -234 -192 -251 -208 -125 77 -143 175 hvcurveto
          14 hlineto
          132 9 130 110 32 127 rrcurveto
          2 6 2 6 6 vvcurveto
          7 -2 -7 3 -7 hhcurveto
          -22 -1 -30 -18 -7 hvcurveto
          -98 -40 -100 -97 -114 hhcurveto
          -55 -52 24 45 -33 hvcurveto
          -28 38 -9 47 47 vvcurveto
          28 3 28 5 26 vhcurveto
          25 135 61 139 125 70 rrcurveto
          22 39 44 16 45 hhcurveto
          113 38 -105 -86 hvcurveto
          -18 -5 -15 -18 vvcurveto
          -10 8 -4 9 vhcurveto
          4 hlineto
          10 2 1 10 2 8 rrcurveto
          -592 160 rmoveto
          54 -42 32 -46 vhcurveto
          hintmask 01100000
          -3 -4 -1 -3 hhcurveto
          -60 -7 -57 -55 -63 vvcurveto
          -41 27 -44 61 vhcurveto
          9 hlineto
          61 7 57 54 64 vvcurveto
          -44 -7 rmoveto
          -38 -5 -39 -37 -39 hhcurveto
          -25 -20 16 32 hvcurveto
          39 6 39 37 39 hhcurveto
          23 22 -14 -28 -3 -1 -4 0 hvcurveto
          endchar
        </CharString>
        <CharString name="circumflex">
          525 534 536 -74 callsubr
          endchar
        </CharString>
        <CharString name="circumflex.cap">
          525 524 502 -102 callsubr
          endchar
        </CharString>
        <CharString name="circumflex.dup">
          525 534 536 -74 callsubr
          endchar
        </CharString>
        <CharString name="colon">
          315 0 108 215 108 hstemhm
          115 111 -30 111 hintmask 11010000
          74 callgsubr
          -81 -323 rmoveto
          23 -17 21 -28 vhcurveto
          hintmask 10100000
          -36 -30 -34 -30 -23 17 -21 28 36 30 34 30 hvcurveto
          endchar
        </CharString>
        <CharString name="colonmonetary">
          735 151 87 vstem
          827 680 rmoveto
          1 4 1 5 5 91 callsubr
          -6 vhcurveto
          -75 -87 -39 64 -54 19 -48 3 rlinecurve
          2 9 rlineto
          9 2 -5 6 -8 hhcurveto
          -8 -9 -6 -9 -2 hvcurveto
          -2 -8 rlineto
          -206 -10 -208 -220 -228 vvcurveto
          -151 95 -108 138 -9 vhcurveto
          -2 -9 rlineto
          -8 -3 5 -7 9 hhcurveto
          8 8 7 8 3 hvcurveto
          2 8 91 4 95 52 67 97 rlinecurve
          33 47 16 54 7 109 callsubr
          -7 -7 0 -8 -3 vhcurveto
          -56 -182 -134 -49 -71 -3 167 665 rcurveline
          98 -1 48 -82 -104 -34 -4 -16 -6 vvcurveto
          -12 11 0 6 14 1 4 15 4 vhcurveto
          -374 -428 rmoveto
          -78 10 -76 58 133 vvcurveto
          66 27 160 85 107 vhcurveto
          62 78 77 41 68 9 rrcurveto
          endchar
        </CharString>
        <CharString name="comma">
          315 -173 -21 194 108 hstem
          115 113 vstem
          228 47 rmoveto
          31 -11 30 -36 -41 -25 -37 -28 -26 18 -17 27 22 8 6 6 8 vhcurveto
          -19 -84 -49 -57 -47 -39 -6 -6 -1 -1 -1 -2 -2 -5 rcurveline
          -6 2 5 -6 6 hhcurveto
          18 124 122 119 hvcurveto
          endchar
        </CharString>
        <CharString name="copyleft">
          -58 callsubr
          -134 -55 rmoveto
          135 68 -61 131 -123 hhcurveto
          -30 -41 -9 -41 -46 hvcurveto
          -18 50 rlineto
          -4 -7 0 -6 -3 hvcurveto
          -1 -3 -1 -3 -1 -2 -35 -141 rcurveline
          -9 -2 0 -2 8 hhcurveto
          3 7 0 7 3 hvcurveto
          2 3 2 10 10 19 rrcurveto
          62 31 52 47 58 hhcurveto
          43 41 -24 -51 15 hvcurveto
          19 -63 -31 -93 -19 -38 rrcurveto
          -85 -43 -70 -33 -49 hhcurveto
          -40 -69 27 109 21 hvcurveto
          5 1 -4 0 -4 hhcurveto
          -4 -6 0 -7 -4 hvcurveto
          -2 -4 -6 -32 5 -27 rrcurveto
          -58 12 42 -31 55 hhcurveto
          86 94 65 92 46 hvcurveto
          endchar
        </CharString>
        <CharString name="copyright">
          -58 callsubr
          -98 197 rmoveto
          2 146 callgsubr
          6 -7 0 -4 vhcurveto
          -43 -50 rlineto
          41 -25 -37 9 -30 hhcurveto
          -123 -126 -131 -135 -92 61 -65 86 55 58 31 58 40 hvcurveto
          20 27 9 32 4 vvcurveto
          7 -6 0 -4 -4 -4 0 -5 -2 vhcurveto
          -109 -34 -81 -27 -40 hhcurveto
          -50 -53 33 85 38 15 93 50 63 hvcurveto
          51 41 53 24 43 hhcurveto
          59 28 -47 -62 hvcurveto
          -19 -3 -10 -3 vvcurveto
          -7 7 0 3 8 1 2 9 2 vhcurveto
          endchar
        </CharString>
        <CharString name="copyright.alt">
          646 -107 42 561 42 hstem
          646 215 rmoveto
          198 -125 125 -198 -198 -125 -125 -198 -198 125 -124 198 198 125 124 198 vhcurveto
          -42 hmoveto
          -172 -109 -108 -172 -173 -108 108 172 173 108 108 173 172 109 -108 -173 vhcurveto
          -94 61 rmoveto
          38 152 rlineto
          1 3 0 3 3 vvcurveto
          7 -7 0 -4 vhcurveto
          -47 -55 rlineto
          45 -27 -40 10 -32 hhcurveto
          -133 -137 -142 -146 -100 66 -70 93 60 63 34 63 43 hvcurveto
          21 29 10 34 5 vvcurveto
          7 -6 0 -5 -4 -5 0 -5 -1 vhcurveto
          -118 -37 -88 -29 -44 hhcurveto
          -53 -58 35 92 42 17 100 53 68 hvcurveto
          56 45 57 26 47 hhcurveto
          63 30 -52 -66 hvcurveto
          -22 -2 -10 -3 vvcurveto
          -8 7 0 4 8 1 3 9 3 vhcurveto
          endchar
        </CharString>
        <CharString name="currency">
          787 51 42 314 42 hstem
          628 33 rmoveto
          14 11 -6 11 -7 9 -47 62 rcurveline
          35 34 27 43 11 47 12 48 -5 43 -20 35 78 62 rcurveline
          12 9 18 15 -17 11 -16 11 -18 -15 -12 -9 -68 -54 rcurveline
          27 -27 -39 16 -47 hhcurveto
          -47 -47 -16 -27 -41 hvcurveto
          -51 67 -8 6 -16 0 -12 -10 rlinecurve
          -15 -12 9 -12 5 -5 49 -65 rcurveline
          -36 -35 -28 -43 -11 -47 -12 -47 5 -43 19 -34 -77 -62 rcurveline
          -13 -10 -18 -14 16 -12 17 -11 16 13 15 12 67 53 rcurveline
          -28 27 40 -16 47 hhcurveto
          47 48 16 27 41 hvcurveto
          50 -65 8 -6 16 0 12 10 rlinecurve
          -15 217 rmoveto
          -87 -21 -88 -70 -87 hhcurveto
          -87 -53 70 87 22 hvcurveto
          87 21 88 70 87 hhcurveto
          87 53 -70 -87 -22 hvcurveto
          endchar
        </CharString>
        <CharString name="cwm">
          0 endchar
        </CharString>
        <CharString name="cwmascender">
          0 endchar
        </CharString>
        <CharString name="cwmcapital">
          0 endchar
        </CharString>
        <CharString name="d">
          144 callgsubr
          hstem
          106 callgsubr
          vstem
          -55 callsubr
          endchar
        </CharString>
        <CharString name="dagger">
          457 395 71 239 -20 hstem
          508 430 rmoveto
          11 2 1 25 -33 hhcurveto
          -17 -27 -6 -6 -22 hvcurveto
          -32 -8 -15 -3 -14 -1 4 18 7 22 28 71 10 21 21 53 9 35 rrcurveto
          8 2 8 35 -35 hhcurveto
          -36 -8 -34 -9 -2 hvcurveto
          -5 -20 -6 -33 -5 -56 -6 -71 -5 -22 -4 -18 -14 1 -13 3 -28 8 rrcurveto
          6 -20 -23 6 -17 hhcurveto
          -36 -11 86 callsubr
          15 3 14 1 -8 -23 -2 -8 -24 -53 -25 -56 -3 -11 -12 -49 -40 -160 -32 -178 -11 -72 rrcurveto
          -19 -2 -1 -6 12 hhcurveto
          4 9 0 12 5 hvcurveto
          50 141 42 141 35 141 12 50 3 10 3 56 2 53 2 8 4 23 14 -1 13 113 callsubr
          2 hvcurveto
          endchar
        </CharString>
        <CharString name="daggerdbl">
          457 -13 70 385 71 192 -20 hstem
          519 477 rmoveto
          11 3 0 25 -33 hhcurveto
          -17 -26 -6 -6 -23 hvcurveto
          -32 -8 -14 -3 -15 -1 5 16 6 17 19 43 21 46 12 31 5 22 rrcurveto
          41 10 -30 0 -5 hhcurveto
          -14 -23 -6 -35 -9 hvcurveto
          -7 -29 -2 -35 -2 -32 -3 -48 -2 -12 -4 -19 -13 1 -14 3 -28 8 rrcurveto
          6 -19 -24 6 -17 hhcurveto
          -36 -10 86 callsubr
          14 3 15 1 -5 -16 -6 -17 -19 -43 -21 -46 -12 -31 -5 -22 116 callgsubr
          7 29 2 35 2 32 3 48 2 12 4 19 13 -1 14 113 callsubr
          1 hvcurveto
          -113 -455 rmoveto
          20 5 -12 15 -20 hhcurveto
          -25 -20 -5 -10 -38 hvcurveto
          -25 -6 -7 0 -15 -2 5 18 5 17 26 56 15 33 11 31 5 19 rrcurveto
          41 10 -30 0 -5 hhcurveto
          -14 -23 -6 -35 -9 hvcurveto
          -5 -21 -4 -26 -3 -56 -1 -34 -2 -16 -4 -21 -21 2 -2 0 -32 10 rrcurveto
          8 -27 -18 3 -19 hhcurveto
          -24 -16 -17 -18 -4 hvcurveto
          -19 -5 10 -16 22 hhcurveto
          21 23 4 9 35 hvcurveto
          28 8 4 0 19 2 -6 -18 -5 -17 -26 -56 -14 -33 -12 -31 -5 -19 116 callgsubr
          5 21 4 26 3 56 1 34 2 16 5 21 20 -2 2 0 33 -10 rrcurveto
          -7 22 20 -4 21 hhcurveto
          22 18 16 19 5 hvcurveto
          endchar
        </CharString>
        <CharString name="dblbracketleft">
          433 -249 43 914 43 hstem
          330 -220 rmoveto
          7 -3 8 -14 vhcurveto
          -5 -5 -1 -5 hhcurveto
          -54 121 callgsubr
          15 9 5 24 9 -5 5 -12 hvcurveto
          -216 hlineto
          -14 -2 -10 -12 -4 hvcurveto
          -238 -955 rlineto
          -1 -3 -1 -3 -3 vvcurveto
          -12 11 -2 10 vhcurveto
          212 hlineto
          18 3 15 14 hvcurveto
          -130 14 rmoveto
          -73 121 callgsubr
          -206 -825 rlineto
          endchar
        </CharString>
        <CharString name="dblbracketright">
          433 -249 43 914 43 hstem
          469 685 rmoveto
          3 16 9 21 14 vvcurveto
          11 -9 4 -9 vhcurveto
          -214 hlineto
          -19 -2 -16 -14 -7 4 -7 13 hvcurveto
          5 5 1 5 hhcurveto
          53 hlineto
          -5 -30 -10 -30 -7 -29 -197 -789 rcurveline
          -17 -5 1 -20 -16 -4 -6 1 -3 hhcurveto
          -50 hlineto
          -8 -4 -1 -5 -5 hvcurveto
          -3 -9 rlineto
          -1 -4 -2 -5 -5 vvcurveto
          -12 10 -2 9 vhcurveto
          212 hlineto
          20 0 16 16 4 hvcurveto
          -27 67 rmoveto
          -16 -54 -20 -2 rlineto
          -51 121 callgsubr
          endchar
        </CharString>
        <CharString name="dblgrave.ts1">
          525 526 109 callgsubr
          356 522 rmoveto
          17 callgsubr
          157 hmoveto
          17 callgsubr
          endchar
        </CharString>
        <CharString name="dblverticalbar">
          412 750 -20 hstem
          343 715 14 callgsubr
          359 930 14 callgsubr
          endchar
        </CharString>
        <CharString name="dcaron">
          -35 callgsubr
          47 -21 145 81 -42 43 hstemhm
          106 callgsubr
          hintmask 10001010
          551 -10 callsubr
          139 556 rlineto
          -65 callsubr
          vhcurveto
          hintmask 11110100
          -6 138 callsubr
          -57 -227 rlineto
          20 -10 -26 36 -50 hhcurveto
          -112 -121 -145 -151 -102 59 -55 66 60 44 48 21 19 hvcurveto
          -44 11 35 -25 41 hhcurveto
          46 21 40 17 8 hvcurveto
          18 37 13 57 3 vvcurveto
          -187 -18 rmoveto
          -34 -9 -63 -77 -54 hhcurveto
          -55 -3 74 15 51 30 110 15 38 hvcurveto
          63 26 48 52 44 hhcurveto
          61 9 -84 -7 -5 0 -1 -3 -10 hvcurveto
          274 338 rmoveto
          -95 callgsubr
        </CharString>
        <CharString name="dcroat">
          -35 callgsubr
          91 30 89 43 hstem
          106 callgsubr
          vstem
          551 -10 callsubr
          107 427 rlineto
          46 9 callgsubr
          -47 hlineto
          25 99 rlineto
          -65 callsubr
          -6 138 callsubr
          -13 -50 rlineto
          -122 30 callsubr
          123 hlineto
          -37 -147 rlineto
          20 -10 -26 36 -50 hhcurveto
          -112 -121 -145 -151 -102 59 -55 66 60 44 48 21 19 hvcurveto
          -44 11 35 -25 41 hhcurveto
          46 21 40 17 8 hvcurveto
          18 37 13 57 3 vvcurveto
          -187 -18 rmoveto
          -34 -9 -63 -77 -54 hhcurveto
          -55 -3 74 15 51 30 110 15 38 hvcurveto
          63 26 48 52 44 hhcurveto
          61 9 -84 -7 -5 0 -1 -3 -10 hvcurveto
          endchar
        </CharString>
        <CharString name="ddotbelow">
          82 callgsubr
          210 43 hstemhm
          106 callgsubr
          hintmask 01111100
          -55 callsubr
          hintmask 10000000
          -129 -446 -93 callsubr
        </CharString>
        <CharString name="degree">
          394 421 42 178 42 hstem
          466 552 rmoveto
          73 18 -44 58 -72 hhcurveto
          -73 -73 -58 -73 -18 hvcurveto
          -72 -18 44 -59 72 hhcurveto
          72 74 59 72 18 hvcurveto
          -42 hmoveto
          -49 -12 -50 -40 -49 hhcurveto
          -50 -30 40 49 13 hvcurveto
          49 12 50 40 49 hhcurveto
          49 30 -40 -49 -12 hvcurveto
          endchar
        </CharString>
        <CharString name="diameter">
          787 -42 42 502 42 hstem
          844 544 rmoveto
          12 3 -7 9 -12 hhcurveto
          -5 -6 -2 -4 -5 hvcurveto
          -109 -87 rlineto
          45 -40 -60 27 -74 hhcurveto
          -162 -164 -131 -162 -40 hvcurveto
          -19 -73 11 -67 31 -52 -109 -87 rcurveline
          -5 -4 -4 -5 -1 -6 rrcurveto
          -12 -3 7 -9 11 hhcurveto
          6 6 2 4 5 hvcurveto
          109 88 rlineto
          -45 41 60 -27 74 hhcurveto
          161 164 131 162 41 hvcurveto
          18 73 -10 67 -31 51 108 87 rcurveline
          5 4 4 5 1 6 rrcurveto
          -137 -293 rmoveto
          -139 -35 -140 -112 -139 hhcurveto
          -62 -51 22 37 -34 hvcurveto
          442 354 26 -44 8 -56 -15 -62 rlinecurve
          -41 191 rmoveto
          -443 -353 -26 44 -8 56 16 62 rlinecurve
          139 34 141 112 139 hhcurveto
          61 52 -22 -38 34 hvcurveto
          endchar
        </CharString>
        <CharString name="died">
          525 -4 -21 364 42 -37 42 217 -20 hstemhm
          hintmask 00100000
          577 373 rmoveto
          10 -10 3 -8 vhcurveto
          hintmask 01010000
          -38 -39 -4 -1 -38 hvcurveto
          -63 hlineto
          22 66 16 68 22 66 rrcurveto
          1 3 146 callgsubr
          10 -10 3 -9 vhcurveto
          -31 hlineto
          -26 0 -63 -27 -5 hvcurveto
          -19 -91 -4 -14 -4 -13 -2 -14 rlinecurve
          hintmask 00100000
          -53 -53 5 -53 hhcurveto
          -3 hlineto
          -13 -2 -4 -23 -8 vvcurveto
          hintmask 01000000
          -8 5 -4 8 -2 vhcurveto
          6 hlineto
          hintmask 10100000
          50 50 5 50 hhcurveto
          -7 -34 -10 -33 -9 -33 -67 -237 rcurveline
          -2 -5 -3 -7 -6 vvcurveto
          -12 11 -2 9 vhcurveto
          27 hlineto
          28 -2 39 21 4 hvcurveto
          21 96 32 142 6 24 7 24 4 24 rlinecurve
          -1 7 6 0 7 hhcurveto
          21 hlineto
          113 -3 rlineto
          hintmask 01000000
          -1 9 10 -1 9 hhcurveto
          6 hlineto
          14 2 3 27 5 vvcurveto
          endchar
        </CharString>
        <CharString name="dieresis">
          525 551 98 hstem
          -36 callgsubr
          endchar
        </CharString>
        <CharString name="dieresis.cap">
          525 483 98 hstem
          -9 callsubr
          endchar
        </CharString>
        <CharString name="dieresis.dup">
          525 551 98 hstem
          -36 callgsubr
          endchar
        </CharString>
        <CharString name="dieresis.ts1">
          525 569 102 hstem
          377 629 rmoveto
          21 -16 21 -25 -3 -3 0 -1 -3 vhcurveto
          -28 -3 -26 -26 -29 vvcurveto
          -21 15 -22 25 32 32 25 35 vhcurveto
          184 hmoveto
          23 -18 19 -24 vhcurveto
          -3 -2 -1 -3 hhcurveto
          -29 -3 -25 -25 -31 vvcurveto
          -5 vlineto
          -22 3 17 -15 21 hhcurveto
          31 32 27 33 hvcurveto
          endchar
        </CharString>
        <CharString name="discount">
          525 22 -21 750 -20 hstem
          304 129 vstem
          628 729 rmoveto
          134 callsubr
          -14 -3 -13 -23 -8 -13 -386 -543 rcurveline
          -91 -129 rlineto
          -3 -5 -3 -5 -6 vvcurveto
          -2 vlineto
          -11 10 -9 11 17 14 26 13 8 vhcurveto
          456 643 rlineto
          9 14 19 17 15 vvcurveto
          -195 -643 rmoveto
          -39 -38 -33 -38 -28 -25 22 32 36 32 30 34 5 vhcurveto
          1 3 4 0 3 hhcurveto
          28 25 -22 -32 hvcurveto
          -26 600 rmoveto
          -39 -36 -34 -38 -27 -27 20 32 38 30 30 36 5 vhcurveto
          3 3 1 3 hhcurveto
          27 23 -20 -28 3 hvcurveto
          endchar
        </CharString>
        <CharString name="divide">
          787 36 108 85 43 86 108 hstem
          771 250 62 callgsubr
          -219 172 24 callsubr
          -81 -322 24 callsubr
          endchar
        </CharString>
        <CharString name="divorced">
          525 -84 -21 22 -21 140 47 336 47 140 -20 21 -20 hstemhm
          -100 45 266 38 151 38 hintmask 0011011110000000
          249 305 rmoveto
          11 vlineto
          70 -35 80 -90 vhcurveto
          -9 hlineto
          -119 -13 -91 -136 -5 -110 rrcurveto
          -17 vlineto
          -62 26 -92 100 vhcurveto
          9 hlineto
          119 10 89 139 6 120 rrcurveto
          495 -45 rmoveto
          3 15 1 15 2 15 rrcurveto
          73 -31 88 -98 vhcurveto
          -9 hlineto
          -120 -13 -84 -137 -8 -118 rrcurveto
          -13 vlineto
          -71 37 -78 86 vhcurveto
          9 hlineto
          108 10 81 110 23 104 rrcurveto
          -301 332 rmoveto
          3 vlineto
          10 -14 2 -9 vhcurveto
          hintmask 1000100000000000
          -6 -6 -1 -6 hhcurveto
          -9 111 callgsubr
          -2 hvcurveto
          -15 -5 -13 -110 -13 -57 -35 -162 -48 -158 -43 -159 -9 -30 rcurveline
          -2 -4 -1 -5 -5 vvcurveto
          -3 vlineto
          -10 14 -2 7 vhcurveto
          hintmask 0111001110000000
          6 6 1 5 hhcurveto
          9 hlineto
          24 0 25 18 2 hvcurveto
          35 166 36 168 47 163 33 111 rcurveline
          4 14 9 18 13 vvcurveto
          -233 -291 rmoveto
          -93 -9 -59 -125 -111 hhcurveto
          -42 -44 30 72 92 66 142 111 62 27 -53 -49 -5 0 -6 -1 -5 hvcurveto
          493 10 rmoveto
          -7 -76 -28 -85 -68 -43 rrcurveto
          -14 -22 -26 -10 -25 hhcurveto
          -44 -45 33 73 hvcurveto
          8 vlineto
          5 77 37 85 70 40 rrcurveto
          12 20 24 8 24 hhcurveto
          44 42 -33 -64 -4 0 -3 -1 -4 hvcurveto
          endchar
        </CharString>
        <CharString name="dlinebelow">
          525 -163 34 118 89 callsubr
          106 callgsubr
          hintmask 01111100
          -55 callsubr
          hintmask 10000000
          -13 -452 -79 callgsubr
        </CharString>
        <CharString name="dollar">
          514 -35 -21 47 30 115 93 250 93 178 -20 hstem
          510 228 rmoveto
          12 140 -112 26 -37 9 67 271 rcurveline
          123 -6 1 -80 -18 vvcurveto
          1 -4 -4 1 -5 hhcurveto
          -27 -28 -22 -31 -3 hvcurveto
          -25 -2 17 -15 23 hhcurveto
          55 5 58 21 1 hvcurveto
          9 104 -75 38 -77 4 10 46 rcurveline
          -31 hlineto
          -10 -45 -124 -9 -105 -105 -9 -107 rlinecurve
          -4 -54 21 -37 17 -20 33 -37 32 -7 42 -10 -75 -299 rcurveline
          -5 -50 2 29 -34 hvcurveto
          -33 29 0 43 15 vvcurveto
          -1 4 3 -1 8 hhcurveto
          28 27 23 30 3 hvcurveto
          27 2 -19 13 -21 hhcurveto
          -56 -5 -62 -22 -2 hvcurveto
          -8 -92 56 -58 94 -5 -11 -46 rcurveline
          31 hlineto
          8 30 4 14 1 1 2 1 rlinecurve
          154 22 75 126 8 90 rrcurveto
          -101 445 rmoveto
          -66 -262 -24 5 -85 18 7 88 rlinecurve
          6 72 73 69 89 10 rrcurveto
          41 -483 rmoveto
          -6 -75 -73 -82 -93 -12 72 290 rcurveline
          25 -6 83 -19 -8 -96 rrcurveto
          endchar
        </CharString>
        <CharString name="dollar.oldstyle">
          629 -8 29 123 80 262 80 109 31 45 -20 hstemhm
          117 35 51 55 289 55 -36 34 53 34 hintmask 1101111010000000
          687 569 rmoveto
          87 -67 29 -61 15 vhcurveto
          0 7 25 11 vvcurveto
          10 -5 5 -9 -17 -2 -20 -26 -5 vhcurveto
          -6 -15 1 -5 hhcurveto
          -17 -17 0 -2 -17 hvcurveto
          3 10 5 13 9 vvcurveto
          10 -7 5 -8 -19 -2 -23 -30 -7 vhcurveto
          -94 -12 -119 -96 -105 vvcurveto
          -73 57 -57 68 -15 vhcurveto
          -78 -312 rlineto
          -58 17 -40 27 72 vvcurveto
          28 24 17 31 17 -13 15 -20 -46 -8 -55 -35 -73 49 -40 59 -20 hvcurveto
          5 -1 11 -4 0 vvcurveto
          -7 -22 -1 -3 -11 vvcurveto
          -9 7 -6 9 18 -1 18 29 7 vhcurveto
          77 hlineto
          -2 -10 -5 -11 -10 vvcurveto
          -3 vlineto
          -8 6 -5 8 20 7 51 0 vhcurveto
          19 6 20 8 16 7 rrcurveto
          hintmask 0010000101000000
          84 38 79 78 99 vvcurveto
          63 -41 66 -81 23 vhcurveto
          71 285 rlineto
          51 -12 51 -24 -67 vvcurveto
          hintmask 0011001011000000
          -26 -27 -16 -33 hvcurveto
          -20 1 17 -11 18 hhcurveto
          45 6 53 30 hvcurveto
          -166 105 rmoveto
          -71 -282 -71 21 64 259 rlineto
          1 16 13 2 19 hhcurveto
          13 17 -1 0 hvcurveto
          -172 -253 rmoveto
          -36 15 -55 20 63 vvcurveto
          90 111 40 40 16 vhcurveto
          138 -468 rmoveto
          -82 -89 -66 -65 -16 vhcurveto
          67 269 rlineto
          hintmask 1000000100000000
          47 -16 40 -36 -53 vvcurveto
          -117 114 rmoveto
          -72 -286 rlineto
          0 -2 -4 -43 -11 -10 1 1 -11 vhcurveto
          77 308 rlineto
          endchar
        </CharString>
        <CharString name="dong">
          525 -30 30 654 30 hstem
          532 171 rmoveto
          11 -12 0 -4 -14 -1 -4 -18 -4 vhcurveto
          -63 -16 -17 -49 -32 hhcurveto
          -18 -6 15 24 8 3 21 4 19 hvcurveto
          102 406 rlineto
          44 hlineto
          7 9 6 8 31 callsubr
          -44 hlineto
          23 94 rlineto
          3 12 1 2 3 vvcurveto
          12 -8 2 -17 -2 vhcurveto
          -98 -9 rlineto
          -15 -9 -1 -17 -12 9 0 17 44 0 -8 -8 -6 0 -2 -4 -13 hvcurveto
          -12 -47 rlineto
          -116 hlineto
          -8 -8 124 callgsubr
          -8 -2 5 -6 8 hhcurveto
          116 hlineto
          -35 -140 rlineto
          19 -9 -25 35 -47 hhcurveto
          -107 -115 -138 -144 -97 56 -52 63 57 42 46 20 18 hvcurveto
          -42 10 33 -24 39 hhcurveto
          44 20 38 16 8 hvcurveto
          17 36 12 54 3 vvcurveto
          -46 -186 rmoveto
          8 2 -5 7 -8 hhcurveto
          -399 hlineto
          -8 -9 124 callgsubr
          -8 -2 5 -7 9 hhcurveto
          398 hlineto
          9 8 7 8 2 hvcurveto
          -132 168 rmoveto
          -32 -8 -60 -73 -51 hhcurveto
          -52 -3 70 15 48 28 104 14 37 hvcurveto
          59 25 46 50 42 hhcurveto
          57 9 -80 -7 -4 0 -1 -3 -10 hvcurveto
          endchar
        </CharString>
        <CharString name="dotaccent">
          315 546 108 hstem
          362 610 -93 callsubr
        </CharString>
        <CharString name="dotaccent.alt">
          315 503 108 hstem
          351 567 -93 callsubr
        </CharString>
        <CharString name="dotaccent.cap">
          315 483 108 hstem
          346 547 -93 callsubr
        </CharString>
        <CharString name="dotlessi">
          28 callgsubr
          hstem
          130 60 41 61 vstem
          341 143 -100 callgsubr
          endchar
        </CharString>
        <CharString name="dotlessj">
          56 callsubr
          hstem
          -35 82 216 64 vstem
          -71 callgsubr
          endchar
        </CharString>
        <CharString name="e">
          -16 callsubr
          hstem
          11 callsubr
          vstem
          -101 callgsubr
          endchar
        </CharString>
        <CharString name="eacute">
          -16 callsubr
          83 -21 192 -20 12 callsubr
          hintmask 11100110
          -101 callgsubr
          hintmask 00011000
          90 309 -90 callsubr
        </CharString>
        <CharString name="ebreve">
          -16 callsubr
          72 39 134 -20 12 callsubr
          hintmask 11100110
          -101 callgsubr
          hintmask 00011000
          115 317 -86 callgsubr
        </CharString>
        <CharString name="ecaron">
          -16 callsubr
          12 callsubr
          vstemhm
          -101 callgsubr
          107 307 -68 callsubr
        </CharString>
        <CharString name="ecircumflex">
          -16 callsubr
          12 callsubr
          vstemhm
          -101 callgsubr
          75 179 -74 callsubr
          endchar
        </CharString>
        <CharString name="ecircumflexacute">
          -16 callsubr
          374 -20 12 callsubr
          hintmask 11101100
          -101 callgsubr
          hintmask 00010000
          73 179 -102 callsubr
          30 245 -103 callgsubr
        </CharString>
        <CharString name="ecircumflexdotbelow">
          472 -200 108 81 -14 callgsubr
          12 callsubr
          hintmask 01111100
          -101 callgsubr
          75 179 -74 callsubr
          hintmask 10000000
          -253 -672 -93 callsubr
        </CharString>
        <CharString name="ecircumflexgrave">
          -16 callsubr
          12 callsubr
          vstemhm
          -101 callgsubr
          73 179 -75 callsubr
        </CharString>
        <CharString name="ecircumflexhookabove">
          -16 callsubr
          402 -20 12 callsubr
          hintmask 11101100
          -101 callgsubr
          hintmask 00010000
          73 179 -102 callsubr
          108 239 -107 callsubr
        </CharString>
        <CharString name="ecircumflextilde">
          -16 callsubr
          234 38 28 38 12 callsubr
          hintmask 11100110
          -101 callgsubr
          hintmask 00011010
          73 179 -102 callsubr
          78 231 -106 callsubr
        </CharString>
        <CharString name="edblgrave">
          -16 callsubr
          84 -21 191 -20 12 callsubr
          hintmask 11100110
          -101 callgsubr
          hintmask 00011000
          55 164 -100 callsubr
        </CharString>
        <CharString name="edieresis">
          -16 callsubr
          109 98 12 callsubr
          hintmask 11101100
          -101 callgsubr
          hintmask 00010000
          -87 252 -53 callsubr
        </CharString>
        <CharString name="edotaccent">
          -16 callsubr
          104 108 12 callsubr
          hintmask 11101100
          -101 callgsubr
          hintmask 00010000
          8 253 -93 callsubr
        </CharString>
        <CharString name="edotbelow">
          472 -200 108 81 -14 callgsubr
          12 callsubr
          hintmask 01111100
          -101 callgsubr
          hintmask 10000000
          -178 -493 -93 callsubr
        </CharString>
        <CharString name="egrave">
          -16 callsubr
          83 -21 192 -20 12 callsubr
          hintmask 11100110
          -101 callgsubr
          hintmask 00011000
          -6 165 -65 callgsubr
        </CharString>
        <CharString name="ehookabove">
          -16 callsubr
          75 -21 208 -20 12 callsubr
          hintmask 11100110
          -101 callgsubr
          hintmask 00011000
          55 278 -107 callsubr
        </CharString>
        <CharString name="eight">
          525 -22 28 635 25 hstem
          98 54 61 57 173 63 11 48 vstem
          506 -61 callgsubr
        </CharString>
        <CharString name="eight.oldstyle">
          535 -22 28 635 25 hstem
          104 54 61 57 173 63 11 48 vstem
          512 -61 callgsubr
        </CharString>
        <CharString name="eight.prop">
          535 -22 28 635 25 hstem
          104 54 61 57 173 63 11 48 vstem
          512 -61 callgsubr
        </CharString>
        <CharString name="eight.taboldstyle">
          525 -22 28 635 25 hstem
          98 54 61 57 173 63 11 48 vstem
          506 -61 callgsubr
        </CharString>
        <CharString name="ellipsis">
          700 0 108 hstem
          226 64 24 callsubr
          193 hmoveto
          -3 callsubr
          193 hmoveto
          -3 callsubr
          endchar
        </CharString>
        <CharString name="emacron">
          -16 callsubr
          141 34 12 callsubr
          hintmask 11101100
          -101 callgsubr
          hintmask 00010000
          124 247 -79 callgsubr
        </CharString>
        <CharString name="emdash">
          1049 254 25 hstem
          119 943 vstem
          1062 266 3 callgsubr
          vhcurveto
          -890 144 callsubr
          890 hlineto
          15 11 0 12 hvcurveto
          endchar
        </CharString>
        <CharString name="emdash.alt">
          734 254 25 hstem
          746 267 rmoveto
          10 -8 2 -8 vhcurveto
          -595 111 callgsubr
          -2 hvcurveto
          -5 -2 -3 -4 -5 vvcurveto
          -6 4 -6 7 -1 vhcurveto
          599 hlineto
          9 8 3 10 hvcurveto
          endchar
        </CharString>
        <CharString name="endash">
          525 254 25 hstem
          93 471 vstem
          564 266 3 callgsubr
          vhcurveto
          -418 144 callsubr
          418 hlineto
          15 11 0 12 hvcurveto
          endchar
        </CharString>
        <CharString name="eng">
          512 -216 68 565 25 hstem
          466 65 vstem
          531 336 rmoveto
          -84 callgsubr
          -74 -42 -76 -19 -76 hvcurveto
          -27 -106 -33 -133 -41 -50 rrcurveto
          9 -4 -8 6 -12 hhcurveto
          -18 -19 -16 -18 -5 hvcurveto
          -19 -5 12 -15 18 hhcurveto
          125 46 184 158 39 hvcurveto
          18 70 40 71 69 vvcurveto
          endchar
        </CharString>
        <CharString name="eogonek">
          472 -211 47 153 -14 callgsubr
          hstem
          11 callsubr
          vstem
          -24 callsubr
          endchar
        </CharString>
        <CharString name="eogonekacute">
          472 -211 47 153 -14 callgsubr
          83 -21 192 -20 12 callsubr
          hintmask 11110011
          -24 callsubr
          hintmask 00001100
          90 309 -90 callsubr
        </CharString>
        <CharString name="equal">
          787 127 43 161 43 hstem
          796 352 62 callgsubr
          -51 -203 rmoveto
          21 -18 0 -15 vhcurveto
          -564 143 callgsubr
          555 hlineto
          16 21 0 22 hvcurveto
          endchar
        </CharString>
        <CharString name="ereversed">
          -16 callsubr
          hstem
          489 167 rmoveto
          181 91 -103 94 -102 hhcurveto
          -68 -59 -41 -45 -22 hvcurveto
          -11 -21 -19 -56 56 -28 rrcurveto
          -14 29 48 -8 75 hhcurveto
          29 hlineto
          -16 -64 -16 -32 -4 -8 rrcurveto
          -35 -17 -48 -76 -68 hhcurveto
          -46 -70 22 73 -21 hvcurveto
          9 -2 -1 2 -5 hhcurveto
          -6 -12 -6 -13 -11 hvcurveto
          -62 7 63 -50 92 hhcurveto
          85 96 66 112 56 hvcurveto
          -49 87 rmoveto
          -65 -159 0 103 51 hvcurveto
          30 15 36 30 44 hhcurveto
          14 98 -3 -160 -34 hvcurveto
          endchar
        </CharString>
        <CharString name="estimated">
          689 -10 28 326 24 308 25 hstem
          126 87 450 80 vstem
          665 121 rmoveto
          8 -7 5 -8 -15 -6 -15 -9 -9 vhcurveto
          -73 -57 -104 -19 -85 hhcurveto
          -38 -34 14 25 -29 hvcurveto
          -45 39 -15 59 59 vvcurveto
          45 10 42 8 43 vhcurveto
          475 hlineto
          36 1 129 14 47 -10 48 -26 39 hvcurveto
          57 -39 -70 23 -68 hhcurveto
          -216 -188 -236 -211 -128 74 -136 176 100 111 27 81 66 hvcurveto
          4 6 8 9 8 vvcurveto
          -21 247 rmoveto
          -406 hlineto
          127 25 117 181 151 hhcurveto
          81 51 -62 -107 -27 -2 -28 -5 -26 hvcurveto
          -4 -19 -6 -20 -2 -19 rrcurveto
          endchar
        </CharString>
        <CharString name="eth">
          525 -11 28 405 25 hstem
          98 73 287 90 vstem
          526 216 rmoveto
          12 49 10 38 58 vvcurveto
          106 -40 91 -70 62 vhcurveto
          79 39 rlineto
          9 5 3 7 7 vvcurveto
          7 -4 7 -9 vhcurveto
          0 -6 -1 -3 -2 vhcurveto
          -95 -48 -33 24 -38 17 -43 11 rlinecurve
          -8 3 -9 -10 -8 vvcurveto
          -4 2 -4 5 -3 vhcurveto
          28 -14 24 -17 22 -20 -84 -43 rcurveline
          -9 -4 -4 -7 -7 vvcurveto
          -7 5 -7 8 3 3 1 2 3 vhcurveto
          97 49 47 -54 28 -69 7 -78 rlinecurve
          34 -20 -32 21 -42 hhcurveto
          -134 -140 -147 -145 -106 74 -60 87 104 127 84 143 36 hvcurveto
          -68 87 rmoveto
          -55 -24 -101 -36 -53 vhcurveto
          -65 -45 -58 -12 -28 hhcurveto
          -43 -53 24 82 43 26 111 26 47 hvcurveto
          81 44 66 17 34 hhcurveto
          34 57 -19 -100 hvcurveto
          endchar
        </CharString>
        <CharString name="etilde">
          -16 callsubr
          106 38 28 38 12 callsubr
          hintmask 11100110
          -101 callgsubr
          hintmask 00011000
          120 282 -106 callsubr
        </CharString>
        <CharString name="eturned">
          -11 callsubr
        </CharString>
        <CharString name="exclam">
          315 0 108 102 -21 527 -20 hstem
          115 111 vstem
          374 653 rmoveto
          3 8 2 6 7 vvcurveto
          18 -15 24 -31 -11 -46 -6 -54 -9 vhcurveto
          -75 -442 rlineto
          -2 -10 0 -3 0 vvcurveto
          -12 10 0 7 11 3 0 17 6 vhcurveto
          -1 -142 0 callsubr
          endchar
        </CharString>
        <CharString name="exclamdown">
          315 -195 -21 527 -20 101 108 hstem
          60 264 vstem
          324 456 0 callsubr
          -152 -612 rmoveto
          75 442 rlineto
          2 10 0 3 0 109 callsubr
          -11 -3 0 -17 -6 vhcurveto
          -147 -447 rlineto
          -3 -8 -2 -6 -7 vvcurveto
          -18 15 -24 31 11 46 6 54 9 vhcurveto
          endchar
        </CharString>
        <CharString name="f">
          -30 callsubr
        </CharString>
        <CharString name="f_f">
          630 -205 25 580 59 callsubr
          158 83 156 83 153 83 vstem
          774 638 rmoveto
          49 -53 18 -38 -105 -26 -127 -33 -6 vhcurveto
          -22 -114 rlineto
          -235 hlineto
          23 120 5 27 9 47 17 20 rlinecurve
          0 29 35 55 17 25 -3 -13 21 vhcurveto
          86 callgsubr
          -77 -54 -30 -61 -29 vhcurveto
          -10 -20 -9 -22 -4 -22 -23 -119 rcurveline
          115 callgsubr
          -377 rlineto
          -196 -37 -23 -7 -24 -21 callsubr
          -44 43 -22 40 97 44 164 122 23 vhcurveto
          61 319 rlineto
          235 hlineto
          -67 -349 -10 -54 -1 -2 -14 -54 rlinecurve
          -13 -45 -6 -15 -20 -23 rrcurveto
          -19 -17 -24 -19 -29 hhcurveto
          -22 -22 7 9 -11 hvcurveto
          26 8 11 22 17 vvcurveto
          20 -16 12 -18 -24 -25 -20 -33 -50 56 -17 44 69 56 56 35 22 vhcurveto
          37 59 27 142 1 5 59 308 rcurveline
          84 hlineto
          17 11 83 callgsubr
          -79 hlineto
          17 94 20 106 9 16 rrcurveto
          6 3 16 27 25 hhcurveto
          4 24 0 -16 17 hvcurveto
          -26 -8 -11 -22 -17 101 callsubr
          vhcurveto
          endchar
        </CharString>
        <CharString name="f_f_i">
          905 -205 25 17 78 96 callsubr
          182 83 172 64 54 83 vstem
          931 -10 callsubr
          75 300 rlineto
          1 6 2 4 3 vvcurveto
          12 -9 0 -16 vhcurveto
          -258 hlineto
          21 108 rlineto
          100 19 28 41 113 hhcurveto
          27 54 -2 -23 28 97 callgsubr
          -118 0 -38 -75 -120 -5 -172 -33 vhcurveto
          -19 -97 rlineto
          -245 hlineto
          22 115 rlineto
          76 15 16 58 98 hhcurveto
          8 40 0 -16 27 hvcurveto
          -20 -7 -14 -19 -21 101 callsubr
          60 -80 7 -45 -118 -59 -55 -120 -23 vhcurveto
          -19 -99 rlineto
          115 callgsubr
          -377 rlineto
          -196 -38 -22 -7 -24 -21 callsubr
          -44 43 -22 40 97 44 164 122 23 vhcurveto
          61 319 rlineto
          245 hlineto
          -65 -341 -11 -55 -11 -60 -20 -49 rlinecurve
          -14 -6 -39 -61 -55 63 callgsubr
          63 70 46 71 33 vhcurveto
          21 46 13 49 10 50 66 343 rcurveline
          215 23 callsubr
          endchar
        </CharString>
        <CharString name="f_f_l">
          918 -205 25 18 77 96 callsubr
          156 83 211 64 vstem
          944 -10 callsubr
          141 563 rlineto
          1 3 2 10 30 callgsubr
          55 -1 -66 10 -60 hhcurveto
          -109 -69 -42 -134 -26 hvcurveto
          -19 -98 rlineto
          -245 hlineto
          26 144 10 34 11 24 rrcurveto
          22 9 37 25 45 hhcurveto
          17 25 -3 -13 21 hvcurveto
          86 callgsubr
          -78 -45 -33 -30 -22 vhcurveto
          -29 -41 -9 -46 -23 -124 rrcurveto
          115 callgsubr
          -375 -12 -59 0 -2 -16 -65 rlinecurve
          -25 -7 -14 -54 8 callsubr
          43 -22 40 95 44 157 129 25 vhcurveto
          61 319 rlineto
          245 hlineto
          -63 -329 -15 -78 -18 -70 -10 -26 rlinecurve
          -21 -9 -39 -56 -53 63 callgsubr
          70 64 55 52 27 vhcurveto
          25 50 14 55 11 55 65 338 rcurveline
          228 23 callsubr
          -111 288 rmoveto
          -230 hlineto
          20 107 2 7 4 16 rrcurveto
          62 14 14 57 101 23 callgsubr
        </CharString>
</ttFont>
